<?xml version="1.0" encoding="utf-8"?>
<!-- Generator: Adobe Illustrator 25.0.0, SVG Export Plug-In . SVG Version: 6.00 Build 0)  -->
<svg version="1.1" id="Слой_1" xmlns="http://www.w3.org/2000/svg" xmlns:xlink="http://www.w3.org/1999/xlink" x="0px" y="0px"
	 viewBox="0 0 131 26" style="enable-background:new 0 0 131 26;" xml:space="preserve">
<style type="text/css">
	.st0{display:none;clip-path:url(#SVGID_2_);fill:#2B2E30;}
	.st1{display:none;clip-path:url(#SVGID_2_);fill:#3A3B3F;}
	.st2{display:none;clip-path:url(#SVGID_2_);fill:#909AA0;}
	.st3{display:none;clip-path:url(#SVGID_2_);fill:#646A6B;}
	.st4{display:none;clip-path:url(#SVGID_2_);fill:#E0524B;}
	.st5{display:none;clip-path:url(#SVGID_2_);fill:#47494F;}
	.st6{display:none;clip-path:url(#SVGID_2_);fill:#D3E1EA;}
	.st7{display:none;opacity:0.12;clip-path:url(#SVGID_2_);fill:#FFFFFF;enable-background:new    ;}
	.st8{display:none;opacity:0.24;clip-path:url(#SVGID_2_);fill:#FFFFFF;enable-background:new    ;}
	.st9{display:none;clip-path:url(#SVGID_2_);}
	.st10{display:inline;}
	.st11{display:inline;clip-path:url(#SVGID_4_);}
	.st12{fill:#FFFFFF;filter:url(#Adobe_OpacityMaskFilter);}
	.st13{mask:url(#mask0_55_2692_1_);}
	.st14{fill:#FFFFFF;}
	.st15{clip-path:url(#SVGID_2_);fill:#2B2E30;}
	.st16{clip-path:url(#SVGID_2_);fill:#3A3B3F;}
	.st17{clip-path:url(#SVGID_2_);fill:#E52713;}
	.st18{clip-path:url(#SVGID_2_);fill:#47494F;}
	.st19{clip-path:url(#SVGID_2_);fill:#909AA0;}
	.st20{opacity:0.24;clip-path:url(#SVGID_2_);fill:#FFFFFF;enable-background:new    ;}
	.st21{clip-path:url(#SVGID_2_);fill:#646A6B;}
	.st22{opacity:0.12;clip-path:url(#SVGID_2_);fill:#FFFFFF;enable-background:new    ;}
	.st23{opacity:0.27;clip-path:url(#SVGID_2_);fill:#FFFFFF;enable-background:new    ;}
	.st24{clip-path:url(#SVGID_2_);fill:#FFFFFF;filter:url(#Adobe_OpacityMaskFilter_1_);}
	.st25{clip-path:url(#SVGID_2_);mask:url(#mask1_55_2692_1_);}
	.st26{clip-path:url(#SVGID_2_);fill:#FFFFFF;filter:url(#Adobe_OpacityMaskFilter_2_);}
	.st27{clip-path:url(#SVGID_2_);mask:url(#mask1_55_2692_2_);}
</style>
<g>
	<defs>
		
			<rect id="SVGID_1_" x="55.2" y="-52.2" transform="matrix(2.041178e-03 -1 1 2.041178e-03 52.8058 78.4857)" width="21.1" height="129.9"/>
	</defs>
	<clipPath id="SVGID_2_">
		<use xlink:href="#SVGID_1_"  style="display:none;overflow:visible;"/>
	</clipPath>
	<path class="st0" d="M66.1,3l0,0.7l9.7,0l0-0.7c0-0.4-0.3-0.6-0.6-0.6l-8.4,0C66.4,2.3,66.1,2.6,66.1,3z"/>
	<path class="st0" d="M83.4,2.9l0,0.7l9.7,0l0-0.7c0-0.4-0.3-0.6-0.6-0.6l-8.4,0C83.7,2.3,83.4,2.5,83.4,2.9z"/>
	<path class="st0" d="M100.6,3.1l0,0.7l9.7,0l0-0.7c0-0.4-0.3-0.6-0.6-0.6l-8.4,0C100.9,2.4,100.6,2.7,100.6,3.1z"/>
	<path class="st0" d="M117.9,3l0,0.7l9.7,0l0-0.7c0-0.4-0.3-0.6-0.6-0.6l-8.4,0C118.2,2.4,117.9,2.7,117.9,3z"/>
	<path class="st1" d="M129,20.1l-65.7-0.1l0-2L129,18L129,20.1z"/>
	<path class="st2" d="M66.7,21.6c0-1,0.8-1.8,1.8-1.8c1,0,1.8,0.8,1.8,1.8c0,1-0.8,1.8-1.8,1.8C67.5,23.4,66.7,22.6,66.7,21.6z"/>
	<path class="st3" d="M68.5,20.2c-0.8,0-1.4,0.6-1.4,1.4c0,0.8,0.6,1.4,1.4,1.4c0.8,0,1.4-0.6,1.4-1.4
		C69.9,20.8,69.3,20.2,68.5,20.2z"/>
	<path class="st2" d="M68,21.6c0-0.3,0.2-0.5,0.5-0.5c0.3,0,0.5,0.2,0.5,0.5c0,0.3-0.2,0.5-0.5,0.5C68.2,22.1,68,21.8,68,21.6z"/>
	<path class="st2" d="M72.9,19.8c-1,0-1.8,0.8-1.8,1.8c0,1,0.8,1.8,1.8,1.8c1,0,1.8-0.8,1.8-1.8C74.7,20.6,73.9,19.8,72.9,19.8z"/>
	<path class="st3" d="M72.9,20.2c-0.8,0-1.4,0.6-1.4,1.4c0,0.8,0.6,1.4,1.4,1.4c0.8,0,1.4-0.6,1.4-1.4
		C74.3,20.8,73.6,20.2,72.9,20.2z"/>
	<path class="st2" d="M72.4,21.6c0-0.3,0.2-0.5,0.5-0.5c0.3,0,0.5,0.2,0.5,0.5c0,0.3-0.2,0.5-0.5,0.5C72.6,22.1,72.4,21.8,72.4,21.6
		z"/>
	<path class="st2" d="M77.2,19.8c-1,0-1.8,0.8-1.8,1.8c0,1,0.8,1.8,1.8,1.8c1,0,1.8-0.8,1.8-1.8C79,20.6,78.2,19.8,77.2,19.8z"/>
	<path class="st3" d="M77.2,20.2c-0.8,0-1.4,0.6-1.4,1.4c0,0.8,0.6,1.4,1.4,1.4c0.8,0,1.4-0.6,1.4-1.4C78.6,20.8,78,20.2,77.2,20.2z
		"/>
	<path class="st2" d="M77.2,21.1c-0.3,0-0.5,0.2-0.5,0.5c0,0.3,0.2,0.5,0.5,0.5c0.3,0,0.5-0.2,0.5-0.5
		C77.7,21.3,77.5,21.1,77.2,21.1z"/>
	<path class="st0" d="M80.6,21.8l-0.6,0l-0.5-0.7l-6,0l-1.6,0l-6,0l-0.5,0.7l-0.6,0l0.2-0.7l0.4-1.9l6.3,0l1.6,0l6.3,0l0.4,1.9
		L80.6,21.8z"/>
	<path class="st2" d="M113.2,21.7c0-1,0.8-1.8,1.8-1.8c1,0,1.8,0.8,1.8,1.8c0,1-0.8,1.8-1.8,1.8C114,23.5,113.2,22.6,113.2,21.7z"/>
	<path class="st3" d="M115,20.3c-0.8,0-1.4,0.6-1.4,1.4c0,0.8,0.6,1.4,1.4,1.4c0.8,0,1.4-0.6,1.4-1.4
		C116.4,20.9,115.8,20.3,115,20.3z"/>
	<path class="st2" d="M114.5,21.7c0-0.3,0.2-0.5,0.5-0.5c0.3,0,0.5,0.2,0.5,0.5c0,0.3-0.2,0.5-0.5,0.5
		C114.8,22.2,114.5,21.9,114.5,21.7z"/>
	<path class="st2" d="M119.4,19.9c-1,0-1.8,0.8-1.8,1.8c0,1,0.8,1.8,1.8,1.8c1,0,1.8-0.8,1.8-1.8C121.2,20.7,120.4,19.9,119.4,19.9z
		"/>
	<path class="st3" d="M119.4,20.3c-0.8,0-1.4,0.6-1.4,1.4c0,0.8,0.6,1.4,1.4,1.4c0.8,0,1.4-0.6,1.4-1.4
		C120.8,20.9,120.2,20.3,119.4,20.3z"/>
	<path class="st2" d="M118.9,21.7c0-0.3,0.2-0.5,0.5-0.5c0.3,0,0.5,0.2,0.5,0.5c0,0.3-0.2,0.5-0.5,0.5
		C119.1,22.2,118.9,21.9,118.9,21.7z"/>
	<path class="st2" d="M123.8,19.9c-1,0-1.8,0.8-1.8,1.8c0,1,0.8,1.8,1.8,1.8c1,0,1.8-0.8,1.8-1.8C125.6,20.7,124.8,19.9,123.8,19.9z
		"/>
	<path class="st3" d="M123.8,20.3c-0.8,0-1.4,0.6-1.4,1.4c0,0.8,0.6,1.4,1.4,1.4c0.8,0,1.4-0.6,1.4-1.4
		C125.2,20.9,124.5,20.3,123.8,20.3z"/>
	<path class="st2" d="M123.3,21.7c0-0.3,0.2-0.5,0.5-0.5c0.3,0,0.5,0.2,0.5,0.5c0,0.3-0.2,0.5-0.5,0.5
		C123.5,22.2,123.3,21.9,123.3,21.7z"/>
	<path class="st0" d="M127.2,21.9l-0.6,0l-0.5-0.7l-6,0l-1.6,0l-6,0l-0.5,0.7l-0.6,0l0.2-0.7l0.4-1.9l6.3,0l1.6,0l6.3,0l0.4,1.9
		L127.2,21.9z"/>
	<path class="st1" d="M63.3,17.7l-1.8,0l0-12.1l1.8,0L63.3,17.7z"/>
	<path class="st4" d="M129,18.5l-65.7-0.1l0-15.3L129,3.2L129,18.5z"/>
	<path class="st5" d="M129,6.5L63.3,6.4l0-3.3L129,3.2L129,6.5z"/>
	<path class="st2" d="M129,13.3l-65.7-0.1l0-6.8L129,6.5L129,13.3z"/>
	<path class="st5" d="M73.9,8.7l0,9.6l7,0l0-9.6c0-0.4-0.3-0.6-0.6-0.6l-5.7,0C74.2,8.1,73.9,8.4,73.9,8.7z"/>
	<path class="st6" d="M74.1,8.9l0,9.4l6.5,0l0-9.4c0-0.3-0.3-0.6-0.6-0.6l-5.3,0C74.4,8.3,74.1,8.6,74.1,8.9z"/>
	<path class="st0" d="M74.9,9.5l0,3.8c0,0.2,0.2,0.5,0.5,0.5l0.7,0c0.2,0,0.5-0.2,0.5-0.5l0-3.8c0-0.2-0.2-0.5-0.5-0.5l-0.7,0
		C75.1,9.1,74.9,9.3,74.9,9.5z"/>
	<path class="st0" d="M78.1,9.5l0,3.8c0,0.2,0.2,0.5,0.5,0.5l0.7,0c0.2,0,0.5-0.2,0.5-0.5l0-3.8c0-0.2-0.2-0.5-0.5-0.5l-0.7,0
		C78.3,9.1,78.1,9.3,78.1,9.5z"/>
	<path class="st5" d="M77.5,18.3l-0.2,0l0-10.1l0.2,0L77.5,18.3z"/>
	<path class="st5" d="M111.6,8.8l0,9.6l7,0l0-9.6c0-0.4-0.3-0.6-0.6-0.6l-5.7,0C111.9,8.2,111.6,8.5,111.6,8.8z"/>
	<path class="st6" d="M111.9,9l0,9.4l6.5,0l0-9.4c0-0.3-0.3-0.6-0.6-0.6l-5.3,0C112.1,8.4,111.9,8.7,111.9,9z"/>
	<path class="st0" d="M112.6,9.6l0,3.8c0,0.2,0.2,0.5,0.5,0.5l0.7,0c0.2,0,0.5-0.2,0.5-0.5l0-3.8c0-0.2-0.2-0.5-0.5-0.5l-0.7,0
		C112.8,9.1,112.6,9.3,112.6,9.6z"/>
	<path class="st0" d="M117.5,9.6l0,3.8c0,0.2-0.2,0.5-0.5,0.5l-0.7,0c-0.3,0-0.5-0.2-0.5-0.5l0-3.8c0-0.2,0.2-0.5,0.5-0.5l0.7,0
		C117.3,9.1,117.5,9.3,117.5,9.6z"/>
	<path class="st5" d="M115.3,18.4l-0.2,0l0-10.1l0.2,0L115.3,18.4z"/>
	<path class="st5" d="M64.3,9.2l0,1.9c0,0.6,0.5,1,1,1l6,0c0.6,0,1-0.5,1-1l0-1.9c0-0.6-0.5-1-1-1l-6,0C64.8,8.2,64.3,8.6,64.3,9.2z
		"/>
	<path class="st0" d="M64.6,9.3l0,1.6c0,0.5,0.4,0.9,0.9,0.9l5.5,0c0.5,0,0.9-0.4,0.9-0.9l0-1.6c0-0.5-0.4-0.9-0.9-0.9l-5.5,0
		C65,8.4,64.6,8.8,64.6,9.3z"/>
	<path class="st7" d="M67.2,8.4L64.6,11l0-0.6l1.9-2.1L67.2,8.4z"/>
	<path class="st7" d="M66.4,11.8l1.7,0c0.1,0,2.5-3.5,2.5-3.5l-1.1,0L66.4,11.8L66.4,11.8z"/>
	<path class="st7" d="M69.6,11.9l1.1,0l1.3-1.7l0-0.6C72,9.6,69.7,11.9,69.6,11.9L69.6,11.9z"/>
	<path class="st5" d="M120.9,8c-0.6,0-1,0.5-1,1l0,1.9c0,0.6,0.5,1,1,1l6,0c0.6,0,1-0.5,1-1l0-1.9c0-0.6-0.5-1-1-1L120.9,8L120.9,8z
		"/>
	<path class="st0" d="M120.2,9.1l0,1.6c0,0.5,0.4,0.9,0.9,0.9l5.5,0c0.5,0,0.9-0.4,0.9-0.9l0-1.6c0-0.5-0.4-0.9-0.9-0.9l-5.5,0
		C120.6,8.2,120.2,8.6,120.2,9.1z"/>
	<path class="st7" d="M122.7,8.2l-2.6,2.7l0-0.6l1.9-2.1L122.7,8.2z"/>
	<path class="st7" d="M121.9,11.7l1.7,0c0.1,0,2.5-3.5,2.5-3.5l-1.1,0L121.9,11.7L121.9,11.7z"/>
	<path class="st7" d="M125.2,11.7l1.1,0l1.3-1.7l0-0.6C127.6,9.4,125.2,11.7,125.2,11.7L125.2,11.7z"/>
	<path class="st5" d="M82.5,9.2l0,1.9c0,0.6,0.5,1,1,1l6,0c0.6,0,1-0.5,1-1l0-1.9c0-0.6-0.5-1-1-1l-6,0C82.9,8.2,82.5,8.6,82.5,9.2z
		"/>
	<path class="st0" d="M82.8,9.3l0,1.6c0,0.5,0.4,0.9,0.9,0.9l5.5,0c0.5,0,0.9-0.4,0.9-0.9l0-1.6c0-0.5-0.4-0.9-0.9-0.9l-5.5,0
		C83.2,8.3,82.8,8.7,82.8,9.3z"/>
	<path class="st7" d="M85.3,8.3L82.8,11l0-0.6l1.9-2.1L85.3,8.3z"/>
	<path class="st7" d="M84.5,11.8l1.7,0c0.1,0,2.5-3.5,2.5-3.5l-1.1,0L84.5,11.8L84.5,11.8z"/>
	<path class="st7" d="M88.9,11.8l1.3-1.7l0-0.6c0,0-2.3,2.3-2.4,2.3L88.9,11.8z"/>
	<path class="st5" d="M100.6,9.2l0,1.9c0,0.6-0.5,1-1,1l-6,0c-0.6,0-1-0.5-1-1l0-1.9c0-0.6,0.5-1,1-1l6,0
		C100.2,8.2,100.6,8.7,100.6,9.2z"/>
	<path class="st0" d="M92.9,9.3l0,1.6c0,0.5,0.4,0.9,0.9,0.9l5.5,0c0.5,0,0.9-0.4,0.9-0.9l0-1.6c0-0.5-0.4-0.9-0.9-0.9l-5.5,0
		C93.3,8.4,92.9,8.8,92.9,9.3z"/>
	<path class="st7" d="M95.5,8.4l-2.6,2.7l0-0.6l1.9-2.1L95.5,8.4z"/>
	<path class="st7" d="M94.6,11.9l1.7,0c0.1,0,2.5-3.5,2.5-3.5l-1.1,0L94.6,11.9L94.6,11.9z"/>
	<path class="st7" d="M97.9,11.9l1.1,0l1.3-1.7l0-0.6C100.3,9.6,97.9,11.9,97.9,11.9L97.9,11.9z"/>
	<path class="st5" d="M103.5,8.2c-0.6,0-1,0.5-1,1l0,1.9c0,0.6,0.5,1,1,1l6,0c0.6,0,1-0.5,1-1l0-1.9c0-0.6-0.5-1-1-1L103.5,8.2
		L103.5,8.2z"/>
	<path class="st0" d="M110.2,9.3l0,1.6c0,0.5-0.4,0.9-0.9,0.9l-5.5,0c-0.5,0-0.9-0.4-0.9-0.9l0-1.6c0-0.5,0.4-0.9,0.9-0.9l5.5,0
		C109.8,8.4,110.2,8.8,110.2,9.3z"/>
	<path class="st7" d="M105.4,8.4l-2.6,2.7l0-0.6l1.9-2.1L105.4,8.4z"/>
	<path class="st7" d="M104.5,11.9l1.7,0c0.1,0,2.5-3.5,2.5-3.5l-1.1,0L104.5,11.9L104.5,11.9z"/>
	<path class="st7" d="M107.8,11.9l1.1,0l1.3-1.7l0-0.6C110.2,9.6,107.8,11.9,107.8,11.9L107.8,11.9z"/>
	<path class="st2" d="M129,15.3l-7.3,0l-1.8,1.5l9.1,0L129,15.3z"/>
	<path class="st2" d="M72.4,15.2l-9.1,0l0,1.5l7.3,0L72.4,15.2z"/>
	<path class="st2" d="M110.5,15.2l-1.8,1.5l-5.9,0l-1.4,0l-19.1,0l2.3-1.5l16.8,0l1.4,0L110.5,15.2z"/>
	<path class="st8" d="M85.9,4.6c-3.3-0.1-6.6-0.2-9.9-0.2c-3,0-5.9,0.1-8.9,0.2c-0.5,0-1.7,0.3-2.1,0c-0.4-0.4,0.2-0.7,0.5-0.8
		c0.6-0.2,1.3-0.1,2-0.1c0.7,0,1.5,0,2.2,0c6,0,12,0,17.9,0.1c0.2,0,0.4,0,0.5,0.1c0.2,0.1,0.2,0.3,0.1,0.5
		c-0.1,0.1-0.2,0.1-0.3,0.1C87.4,4.6,86.7,4.6,85.9,4.6L85.9,4.6z"/>
	<path class="st8" d="M97.9,4.6c-1,0-1.9,0-2.9-0.1c-0.9,0-1.7,0-2.6,0c-0.4,0-2,0.2-2.1-0.3c-0.2-0.8,3.3-0.4,3.8-0.4
		c0.6,0,1.2,0.1,1.9,0.1c1.4,0,2.7-0.1,4.1-0.2c0.2,0,0.4,0,0.5,0.1c0.2,0.1,0.3,0.3,0.2,0.5c-0.1,0.1-0.2,0.1-0.3,0.2
		C99.6,4.7,98.7,4.7,97.9,4.6L97.9,4.6z"/>
	<g class="st9">
		<defs>
			
				<rect id="SVGID_3_" x="91.3" y="7.8" transform="matrix(1.108873e-02 -0.9999 0.9999 1.108873e-02 78.3023 109.8082)" width="6.8" height="15.1"/>
		</defs>
		<clipPath id="SVGID_4_" class="st10">
			<use xlink:href="#SVGID_3_"  style="overflow:visible;"/>
		</clipPath>
		<g class="st11">
			<defs>
				<filter id="Adobe_OpacityMaskFilter" filterUnits="userSpaceOnUse" x="88.2" y="12.5" width="12.6" height="5.5">
					<feColorMatrix  type="matrix" values="1 0 0 0 0  0 1 0 0 0  0 0 1 0 0  0 0 0 1 0"/>
				</filter>
			</defs>
			<mask maskUnits="userSpaceOnUse" x="88.2" y="12.5" width="12.6" height="5.5" id="mask0_55_2692_1_">
				<path class="st12" d="M102.3,12l-15.2-0.2l-0.1,6.8l15.2,0.2L102.3,12z"/>
			</mask>
			<g class="st13">
				<path class="st14" d="M97.2,13l0,0.2l1.8,0c0.1,0,0.3,0,0.4,0.1c0.1,0.1,0.1,0.3,0.1,0.4l0,1.8c0,0.1,0,0.3-0.1,0.4
					c-0.1,0.1-0.3,0.1-0.4,0.1l-0.8,0c-0.1,0-0.3,0-0.4-0.2c-0.1-0.2,0-0.3,0.1-0.4l1.2-1.5l-1.8,0l-0.7,0.9
					c-0.1,0.2-0.2,0.3-0.2,0.5c0,0.2,0.1,0.3,0.2,0.5l0.2,0.2c0.2,0.2,0.3,0.5,0.6,0.6c0.2,0.1,0.5,0.1,0.9,0.1l0.8,0
					c0.4,0,1.1,0,1.5-0.4c0.4-0.4,0.4-1.1,0.5-1.3l0-0.7c0-0.2,0-0.9-0.4-1.3s-1.1-0.5-1.5-0.5l-1.2,0c-0.1,0-0.3,0-0.4,0.1
					C97.2,12.8,97.2,12.9,97.2,13z"/>
				<path class="st14" d="M95.1,13.9l1.7,0l-2.1,2.8l-1.7,0L95.1,13.9z"/>
				<path class="st14" d="M88.2,14.3c0-0.1,0-0.3,0.1-0.4c0.1-0.1,0.3-0.1,0.4-0.1l2.9,0c0.4,0,0.7,0,0.9,0.1
					c0.2,0.1,0.4,0.4,0.6,0.6l0.2,0.2c0.1,0.2,0.2,0.3,0.2,0.5c0,0.2-0.1,0.3-0.2,0.5l-0.7,0.9l-1.7,0l1.2-1.5
					c0.1-0.1,0.2-0.3,0.1-0.4c-0.1-0.2-0.3-0.2-0.4-0.2l-1.4,0l0,3.5l-1.4,0l0-3.5l-0.7,0L88.2,14.3"/>
			</g>
		</g>
	</g>
	<path class="st15" d="M13.9,2.9l0,0.7l9.7,0l0-0.7c0-0.4-0.3-0.6-0.6-0.6l-8.4,0C14.2,2.3,13.9,2.6,13.9,2.9z"/>
	<path class="st15" d="M4.4,2.9l0,0.2l3.2,0l0-0.2c0-0.1-0.1-0.2-0.2-0.2l-2.7,0C4.5,2.7,4.4,2.8,4.4,2.9z"/>
	<path class="st15" d="M32.2,2.9l0,0.7l9.7,0l0-0.7c0-0.4-0.3-0.6-0.6-0.6l-8.4,0C32.5,2.2,32.2,2.5,32.2,2.9z"/>
	<path class="st15" d="M50.5,3l0,0.7l9.7,0l0-0.7c0-0.4-0.3-0.6-0.6-0.6l-8.4,0C50.8,2.4,50.5,2.7,50.5,3z"/>
	<path class="st16" d="M61.5,19.9L4.6,19.8l0-2l56.8,0.1L61.5,19.9z"/>
	<path class="st17" d="M7,19.6c0.4-0.8,1.2-1.4,2.1-1.4l52.4,0.1l0-15.3c0,0-55.3-0.1-56.6,0.1c-1.3,0.2-3.8,8.9-4,10.4
		c-0.2,1.6,1.3,7.8,1.3,7.8l4.5,0L7,19.6z"/>
	<path class="st18" d="M61.5,3l0,3.5L3,6.4l1.5-3.3c0,0,6.8-0.2,6.8-0.2C12.4,2.8,61.5,3,61.5,3L61.5,3z"/>
	<path class="st19" d="M30.1,7.6l31.2,0.1l0.2,10.6L2,19.8c0,0-1.6-0.7-1.2-3.2c0.4-2.5,26.9-0.9,26.9-0.9L30.1,7.6z"/>
	<path class="st18" d="M1.7,12.2c0,0,0.7-0.9,2-2.4c1-1.1,1.8-1.9,1.8-1.9s3.6,0,3.7-0.1c0.1,0-1.1,4.2-1.1,4.2L1.7,12.2L1.7,12.2z"
		/>
	<path class="st15" d="M1.9,11.9c0,0,0.1-1.9,1.3-3.2c0.9-1,2.2-0.8,2.2-0.8s3.7,0,3.8,0c0.1,0-1.4,4-1.4,4L1.9,11.9L1.9,11.9z"/>
	<path class="st19" d="M33.1,15.1L0.8,15l0,1.5l30.5,0.1L33.1,15.1z"/>
	<path class="st19" d="M61.5,15.1l-18.2,0L41,16.6l20.5,0L61.5,15.1z"/>
	<path class="st20" d="M2.4,14c0.3-0.9,1.1-1.4,2-1.1C4.7,13,5,13.2,5.1,13.5c0.1,0.3-0.1,0.7-0.3,1c-0.2,0.3-0.5,0.5-0.7,0.8
		c-0.3,0.6-0.3,1.2-0.2,1.9c0.1,0.7,0.1,1.5,0.2,2.2c0,0.2,0,0.4-0.1,0.5c-0.1,0.2-0.5,0.3-0.7,0.3c-0.2,0-0.5,0-0.7-0.2
		c-0.4-0.3-0.4-0.8-0.4-1.3c0-1.1,0-2.1,0-3.2C2.2,15.1,2.2,14.5,2.4,14L2.4,14z"/>
	<path class="st19" d="M9.3,21.4c0-1,0.8-1.8,1.8-1.8c1,0,1.8,0.8,1.8,1.8s-0.8,1.8-1.8,1.8C10.1,23.2,9.3,22.4,9.3,21.4z"/>
	<path class="st21" d="M11.1,20.1c-0.8,0-1.4,0.6-1.4,1.4c0,0.8,0.6,1.4,1.4,1.4c0.8,0,1.4-0.6,1.4-1.4
		C12.5,20.7,11.9,20.1,11.1,20.1z"/>
	<path class="st19" d="M10.6,21.4c0-0.3,0.2-0.5,0.5-0.5c0.3,0,0.5,0.2,0.5,0.5c0,0.3-0.2,0.5-0.5,0.5
		C10.9,21.9,10.6,21.7,10.6,21.4z"/>
	<path class="st19" d="M15.5,19.7c-1,0-1.8,0.8-1.8,1.8c0,1,0.8,1.8,1.8,1.8c1,0,1.8-0.8,1.8-1.8C17.3,20.5,16.5,19.7,15.5,19.7z"/>
	<path class="st21" d="M15.5,20.1c-0.8,0-1.4,0.6-1.4,1.4c0,0.8,0.6,1.4,1.4,1.4c0.8,0,1.4-0.6,1.4-1.4
		C16.9,20.7,16.3,20.1,15.5,20.1z"/>
	<path class="st19" d="M15,21.5c0-0.3,0.2-0.5,0.5-0.5c0.3,0,0.5,0.2,0.5,0.5c0,0.3-0.2,0.5-0.5,0.5C15.2,21.9,15,21.7,15,21.5z"/>
	<path class="st19" d="M19.9,19.7c-1,0-1.8,0.8-1.8,1.8c0,1,0.8,1.8,1.8,1.8c1,0,1.8-0.8,1.8-1.8C21.7,20.5,20.9,19.7,19.9,19.7z"/>
	<path class="st21" d="M19.9,20.1c-0.8,0-1.4,0.6-1.4,1.4c0,0.8,0.6,1.4,1.4,1.4c0.8,0,1.4-0.6,1.4-1.4
		C21.2,20.7,20.6,20.1,19.9,20.1z"/>
	<path class="st19" d="M19.4,21.5c0-0.3,0.2-0.5,0.5-0.5c0.3,0,0.5,0.2,0.5,0.5c0,0.3-0.2,0.5-0.5,0.5C19.6,22,19.4,21.7,19.4,21.5z
		"/>
	<path class="st15" d="M23.2,21.7l-0.6,0L22.2,21l-6,0l-1.6,0l-6,0l-0.5,0.7l-0.6,0L7.9,21l0.4-1.9l6.3,0l1.6,0l6.3,0L23,21
		L23.2,21.7z"/>
	<path class="st15" d="M6.9,22l-0.2,0l-0.1-0.7l-2,0.1l-0.5,0l-2,0.1l-0.2,0.7l-0.2,0l0.1-0.7L2,19.8l2.1-0.1l0.5,0l2.1-0.1l0.1,1.9
		L6.9,22z"/>
	<path class="st19" d="M47.5,21.5c0-1,0.8-1.8,1.8-1.8c1,0,1.8,0.8,1.8,1.8c0,1-0.8,1.8-1.8,1.8C48.3,23.3,47.5,22.5,47.5,21.5z"/>
	<path class="st21" d="M49.3,20.1c-0.8,0-1.4,0.6-1.4,1.4c0,0.8,0.6,1.4,1.4,1.4c0.8,0,1.4-0.6,1.4-1.4C50.6,20.8,50,20.1,49.3,20.1
		z"/>
	<path class="st19" d="M48.8,21.5c0-0.3,0.2-0.5,0.5-0.5c0.3,0,0.5,0.2,0.5,0.5c0,0.3-0.2,0.5-0.5,0.5C49,22,48.8,21.8,48.8,21.5z"
		/>
	<path class="st19" d="M53.6,19.7c-1,0-1.8,0.8-1.8,1.8c0,1,0.8,1.8,1.8,1.8c1,0,1.8-0.8,1.8-1.8C55.4,20.5,54.6,19.7,53.6,19.7z"/>
	<path class="st21" d="M53.6,20.2c-0.8,0-1.4,0.6-1.4,1.4c0,0.8,0.6,1.4,1.4,1.4c0.8,0,1.4-0.6,1.4-1.4C55,20.8,54.4,20.2,53.6,20.2
		z"/>
	<path class="st19" d="M53.1,21.5c0-0.3,0.2-0.5,0.5-0.5c0.3,0,0.5,0.2,0.5,0.5c0,0.3-0.2,0.5-0.5,0.5C53.4,22,53.1,21.8,53.1,21.5z
		"/>
	<path class="st19" d="M58,19.7c-1,0-1.8,0.8-1.8,1.8c0,1,0.8,1.8,1.8,1.8s1.8-0.8,1.8-1.8C59.8,20.6,59,19.7,58,19.7z"/>
	<path class="st21" d="M58,20.2c-0.8,0-1.4,0.6-1.4,1.4c0,0.8,0.6,1.4,1.4,1.4c0.8,0,1.4-0.6,1.4-1.4C59.4,20.8,58.8,20.2,58,20.2z"
		/>
	<path class="st19" d="M57.5,21.5c0-0.3,0.2-0.5,0.5-0.5c0.3,0,0.5,0.2,0.5,0.5c0,0.3-0.2,0.5-0.5,0.5C57.7,22,57.5,21.8,57.5,21.5z
		"/>
	<path class="st15" d="M61.4,21.8l-0.6,0l-0.5-0.7l-6,0l-1.6,0l-6,0l-0.5,0.7l-0.6,0l0.2-0.7l0.4-1.9l6.3,0l1.6,0l6.3,0l0.4,1.9
		L61.4,21.8z"/>
	<path class="st18" d="M17.2,7.7l0,1.2c0,0.4-0.3,0.7-0.7,0.7l-3.9,0c-0.4,0-0.7-0.3-0.7-0.7l0-1.2c0-0.4,0.3-0.7,0.7-0.7l3.9,0
		C16.9,7.1,17.2,7.4,17.2,7.7z"/>
	<path class="st15" d="M12.1,7.8l0,1.1c0,0.3,0.3,0.6,0.6,0.6l3.6,0c0.3,0,0.6-0.3,0.6-0.6l0-1.1c0-0.3-0.3-0.6-0.6-0.6l-3.6,0
		C12.4,7.2,12.1,7.5,12.1,7.8z"/>
	<path class="st22" d="M13.8,7.2l-1.7,1.7l0-0.4l1.2-1.3L13.8,7.2z"/>
	<path class="st22" d="M13.3,9.5l1.1,0c0,0,1.6-2.3,1.6-2.3l-0.7,0L13.3,9.5L13.3,9.5z"/>
	<path class="st22" d="M15.4,9.5l0.7,0L17,8.3L17,8C17,8,15.4,9.5,15.4,9.5L15.4,9.5z"/>
	<path class="st18" d="M18.5,7.8l0,1.2c0,0.4,0.3,0.7,0.7,0.7l3.9,0c0.4,0,0.7-0.3,0.7-0.7l0-1.2c0-0.4-0.3-0.7-0.7-0.7l-3.9,0
		C18.8,7.1,18.5,7.4,18.5,7.8z"/>
	<path class="st15" d="M23.6,7.8l0,1.1c0,0.3-0.3,0.6-0.6,0.6l-3.6,0c-0.3,0-0.6-0.3-0.6-0.6l0-1.1c0-0.3,0.3-0.6,0.6-0.6l3.6,0
		C23.3,7.2,23.6,7.5,23.6,7.8z"/>
	<path class="st22" d="M20.4,7.2L18.7,9l0-0.4L20,7.2L20.4,7.2z"/>
	<path class="st22" d="M19.9,9.5l1.1,0c0,0,1.6-2.3,1.6-2.3l-0.7,0L19.9,9.5L19.9,9.5z"/>
	<path class="st22" d="M22.7,9.5l0.8-1.1l0-0.4c0,0-1.5,1.5-1.5,1.5L22.7,9.5z"/>
	<path class="st22" d="M42.2,11l0-0.6"/>
	<path class="st22" d="M44.1,8.3l0.7,0"/>
	<path class="st22" d="M2.2,11.4l-0.4,0.5l0.9,0c0,0,5-3.8,5.1-3.8c0,0-0.9,0-0.9,0L2.2,11.4L2.2,11.4z"/>
	<path class="st23" d="M1.9,11.9l2.4,0c0,0,4.6-3.8,4.7-3.8c0,0-1.1,0-1.1,0L1.9,11.9L1.9,11.9z"/>
	<path class="st20" d="M26.6,4.2c-1.4,0-2.9,0-4.3,0c-2.6,0-5.2-0.1-7.7-0.1c-0.6,0-1.3,0-1.9,0c-0.5,0-1.4,0.2-1.9,0
		c-0.5-0.2-0.3-0.6,0.1-0.8c0.5-0.2,1-0.2,1.6-0.2c5.2,0.1,10.3,0.7,15.5,0.3c0.2,0,0.4,0,0.5,0.1c0.2,0.1,0.3,0.3,0.2,0.5
		c-0.1,0.1-0.2,0.1-0.3,0.2C27.7,4.2,27.2,4.2,26.6,4.2L26.6,4.2z"/>
	<path class="st20" d="M30.6,4.1c-0.4,0-0.8-0.4-0.3-0.6c0.2-0.1,0.6,0,0.8,0c0.3,0,0.6,0,1,0c1.3,0,2.6,0,3.8,0
		c0.1,0,0.3,0,0.4,0.1c0.1,0.1,0.2,0.3,0.1,0.4C36.3,4,36.2,4,36.2,4c-0.8,0.2-1.6,0.2-2.4,0.2C32.7,4.2,31.7,4.2,30.6,4.1L30.6,4.1
		z"/>
	<defs>
		<filter id="Adobe_OpacityMaskFilter_1_" filterUnits="userSpaceOnUse" x="14.4" y="12.7" width="12.6" height="5.5">
			<feColorMatrix  type="matrix" values="1 0 0 0 0  0 1 0 0 0  0 0 1 0 0  0 0 0 1 0"/>
		</filter>
	</defs>
	<mask maskUnits="userSpaceOnUse" x="14.4" y="12.7" width="12.6" height="5.5" id="mask1_55_2692_1_">
		<path class="st24" d="M28.5,12.2L13.4,12l-0.1,6.8L28.4,19L28.5,12.2z"/>
	</mask>
	<g class="st25">
		<path class="st14" d="M23.4,13.2l0,0.2l1.8,0c0.1,0,0.3,0,0.4,0.1c0.1,0.1,0.1,0.3,0.1,0.4l0,1.8c0,0.1,0,0.3-0.1,0.4
			c-0.1,0.1-0.3,0.1-0.4,0.1l-0.8,0c-0.1,0-0.3,0-0.4-0.2c-0.1-0.2,0-0.3,0.1-0.4l1.2-1.5l-1.8,0l-0.7,0.9c-0.1,0.2-0.2,0.3-0.2,0.5
			c0,0.2,0.1,0.3,0.2,0.5l0.2,0.2c0.2,0.2,0.3,0.5,0.6,0.6c0.2,0.1,0.5,0.1,0.9,0.1l0.8,0c0.4,0,1.1,0,1.5-0.4
			c0.4-0.4,0.4-1.1,0.5-1.3l0-0.7c0-0.2,0-0.9-0.4-1.3c-0.4-0.4-1.1-0.5-1.5-0.5l-1.2,0c-0.1,0-0.3,0-0.4,0.1
			C23.4,13,23.4,13.1,23.4,13.2z"/>
		<path class="st14" d="M21.3,14.1l1.7,0l-2.1,2.8l-1.7,0L21.3,14.1z"/>
		<path class="st14" d="M14.4,14.5c0-0.1,0-0.3,0.1-0.4c0.1-0.1,0.3-0.1,0.4-0.1l2.9,0c0.4,0,0.7,0,0.9,0.1c0.2,0.1,0.4,0.4,0.6,0.6
			l0.2,0.2c0.1,0.2,0.2,0.3,0.2,0.5c0,0.2-0.1,0.3-0.2,0.5l-0.7,0.9l-1.7,0l1.2-1.5c0.1-0.1,0.2-0.3,0.1-0.4
			c-0.1-0.2-0.3-0.2-0.4-0.2l-1.4,0l0,3.5l-1.4,0l0-3.5l-0.7,0L14.4,14.5"/>
	</g>
	<rect x="48.5" y="6.5" class="st18" width="0.6" height="6.5"/>
	<rect x="49.6" y="6.5" class="st18" width="0.6" height="6.5"/>
	<rect x="50.8" y="6.5" class="st18" width="0.6" height="6.5"/>
	<rect x="51.9" y="6.5" class="st18" width="0.6" height="6.5"/>
	<rect x="53.1" y="6.5" class="st18" width="0.6" height="6.5"/>
	<rect x="54.2" y="6.5" class="st18" width="0.6" height="6.5"/>
	<rect x="55.4" y="6.5" class="st18" width="0.6" height="6.5"/>
	<rect x="56.5" y="6.5" class="st18" width="0.6" height="6.5"/>
	<rect x="43.9" y="6.5" class="st18" width="0.6" height="6.5"/>
	<rect x="45.1" y="6.5" class="st18" width="0.6" height="6.5"/>
	<rect x="46.2" y="6.5" class="st18" width="0.6" height="6.5"/>
	<rect x="47.4" y="6.5" class="st18" width="0.6" height="6.5"/>
	<rect x="57.4" y="6.5" class="st18" width="0.6" height="6.5"/>
	<rect x="58.6" y="6.5" class="st18" width="0.6" height="6.5"/>
	<rect x="59.7" y="6.5" class="st18" width="0.6" height="6.5"/>
	<rect x="60.9" y="6.5" class="st18" width="0.6" height="6.5"/>
	
		<rect x="61.5" y="4.5" transform="matrix(-1 -2.497481e-11 2.497481e-11 -1 125.4457 23.9348)" class="st15" width="2.5" height="15"/>
	<path class="st15" d="M110.9,2.3l-8.4,0c-0.4,0-0.6,0.3-0.6,0.6l0,0.7l9.7,0l0-0.7C111.6,2.6,111.3,2.3,110.9,2.3z"/>
	<path class="st15" d="M120.8,2.7l-2.7,0c-0.1,0-0.2,0.1-0.2,0.2l0,0.2l3.2,0l0-0.2C121,2.8,121,2.7,120.8,2.7z"/>
	<path class="st15" d="M92.6,2.2l-8.4,0c-0.4,0-0.6,0.3-0.6,0.6l0,0.7l9.7,0l0-0.7C93.3,2.5,93,2.2,92.6,2.2z"/>
	<path class="st15" d="M74.3,2.4l-8.4,0c-0.4,0-0.6,0.3-0.6,0.6l0,0.7l9.7,0l0-0.7C74.9,2.7,74.7,2.4,74.3,2.4z"/>
	<path class="st16" d="M64,17.9l56.8-0.1l0,2L64,19.9L64,17.9z"/>
	<path class="st17" d="M118.8,21.4l4.5,0c0,0,1.5-6.2,1.3-7.8c-0.2-1.6-2.8-10.3-4-10.4C119.3,2.9,64,3,64,3l0,15.3l52.4-0.1
		c0.9,0,1.7,0.5,2.1,1.4L118.8,21.4z"/>
	<path class="st18" d="M64,3c0,0,49-0.3,50.3-0.1c0,0,6.8,0.2,6.8,0.2l1.5,3.3L64,6.5L64,3L64,3z"/>
	<path class="st19" d="M97.8,15.6c0,0,26.5-1.6,26.9,0.9c0.4,2.5-1.2,3.2-1.2,3.2L64,18.3l0.2-10.6l31.2-0.1L97.8,15.6z"/>
	<path class="st18" d="M123.8,12.2l-6.3-0.1c0,0-1.2-4.3-1.1-4.2c0.1,0,3.7,0.1,3.7,0.1s0.8,0.7,1.8,1.9
		C123.1,11.2,123.8,12.2,123.8,12.2L123.8,12.2z"/>
	<path class="st15" d="M123.6,11.9l-5.8-0.1c0,0-1.5-4-1.4-4c0.1,0,3.8,0,3.8,0s1.2-0.1,2.2,0.8C123.5,10,123.6,11.9,123.6,11.9
		L123.6,11.9z"/>
	<path class="st19" d="M94.2,16.6l30.5-0.1l0-1.5l-32.3,0.1L94.2,16.6z"/>
	<path class="st19" d="M64,16.7l20.5,0l-2.3-1.5l-18.2,0L64,16.7z"/>
	<path class="st20" d="M123.1,14c0.2,0.5,0.2,1.1,0.2,1.6c0,1.1,0,2.1,0,3.2c0,0.5,0,1-0.4,1.3c-0.2,0.1-0.5,0.2-0.7,0.2
		c-0.3,0-0.6-0.1-0.7-0.3c-0.1-0.2-0.1-0.4-0.1-0.5c0.1-0.7,0.1-1.5,0.2-2.2c0.1-0.6,0.1-1.3-0.2-1.9c-0.2-0.3-0.4-0.6-0.7-0.8
		c-0.2-0.3-0.4-0.6-0.3-1c0.1-0.3,0.4-0.5,0.7-0.6C122,12.5,122.8,13.1,123.1,14L123.1,14z"/>
	<path class="st19" d="M114.3,23.2c-1,0-1.8-0.8-1.8-1.8c0-1,0.8-1.8,1.8-1.8c1,0,1.8,0.8,1.8,1.8C116.1,22.4,115.3,23.2,114.3,23.2
		z"/>
	<path class="st21" d="M112.9,21.4c0,0.8,0.6,1.4,1.4,1.4c0.8,0,1.4-0.6,1.4-1.4c0-0.8-0.6-1.4-1.4-1.4
		C113.6,20.1,112.9,20.7,112.9,21.4z"/>
	<path class="st19" d="M114.3,21.9c-0.3,0-0.5-0.2-0.5-0.5c0-0.3,0.2-0.5,0.5-0.5c0.3,0,0.5,0.2,0.5,0.5
		C114.8,21.7,114.6,21.9,114.3,21.9z"/>
	<path class="st19" d="M108.2,21.4c0,1,0.8,1.8,1.8,1.8c1,0,1.8-0.8,1.8-1.8s-0.8-1.8-1.8-1.8C109,19.6,108.2,20.5,108.2,21.4z"/>
	<path class="st21" d="M108.6,21.4c0,0.8,0.6,1.4,1.4,1.4c0.8,0,1.4-0.6,1.4-1.4c0-0.8-0.6-1.4-1.4-1.4
		C109.2,20.1,108.6,20.7,108.6,21.4z"/>
	<path class="st19" d="M110,21.9c-0.3,0-0.5-0.2-0.5-0.5c0-0.3,0.2-0.5,0.5-0.5c0.3,0,0.5,0.2,0.5,0.5
		C110.5,21.7,110.2,21.9,110,21.9z"/>
	<path class="st19" d="M103.8,21.5c0,1,0.8,1.8,1.8,1.8c1,0,1.8-0.8,1.8-1.8c0-1-0.8-1.8-1.8-1.8C104.6,19.7,103.8,20.5,103.8,21.5z
		"/>
	<path class="st21" d="M104.2,21.5c0,0.8,0.6,1.4,1.4,1.4c0.8,0,1.4-0.6,1.4-1.4c0-0.8-0.6-1.4-1.4-1.4
		C104.8,20.1,104.2,20.7,104.2,21.5z"/>
	<path class="st19" d="M105.6,21.9c-0.3,0-0.5-0.2-0.5-0.5c0-0.3,0.2-0.5,0.5-0.5c0.3,0,0.5,0.2,0.5,0.5
		C106.1,21.7,105.9,21.9,105.6,21.9z"/>
	<path class="st15" d="M102.4,21l0.4-1.9l6.3,0l1.6,0l6.3,0l0.4,1.9l0.2,0.7l-0.6,0l-0.5-0.7l-6,0l-1.6,0l-6,0l-0.5,0.7l-0.6,0
		L102.4,21z"/>
	<path class="st15" d="M118.6,21.3l0.1-1.9l2.1,0.1l0.5,0l2.1,0.1l0.2,1.9l0.1,0.7l-0.2,0l-0.2-0.7l-2-0.1l-0.5,0l-2-0.1l-0.1,0.7
		l-0.2,0L118.6,21.3z"/>
	<path class="st19" d="M76.2,23.3c-1,0-1.8-0.8-1.8-1.8c0-1,0.8-1.8,1.8-1.8c1,0,1.8,0.8,1.8,1.8C78,22.5,77.2,23.3,76.2,23.3z"/>
	<path class="st21" d="M74.8,21.5c0,0.8,0.6,1.4,1.4,1.4c0.8,0,1.4-0.6,1.4-1.4c0-0.8-0.6-1.4-1.4-1.4
		C75.4,20.1,74.8,20.8,74.8,21.5z"/>
	<path class="st19" d="M76.2,22c-0.3,0-0.5-0.2-0.5-0.5c0-0.3,0.2-0.5,0.5-0.5c0.3,0,0.5,0.2,0.5,0.5C76.7,21.8,76.5,22,76.2,22z"/>
	<path class="st19" d="M70,21.5c0,1,0.8,1.8,1.8,1.8c1,0,1.8-0.8,1.8-1.8c0-1-0.8-1.8-1.8-1.8C70.8,19.7,70,20.5,70,21.5z"/>
	<path class="st21" d="M70.4,21.5c0,0.8,0.6,1.4,1.4,1.4c0.8,0,1.4-0.6,1.4-1.4c0-0.8-0.6-1.4-1.4-1.4
		C71.1,20.1,70.4,20.8,70.4,21.5z"/>
	<path class="st19" d="M71.8,22c-0.3,0-0.5-0.2-0.5-0.5c0-0.3,0.2-0.5,0.5-0.5c0.3,0,0.5,0.2,0.5,0.5C72.3,21.8,72.1,22,71.8,22z"/>
	<path class="st19" d="M65.7,21.5c0,1,0.8,1.8,1.8,1.8c1,0,1.8-0.8,1.8-1.8c0-1-0.8-1.8-1.8-1.8C66.5,19.7,65.7,20.5,65.7,21.5z"/>
	<path class="st21" d="M66.1,21.5c0,0.8,0.6,1.4,1.4,1.4c0.8,0,1.4-0.6,1.4-1.4c0-0.8-0.6-1.4-1.4-1.4
		C66.7,20.2,66.1,20.8,66.1,21.5z"/>
	<path class="st19" d="M67.5,22c-0.3,0-0.5-0.2-0.5-0.5c0-0.3,0.2-0.5,0.5-0.5c0.3,0,0.5,0.2,0.5,0.5C68,21.8,67.7,22,67.5,22z"/>
	<path class="st15" d="M64.3,21.1l0.4-1.9l6.3,0l1.6,0l6.3,0l0.4,1.9l0.2,0.7l-0.6,0l-0.5-0.7l-6,0l-1.6,0l-6,0l-0.5,0.7l-0.6,0
		L64.3,21.1z"/>
	<path class="st18" d="M109,7.1l3.9,0c0.4,0,0.7,0.3,0.7,0.7l0,1.2c0,0.4-0.3,0.7-0.7,0.7l-3.9,0c-0.4,0-0.7-0.3-0.7-0.7l0-1.2
		C108.3,7.4,108.6,7.1,109,7.1z"/>
	<path class="st15" d="M112.7,7.2l-3.6,0c-0.3,0-0.6,0.3-0.6,0.6l0,1.1c0,0.3,0.3,0.6,0.6,0.6l3.6,0c0.3,0,0.6-0.3,0.6-0.6l0-1.1
		C113.3,7.5,113,7.2,112.7,7.2z"/>
	<path class="st22" d="M112.1,7.2l1.2,1.3l0,0.4l-1.7-1.7L112.1,7.2z"/>
	<path class="st22" d="M112.2,9.5l-2-2.3l-0.7,0c0,0,1.6,2.3,1.6,2.3L112.2,9.5L112.2,9.5z"/>
	<path class="st22" d="M110,9.5c0,0-1.5-1.5-1.5-1.5l0,0.4l0.8,1.1L110,9.5L110,9.5z"/>
	<path class="st18" d="M106.3,7.1l-3.9,0c-0.4,0-0.7,0.3-0.7,0.7l0,1.2c0,0.4,0.3,0.7,0.7,0.7l3.9,0c0.4,0,0.7-0.3,0.7-0.7l0-1.2
		C106.9,7.4,106.6,7.1,106.3,7.1z"/>
	<path class="st15" d="M102.5,7.2l3.6,0c0.3,0,0.6,0.3,0.6,0.6l0,1.1c0,0.3-0.3,0.6-0.6,0.6l-3.6,0c-0.3,0-0.6-0.3-0.6-0.6l0-1.1
		C101.9,7.5,102.2,7.2,102.5,7.2z"/>
	<path class="st22" d="M105.5,7.2l1.2,1.3l0,0.4L105,7.2L105.5,7.2z"/>
	<path class="st22" d="M105.6,9.5l-2-2.3l-0.7,0c0,0,1.6,2.3,1.6,2.3L105.6,9.5L105.6,9.5z"/>
	<path class="st22" d="M103.5,9.5c0,0-1.5-1.5-1.5-1.5l0,0.4l0.8,1.1L103.5,9.5z"/>
	<path class="st22" d="M83.2,10.4l0,0.6"/>
	<path class="st22" d="M80.7,8.3l0.7,0"/>
	<path class="st22" d="M123.2,11.4l-4.6-3.2c0,0-1,0-0.9,0c0,0,5.1,3.8,5.1,3.8l0.9,0L123.2,11.4L123.2,11.4z"/>
	<path class="st23" d="M123.6,11.9l-5.9-3.8c0,0-1.1,0-1.1,0c0,0,4.7,3.8,4.7,3.8L123.6,11.9L123.6,11.9z"/>
	<path class="st20" d="M98.9,4.2c-0.6,0-1.1,0-1.7-0.1c-0.1,0-0.3-0.1-0.3-0.2c-0.1-0.2,0-0.4,0.2-0.5c0.2-0.1,0.4-0.1,0.5-0.1
		c5.2,0.4,10.3-0.2,15.5-0.3c0.5,0,1.1,0,1.6,0.2c0.4,0.2,0.6,0.6,0.1,0.8c-0.5,0.2-1.3,0-1.9,0c-0.6,0-1.3,0-1.9,0
		c-2.6,0-5.2,0-7.7,0.1C101.7,4.2,100.3,4.2,98.9,4.2L98.9,4.2z"/>
	<path class="st20" d="M94.8,4.1c-1.1,0-2.1,0-3.2,0.1c-0.8,0-1.6,0-2.4-0.2c-0.1,0-0.1,0-0.2-0.1c-0.1-0.1,0-0.3,0.1-0.4
		c0.1-0.1,0.3-0.1,0.4-0.1c1.3,0,2.6,0,3.8,0c0.3,0,0.6,0,1,0c0.2,0,0.6-0.1,0.8,0C95.7,3.7,95.2,4.1,94.8,4.1L94.8,4.1z"/>
	
		<rect x="76.4" y="6.5" transform="matrix(-1 -4.338630e-11 4.338630e-11 -1 153.3698 19.4989)" class="st18" width="0.6" height="6.5"/>
	
		<rect x="75.3" y="6.5" transform="matrix(-1 -4.648560e-11 4.648560e-11 -1 151.0872 19.4989)" class="st18" width="0.6" height="6.5"/>
	
		<rect x="74.1" y="6.5" transform="matrix(-1 -4.648560e-11 4.648560e-11 -1 148.8046 19.4989)" class="st18" width="0.6" height="6.5"/>
	
		<rect x="73" y="6.5" transform="matrix(-1 -4.648560e-11 4.648560e-11 -1 146.522 19.4989)" class="st18" width="0.6" height="6.5"/>
	
		<rect x="71.8" y="6.5" transform="matrix(-1 -4.338630e-11 4.338630e-11 -1 144.1741 19.4989)" class="st18" width="0.6" height="6.5"/>
	
		<rect x="70.7" y="6.5" transform="matrix(-1 -4.338630e-11 4.338630e-11 -1 141.8915 19.4989)" class="st18" width="0.6" height="6.5"/>
	
		<rect x="69.5" y="6.5" transform="matrix(-1 -4.338630e-11 4.338630e-11 -1 139.6089 19.4989)" class="st18" width="0.6" height="6.5"/>
	
		<rect x="68.4" y="6.5" transform="matrix(-1 -4.338630e-11 4.338630e-11 -1 137.3263 19.4989)" class="st18" width="0.6" height="6.5"/>
	
		<rect x="80.9" y="6.5" transform="matrix(-1 -4.338630e-11 4.338630e-11 -1 162.4676 19.4989)" class="st18" width="0.6" height="6.5"/>
	
		<rect x="79.8" y="6.5" transform="matrix(-1 -4.338630e-11 4.338630e-11 -1 160.185 19.4989)" class="st18" width="0.6" height="6.5"/>
	
		<rect x="78.7" y="6.5" transform="matrix(-1 -4.338630e-11 4.338630e-11 -1 157.9024 19.4989)" class="st18" width="0.6" height="6.5"/>
	
		<rect x="77.5" y="6.5" transform="matrix(-1 -4.648560e-11 4.648560e-11 -1 155.6198 19.4989)" class="st18" width="0.6" height="6.5"/>
	
		<rect x="67.4" y="6.5" transform="matrix(-1 -4.338630e-11 4.338630e-11 -1 135.435 19.4989)" class="st18" width="0.6" height="6.5"/>
	
		<rect x="66.3" y="6.5" transform="matrix(-1 -4.338630e-11 4.338630e-11 -1 133.1524 19.4989)" class="st18" width="0.6" height="6.5"/>
	
		<rect x="65.1" y="6.5" transform="matrix(-1 -4.338630e-11 4.338630e-11 -1 130.8698 19.4989)" class="st18" width="0.6" height="6.5"/>
	
		<rect x="64" y="6.5" transform="matrix(-1 -4.338630e-11 4.338630e-11 -1 128.5872 19.4989)" class="st18" width="0.6" height="6.5"/>
	<rect x="61.5" y="4.5" class="st15" width="2.5" height="15"/>
	<defs>
		<filter id="Adobe_OpacityMaskFilter_2_" filterUnits="userSpaceOnUse" x="98.6" y="11.9" width="12.6" height="5.5">
			<feColorMatrix  type="matrix" values="1 0 0 0 0  0 1 0 0 0  0 0 1 0 0  0 0 0 1 0"/>
		</filter>
	</defs>
	<mask maskUnits="userSpaceOnUse" x="98.6" y="11.9" width="12.6" height="5.5" id="mask1_55_2692_2_">
		<path class="st26" d="M112.7,11.4l-15.2-0.2L97.5,18l15.2,0.2L112.7,11.4z"/>
	</mask>
	<g class="st27">
		<path class="st14" d="M107.6,12.4l0,0.2l1.8,0c0.1,0,0.3,0,0.4,0.1c0.1,0.1,0.1,0.3,0.1,0.4l0,1.8c0,0.1,0,0.3-0.1,0.4
			c-0.1,0.1-0.3,0.1-0.4,0.1l-0.8,0c-0.1,0-0.3,0-0.4-0.2c-0.1-0.2,0-0.3,0.1-0.4l1.2-1.5l-1.8,0l-0.7,0.9c-0.1,0.2-0.2,0.3-0.2,0.5
			c0,0.2,0.1,0.3,0.2,0.5l0.2,0.2c0.2,0.2,0.3,0.5,0.6,0.6c0.2,0.1,0.5,0.1,0.9,0.1l0.8,0c0.4,0,1.1,0,1.5-0.4
			c0.4-0.4,0.4-1.1,0.5-1.3l0-0.7c0-0.2,0-0.9-0.4-1.3c-0.4-0.4-1.1-0.5-1.5-0.5l-1.2,0c-0.1,0-0.3,0-0.4,0.1
			C107.6,12.1,107.6,12.3,107.6,12.4z"/>
		<path class="st14" d="M105.5,13.2l1.7,0l-2.1,2.8l-1.7,0L105.5,13.2z"/>
		<path class="st14" d="M98.6,13.7c0-0.1,0-0.3,0.1-0.4c0.1-0.1,0.3-0.1,0.4-0.1l2.9,0c0.4,0,0.7,0,0.9,0.1c0.2,0.1,0.4,0.4,0.6,0.6
			l0.2,0.2c0.1,0.2,0.2,0.3,0.2,0.5c0,0.2-0.1,0.3-0.2,0.5L103,16l-1.7,0l1.2-1.5c0.1-0.1,0.2-0.3,0.1-0.4c-0.1-0.2-0.3-0.2-0.4-0.2
			l-1.4,0l0,3.5l-1.4,0l0-3.5l-0.7,0L98.6,13.7"/>
	</g>
</g>
</svg>
