<svg xmlns="http://www.w3.org/2000/svg" viewBox="0 0 143.14 73.84"><defs><style>.cls-1{fill:#fff;}.cls-2{fill:#cdcdcd;}</style></defs><g id="Слой_2" data-name="Слой 2"><g id="Слой_1-2" data-name="Слой 1"><circle class="cls-1" cx="55.61" cy="61.45" r="12.39"/><rect class="cls-1" x="1" y="1" width="141.14" height="28.13" rx="4"/><path class="cls-1" d="M138.14,2a3,3,0,0,1,3,3V25.13a3,3,0,0,1-3,3H5a3,3,0,0,1-3-3V5A3,3,0,0,1,5,2H138.14m0-2H5A5,5,0,0,0,0,5V25.13a5,5,0,0,0,5,5H138.14a5,5,0,0,0,5-5V5a5,5,0,0,0-5-5Z"/><path d="M10.52,16.11q0,.69.06,1.5H7.94a16.05,16.05,0,0,1-.49-4,12.65,12.65,0,0,1,.13-2h6.51a14.17,14.17,0,0,1,.38,3.23,13.1,13.1,0,0,1-4,1Zm0-1.07a3.51,3.51,0,0,0,1.29-.38,4.46,4.46,0,0,0-1-2.26A22.27,22.27,0,0,0,10.53,15Z"/><path d="M23.25,17.52v.09H20.47a10.39,10.39,0,0,0-.2-1.41,13,13,0,0,1-1.68,1.41h-2.8a7.67,7.67,0,0,1-.08-1.3A5.8,5.8,0,0,1,16,14.68a5,5,0,0,0,1.66-.85,4,4,0,0,0,1.16-1.29,8.63,8.63,0,0,0-.69-.93h4A14,14,0,0,1,23.25,17.52Zm-3.2-2.2a10.82,10.82,0,0,0-.82-2,11.85,11.85,0,0,0-.64,3.14A5.11,5.11,0,0,0,20.05,15.32Z"/><path d="M28.8,12.61v-.28a3.54,3.54,0,0,0-.87-.07,3.2,3.2,0,0,0-.85.07,6.86,6.86,0,0,0,.2.81c-.56,0-1.07,0-1.54-.08a8.06,8.06,0,0,1-.48-1.44,12.06,12.06,0,0,1,2.61-.28c1.87,0,2.8.29,2.8.87a.82.82,0,0,1-.09.33,6.59,6.59,0,0,1-1.17,1.64,2.54,2.54,0,0,1,1.48,1,3.5,3.5,0,0,1,.63,1.73A5.19,5.19,0,0,1,30,18.2,5.94,5.94,0,0,1,28,19a8.81,8.81,0,0,1-1.7-.38,6.14,6.14,0,0,0-1.53-.31,2,2,0,0,0-1,.33c.36-1,.65-1.54.89-1.54a4.18,4.18,0,0,1,1.41.24c.44.16.84.32,1.21.48a2.37,2.37,0,0,0,.91.24c.24,0,.39,0,.44-.09a.68.68,0,0,0,.07-.39,4.75,4.75,0,0,0-.38-1.78c-.25-.61-.5-.92-.76-.92a4.41,4.41,0,0,1-.86.18h-.23c.14-.3.33-.65.57-1.07h.38a8.35,8.35,0,0,1,1.12.06A3.77,3.77,0,0,0,28.8,12.61Z"/><path d="M34,17.61a11.56,11.56,0,0,1-.29-2.67,16.87,16.87,0,0,1,.17-2.55,1.38,1.38,0,0,0-.66.37,1.46,1.46,0,0,0-.29.72l-1.19-.07.37-1.8H37a19.43,19.43,0,0,0-.25,2,10.47,10.47,0,0,1,3.72,1.06,12.64,12.64,0,0,1-.37,2.9Zm2.73-3.13a8.59,8.59,0,0,0,.3,2.33,4.14,4.14,0,0,0,.8-2A3.32,3.32,0,0,0,36.75,14.48Z"/><path d="M45.72,14l1.13.08.25,0-.57,1.06h-.1a2.22,2.22,0,0,1-.65-.13,2.54,2.54,0,0,0-.6-.12q-.49,0-.78.63c0,.4-.06.79-.07,1.18a5.44,5.44,0,0,0,1,.12h.11a1.14,1.14,0,0,0,1.26-1l1.44.06a8.82,8.82,0,0,1-.48,1.77H41.75a21.88,21.88,0,0,1-.24-3.21,20.6,20.6,0,0,1,.16-2.79h6.44a16.67,16.67,0,0,1-.39,1.83c-.47,0-.9,0-1.29,0a1.61,1.61,0,0,0,.09-.51c0-.39-.29-.58-.86-.58a4.85,4.85,0,0,0-.72.07c-.18.76-.31,1.43-.41,2A1.68,1.68,0,0,1,45.72,14Z"/><path d="M53.41,12.61v-.28a3.54,3.54,0,0,0-.87-.07,3.25,3.25,0,0,0-.85.07,6.77,6.77,0,0,0,.21.81c-.56,0-1.08,0-1.55-.08a8.06,8.06,0,0,1-.48-1.44,12.06,12.06,0,0,1,2.61-.28c1.87,0,2.8.29,2.8.87a1,1,0,0,1-.08.33A6.6,6.6,0,0,1,54,14.18a2.54,2.54,0,0,1,1.48,1,3.5,3.5,0,0,1,.63,1.73A5.06,5.06,0,0,1,54.6,18.2a5.94,5.94,0,0,1-2,.76A8.73,8.73,0,0,1,51,18.58a6.29,6.29,0,0,0-1.54-.31,2,2,0,0,0-1.05.33c.36-1,.66-1.54.89-1.54a4.18,4.18,0,0,1,1.41.24c.44.16.85.32,1.21.48a2.37,2.37,0,0,0,.91.24c.25,0,.39,0,.44-.09a.68.68,0,0,0,.07-.39,4.57,4.57,0,0,0-.38-1.78c-.25-.61-.5-.92-.76-.92a4.27,4.27,0,0,1-.86.18h-.23c.14-.3.34-.65.58-1.07H52a8.62,8.62,0,0,1,1.13.06A4,4,0,0,0,53.41,12.61Z"/><path d="M63.38,18.36q0-.75-1-.75H58.86c-.67,0-1,.37-1,1.09a2.1,2.1,0,0,0,0,.28c-.45,0-.81,0-1.08,0a14.21,14.21,0,0,1-.45-2.25l.75,0a7.4,7.4,0,0,1,.23-2.06,4.06,4.06,0,0,0,1.51-.82,4.39,4.39,0,0,0,1-1.32,7.43,7.43,0,0,0-.68-.93h4a13.46,13.46,0,0,1,1.18,5.17l.81,0A13.39,13.39,0,0,1,64.58,19l-1.32-.07A1.61,1.61,0,0,0,63.38,18.36ZM59.69,16a4.28,4.28,0,0,0,0,.65,12.24,12.24,0,0,0,1.64.13,10.16,10.16,0,0,0-1-3.48A7.07,7.07,0,0,0,59.69,16Z"/><path d="M70,14a12,12,0,0,1,.22-2.35h7.19A10.72,10.72,0,0,1,77,13.06l-.84,0-.83,0a2.33,2.33,0,0,0,.14-.72c-.82,0-1.5,0-2,.07q-.1.43-.24,1.32A8.91,8.91,0,0,1,77,15a12,12,0,0,1-.52,2.64h-6A13.19,13.19,0,0,1,70,14Zm3,2.86a5.45,5.45,0,0,0,1.34-.13,3.12,3.12,0,0,0-1.22-2.08A19.78,19.78,0,0,0,73,16.82Z"/><path d="M86.12,17.52v.09H83.34a9.08,9.08,0,0,0-.21-1.41,11.81,11.81,0,0,1-1.68,1.41H78.66a7.52,7.52,0,0,1-.09-1.3,5.8,5.8,0,0,1,.24-1.63,5.08,5.08,0,0,0,1.67-.85,3.92,3.92,0,0,0,1.15-1.29,7.43,7.43,0,0,0-.68-.93h4A13.86,13.86,0,0,1,86.12,17.52Zm-3.2-2.2a10.82,10.82,0,0,0-.82-2,12.3,12.3,0,0,0-.65,3.14A5,5,0,0,0,82.92,15.32Z"/><path d="M95,17.61H92.25A11,11,0,0,0,91,13.33,6.84,6.84,0,0,0,90.38,16a4.11,4.11,0,0,0,.31,1.57H87.57a9.09,9.09,0,0,1-.08-1.32,5.8,5.8,0,0,1,.23-1.61,5.13,5.13,0,0,0,1.68-.85,4,4,0,0,0,1.15-1.29,9.73,9.73,0,0,0-.68-.93h4A14.18,14.18,0,0,1,95,17.61Z"/><path d="M96.14,14a12,12,0,0,1,.23-2.35h7.19a9.34,9.34,0,0,1-.39,1.45l-.83,0-.83,0a3.13,3.13,0,0,0,.14-.72c-.82,0-1.5,0-2,.07q-.09.43-.24,1.32A8.86,8.86,0,0,1,103.17,15a11.45,11.45,0,0,1-.51,2.64h-6A13.58,13.58,0,0,1,96.14,14Zm3,2.86a5.45,5.45,0,0,0,1.34-.13,3.12,3.12,0,0,0-1.22-2.08A19.78,19.78,0,0,0,99.17,16.82Z"/><path d="M111.84,11.84a3.36,3.36,0,0,1-.69.1,4.22,4.22,0,0,1-.52,0,4.39,4.39,0,0,0-.68,1.19,10.45,10.45,0,0,0-.45,1.33q-.15.59-.33,1.44A27.54,27.54,0,0,1,107.35,22c-.4.12-.9.23-1.49.35a20,20,0,0,0,2-4.77h-2.49a21.13,21.13,0,0,1-1-6h3.5a10.7,10.7,0,0,0-.25,2.37,11.85,11.85,0,0,0,.41,2.86c0-.21.15-.59.29-1.13s.23-.93.3-1.16.16-.56.29-1a6.24,6.24,0,0,1,.36-1c.11-.21.24-.45.4-.71a2.21,2.21,0,0,1,1.14-1,6.61,6.61,0,0,1,.83-.13,2,2,0,0,0,.9-.24A9.24,9.24,0,0,1,111.84,11.84Z"/><path d="M120.27,11.84a2.94,2.94,0,0,1-.66.1,4.56,4.56,0,0,1-.54,0,10.75,10.75,0,0,0-1.7,1.64,40.37,40.37,0,0,1,2.32,4.07h-3c-.33-.7-.66-1.34-1-1.91a27.7,27.7,0,0,0-2,3.36l-.71.17-.67.15a36.5,36.5,0,0,1,3-4.37,17.65,17.65,0,0,0-2.79-3.4h3.73A11.29,11.29,0,0,0,117,13l.37-.44c.18-.22.33-.39.43-.5l.42-.41a2.93,2.93,0,0,1,1-.66,5.5,5.5,0,0,1,.83-.12,2.27,2.27,0,0,0,.9-.25A7.71,7.71,0,0,1,120.27,11.84Z"/><path d="M126.26,12.39a19.7,19.7,0,0,0-.31,3.1,19,19,0,0,0,.1,2.12h-2.62a19.72,19.72,0,0,1-.41-4.1c0-.25,0-.62,0-1.12a1.7,1.7,0,0,0-1.25,1.38l-1.19-.07.43-2.09h8a12.89,12.89,0,0,1-.55,2.16l-1.21-.07a1.73,1.73,0,0,0,0-.38.84.84,0,0,0-.29-.7A1.21,1.21,0,0,0,126.26,12.39Z"/><path d="M137.34,17.52v.09h-2.79a10.39,10.39,0,0,0-.2-1.41,13,13,0,0,1-1.68,1.41h-2.8a8.89,8.89,0,0,1-.08-1.3,5.8,5.8,0,0,1,.24-1.63,5,5,0,0,0,1.66-.85,4,4,0,0,0,1.16-1.29,8.59,8.59,0,0,0-.68-.93h4A14,14,0,0,1,137.34,17.52Zm-3.21-2.2a10.79,10.79,0,0,0-.81-2,11.89,11.89,0,0,0-.65,3.14A5,5,0,0,0,134.13,15.32Z"/><rect class="cls-1" x="53.79" y="30.13" width="3.46" height="20.18"/><circle class="cls-2" cx="55.61" cy="61.45" r="8.8"/></g></g></svg>