<svg xmlns="http://www.w3.org/2000/svg" viewBox="0 0 143.14 73.84"><defs><style>.cls-1,.cls-3{fill:#fff;}.cls-2{fill:#e42918;}.cls-3{font-size:12px;font-family:RuslanDisplay, Ruslan Display;}</style></defs><g id="Слой_2" data-name="Слой 2"><g id="Слой_1-2" data-name="Слой 1"><circle class="cls-1" cx="55.61" cy="61.45" r="12.39"/><rect class="cls-2" x="1" y="1" width="141.14" height="28.13" rx="4"/><path class="cls-1" d="M138.14,2a3,3,0,0,1,3,3V25.13a3,3,0,0,1-3,3H5a3,3,0,0,1-3-3V5A3,3,0,0,1,5,2H138.14m0-2H5A5,5,0,0,0,0,5V25.13a5,5,0,0,0,5,5H138.14a5,5,0,0,0,5-5V5a5,5,0,0,0-5-5Z"/><text class="cls-3" transform="translate(6.99 17.61)">разъезд балбухта</text><rect class="cls-1" x="53.79" y="30.13" width="3.46" height="20.18"/><circle class="cls-2" cx="55.61" cy="61.45" r="8.8"/></g></g></svg>