<svg xmlns="http://www.w3.org/2000/svg" viewBox="0 0 78.65 76.55"><defs><style>.cls-1{fill:#fff;}.cls-2{fill:#cdcdcd;}</style></defs><g id="Слой_2" data-name="Слой 2"><g id="Слой_1-2" data-name="Слой 1"><path class="cls-1" d="M66.26,75.55A11.39,11.39,0,1,1,77.65,64.16,11.4,11.4,0,0,1,66.26,75.55Z"/><path class="cls-1" d="M66.26,53.77A10.39,10.39,0,1,1,55.87,64.16,10.4,10.4,0,0,1,66.26,53.77m0-2A12.39,12.39,0,1,0,78.65,64.16,12.39,12.39,0,0,0,66.26,51.77Z"/><rect class="cls-1" x="1" y="1" width="73.72" height="28.13" rx="4"/><path class="cls-1" d="M70.72,2a3,3,0,0,1,3,3V25.13a3,3,0,0,1-3,3H5a3,3,0,0,1-3-3V5A3,3,0,0,1,5,2H70.72m0-2H5A5,5,0,0,0,0,5V25.13a5,5,0,0,0,5,5H70.72a5,5,0,0,0,5-5V5a5,5,0,0,0-5-5Z"/><path d="M13.69,12h.39a2.69,2.69,0,0,0,1.14-.18,13.91,13.91,0,0,1-1,1.35H14A3.71,3.71,0,0,1,12.82,13a4.66,4.66,0,0,0-1.3,1.79,13.94,13.94,0,0,0,2.83.38,10.68,10.68,0,0,1,.49,2.93H11.73a6,6,0,0,0-.62-1.64,2.66,2.66,0,0,0-.85-1c-.06.65-.09,1.18-.09,1.58s0,.76,0,1.08H7.57a24.39,24.39,0,0,1-.23-3c0-.81.06-1.82.18-3h3.34a24.88,24.88,0,0,0-.5,2.5,8.07,8.07,0,0,1,1.14-1.5,5.32,5.32,0,0,1,1.41-1A4.26,4.26,0,0,1,13.69,12Z"/><path d="M23.19,12.33a3.26,3.26,0,0,1-.68.09,4.45,4.45,0,0,1-.53,0,4.24,4.24,0,0,0-.67,1.19,10.45,10.45,0,0,0-.45,1.33q-.15.59-.33,1.44a28.16,28.16,0,0,1-1.83,6.17,14.59,14.59,0,0,1-1.48.34,19.72,19.72,0,0,0,1.94-4.76H16.68a21.15,21.15,0,0,1-1-6H19.2a10.56,10.56,0,0,0-.26,2.37,11.85,11.85,0,0,0,.41,2.86c.06-.21.15-.59.29-1.13l.3-1.16c.06-.23.16-.56.29-1a8.59,8.59,0,0,1,.36-1c.11-.21.25-.45.41-.71a2.13,2.13,0,0,1,1.14-1A6.34,6.34,0,0,1,23,11.3a2,2,0,0,0,.9-.24A8.26,8.26,0,0,1,23.19,12.33Z"/><path d="M31.92,13.1a30.08,30.08,0,0,1-.46,5H28.59a30.6,30.6,0,0,0,.25-3.05,3.42,3.42,0,0,0-1.39-.47,26.12,26.12,0,0,1-.38,3.52H24.34a20.61,20.61,0,0,0,.16-2.81,22.09,22.09,0,0,0-.22-3.19h3.17c0,.33,0,.82,0,1.46a8.18,8.18,0,0,1,1.38.59c0-.74,0-1.43-.09-2.05h3.12C31.91,12.55,31.92,12.88,31.92,13.1Z"/><path d="M37.39,14.51l1.13.07h.25l-.57,1.06h-.1a2.22,2.22,0,0,1-.65-.13,2.54,2.54,0,0,0-.6-.12q-.49,0-.78.63c0,.39-.06.79-.07,1.18a5.44,5.44,0,0,0,1,.12h.11a1.14,1.14,0,0,0,1.26-1l1.44.06a8.93,8.93,0,0,1-.48,1.78H33.42a21.91,21.91,0,0,1-.24-3.22,20.54,20.54,0,0,1,.16-2.78h6.44a16.35,16.35,0,0,1-.39,1.82c-.47,0-.9,0-1.29.05a1.61,1.61,0,0,0,.09-.51c0-.39-.29-.58-.86-.58a3.8,3.8,0,0,0-.72.07c-.18.76-.31,1.43-.41,2A1.68,1.68,0,0,1,37.39,14.51Z"/><path d="M44,16.6q0,.69.06,1.5H41.41A16.08,16.08,0,0,1,40.92,14a12.6,12.6,0,0,1,.13-1.94h6.5a14.63,14.63,0,0,1,.39,3.23,13.18,13.18,0,0,1-3.95,1Zm0-1.07a3.45,3.45,0,0,0,1.28-.38,4.38,4.38,0,0,0-1-2.26A22,22,0,0,0,44,15.53Z"/><path d="M56.32,12.65a1.63,1.63,0,0,0-.09-.55h3.42A13.49,13.49,0,0,1,60.3,15a25.32,25.32,0,0,1,.21,3.14H57.74A15.28,15.28,0,0,0,57,13.94,9.87,9.87,0,0,0,55.9,18.1H53.55a13.18,13.18,0,0,0-1.2-4.18,7.42,7.42,0,0,0-.65,2.84,5.06,5.06,0,0,0,.17,1.34H49a7.52,7.52,0,0,1-.09-1.3,5.8,5.8,0,0,1,.24-1.63,5.35,5.35,0,0,0,1.63-.83,4.06,4.06,0,0,0,1.17-1.26c-.16-.27-.38-.6-.66-1H55a14.11,14.11,0,0,1,.68,2.69A4.37,4.37,0,0,0,56.32,12.65Z"/><path d="M69.34,18v.1H66.56a10.53,10.53,0,0,0-.2-1.42,12.34,12.34,0,0,1-1.68,1.42h-2.8a7.67,7.67,0,0,1-.08-1.3A5.8,5.8,0,0,1,62,15.17a5.24,5.24,0,0,0,1.66-.85A4,4,0,0,0,64.86,13a9.59,9.59,0,0,0-.69-.92h4A14,14,0,0,1,69.34,18Zm-3.2-2.19a10.55,10.55,0,0,0-.82-2,11.87,11.87,0,0,0-.64,3.13A4.91,4.91,0,0,0,66.14,15.81Z"/><rect class="cls-1" x="65.43" y="29.76" width="1.46" height="22.26"/><polygon class="cls-1" points="67.89 28.76 64.44 28.76 64.44 53.02 67.89 53.02 67.89 28.76 67.89 28.76"/><circle class="cls-2" cx="66.26" cy="64.16" r="8.8"/></g></g></svg>