<svg xmlns="http://www.w3.org/2000/svg" viewBox="0 0 136.24 76.55"><defs><style>.cls-1{fill:#fff;}.cls-2{font-size:12px;font-family:RuslanDisplay, Ruslan Display;}.cls-3{fill:#cdcdcd;}</style></defs><g id="Слой_2" data-name="Слой 2"><g id="Слой_1-2" data-name="Слой 1"><path class="cls-1" d="M66.26,75.55A11.39,11.39,0,1,1,77.65,64.16,11.4,11.4,0,0,1,66.26,75.55Z"/><path class="cls-1" d="M66.26,53.77A10.39,10.39,0,1,1,55.87,64.16,10.4,10.4,0,0,1,66.26,53.77m0-2A12.39,12.39,0,1,0,78.65,64.16,12.39,12.39,0,0,0,66.26,51.77Z"/><rect class="cls-1" x="1" y="1" width="73.72" height="28.13" rx="4"/><path class="cls-1" d="M70.72,2a3,3,0,0,1,3,3V25.13a3,3,0,0,1-3,3H5a3,3,0,0,1-3-3V5A3,3,0,0,1,5,2H70.72m0-2H5A5,5,0,0,0,0,5V25.13a5,5,0,0,0,5,5H70.72a5,5,0,0,0,5-5V5a5,5,0,0,0-5-5Z"/><text class="cls-2" transform="translate(6.85 18.1)">кунерма</text><rect class="cls-1" x="65.43" y="29.76" width="1.46" height="22.26"/><polygon class="cls-1" points="67.89 28.76 64.44 28.76 64.44 53.02 67.89 53.02 67.89 28.76 67.89 28.76"/><circle class="cls-3" cx="66.26" cy="64.16" r="8.8"/></g></g></svg>