<svg xmlns="http://www.w3.org/2000/svg" viewBox="0 0 136.57 64.07"><defs><style>.cls-1,.cls-3{fill:#fff;}.cls-2{fill:#e42918;}.cls-3{font-size:12px;font-family:RuslanDisplay, Ruslan Display;}</style></defs><g id="Слой_2" data-name="Слой 2"><g id="Слой_1-2" data-name="Слой 1"><circle class="cls-1" cx="12.39" cy="12.39" r="12.39"/><rect class="cls-2" x="1" y="33.95" width="118.13" height="28.13" rx="4"/><path class="cls-1" d="M115.13,35a3,3,0,0,1,3,3V58.08a3,3,0,0,1-3,3H5a3,3,0,0,1-3-3V38a3,3,0,0,1,3-3H115.13m0-2H5a5,5,0,0,0-5,5V58.08a5,5,0,0,0,5,5H115.13a5,5,0,0,0,5-5V38a5,5,0,0,0-5-5Z"/><text class="cls-3" transform="translate(7.17 50.79)">поселок курлы</text><rect class="cls-1" x="10.57" y="21.78" width="3.46" height="12.62"/><circle class="cls-2" cx="12.39" cy="12.39" r="8.8"/></g></g></svg>