<svg xmlns="http://www.w3.org/2000/svg" viewBox="0 0 120.13 63.08"><defs><style>.cls-1{fill:#fff;}.cls-2{fill:#cdcdcd;}</style></defs><g id="Слой_2" data-name="Слой 2"><g id="Слой_1-2" data-name="Слой 1"><circle class="cls-1" cx="12.39" cy="12.39" r="12.39"/><rect class="cls-1" x="1" y="33.95" width="118.13" height="28.13" rx="4"/><path class="cls-1" d="M115.13,35a3,3,0,0,1,3,3V58.08a3,3,0,0,1-3,3H5a3,3,0,0,1-3-3V38a3,3,0,0,1,3-3H115.13m0-2H5a5,5,0,0,0-5,5V58.08a5,5,0,0,0,5,5H115.13a5,5,0,0,0,5-5V38a5,5,0,0,0-5-5Z"/><path d="M15.32,44.79l0,1a29.76,29.76,0,0,1-.46,5H12a27,27,0,0,0,.28-3.89c0-.45,0-.89,0-1.33h-.2a7.22,7.22,0,0,0-1.14.07V46a28.1,28.1,0,0,1-.41,4.77H7.77A20.5,20.5,0,0,0,7.94,48a25.48,25.48,0,0,0-.21-3.19Z"/><path d="M17.53,50.75a4.54,4.54,0,0,1-1.07-2.81,3,3,0,0,1,1.2-2.43,4.63,4.63,0,0,1,3.07-1,6.7,6.7,0,0,1,2,.3,3.7,3.7,0,0,1,.87,2.34,3.59,3.59,0,0,1-1.29,2.74,4.47,4.47,0,0,1-3.1,1.16A5.12,5.12,0,0,1,17.53,50.75Zm1.82-5.2a3.32,3.32,0,0,0-.42,1.7A3.91,3.91,0,0,0,19.36,49a2.53,2.53,0,0,0,1.17,1.18,2.59,2.59,0,0,0,.56-1.67,3.48,3.48,0,0,0-.46-1.76A3.06,3.06,0,0,0,19.35,45.55Z"/><path d="M29.34,45.52a4.59,4.59,0,0,0-.81-.07,4,4,0,0,0-.94.13,6.29,6.29,0,0,0-.18,1.47,3.16,3.16,0,0,0,1.65,2.86,9,9,0,0,0,2-1.82c0,.32.05.8.06,1.46a8,8,0,0,1-1.81,1.09A5.71,5.71,0,0,1,27,51h-.28A3.87,3.87,0,0,1,25,49.66a3.38,3.38,0,0,1-.61-1.92,2.89,2.89,0,0,1,1.1-2.29,4.79,4.79,0,0,1,3.2-.94,10.73,10.73,0,0,1,2.46.3,8.28,8.28,0,0,1-.48,1.43c-.5,0-1,.07-1.56.07A5.57,5.57,0,0,0,29.34,45.52Z"/><path d="M36.51,47.2l1.13.07h.25l-.56,1.05h-.11a2.59,2.59,0,0,1-.65-.12,2.23,2.23,0,0,0-.6-.13c-.32,0-.58.21-.78.64,0,.39,0,.78-.07,1.17a5.64,5.64,0,0,0,1,.12h.1a1.38,1.38,0,0,0,.83-.22,1.36,1.36,0,0,0,.43-.82l1.44.06a8.93,8.93,0,0,1-.48,1.78H32.54a22,22,0,0,1-.24-3.22,20.4,20.4,0,0,1,.17-2.78H38.9a14.77,14.77,0,0,1-.38,1.82l-1.3,0a1.49,1.49,0,0,0,.1-.52q0-.57-.87-.57a4,4,0,0,0-.72.07c-.17.76-.31,1.43-.4,2A1.69,1.69,0,0,1,36.51,47.2Z"/><path d="M47.57,50.79H44.79a11,11,0,0,0-1.22-4.29,6.88,6.88,0,0,0-.65,2.71,4.16,4.16,0,0,0,.31,1.58H40.11A9.09,9.09,0,0,1,40,49.47a5.75,5.75,0,0,1,.23-1.61A5.36,5.36,0,0,0,41.94,47a3.81,3.81,0,0,0,1.15-1.29,8.58,8.58,0,0,0-.68-.92h4A14.12,14.12,0,0,1,47.57,50.79Z"/><path d="M49.52,50.75a4.54,4.54,0,0,1-1.07-2.81,3,3,0,0,1,1.2-2.43,4.64,4.64,0,0,1,3.08-1,6.8,6.8,0,0,1,2,.3,3.74,3.74,0,0,1,.86,2.34,3.61,3.61,0,0,1-1.28,2.74,4.51,4.51,0,0,1-3.11,1.16A5.17,5.17,0,0,1,49.52,50.75Zm1.83-5.2a3.32,3.32,0,0,0-.42,1.7A3.9,3.9,0,0,0,51.35,49a2.62,2.62,0,0,0,1.17,1.18,2.6,2.6,0,0,0,.57-1.67,3.49,3.49,0,0,0-.47-1.76A3,3,0,0,0,51.35,45.55Z"/><path d="M62.78,44.7h.4a2.76,2.76,0,0,0,1.14-.18,15.51,15.51,0,0,1-1,1.36h-.19a4,4,0,0,1-1.19-.19,4.65,4.65,0,0,0-1.31,1.78,13.33,13.33,0,0,0,2.83.39,10.24,10.24,0,0,1,.49,2.93h-3.1a6.55,6.55,0,0,0-.62-1.64,2.8,2.8,0,0,0-.86-1c-.06.66-.08,1.19-.08,1.59s0,.76,0,1.08H56.66a24.39,24.39,0,0,1-.23-3c0-.81.06-1.81.18-3H60a24.9,24.9,0,0,0-.49,2.49,8.41,8.41,0,0,1,1.13-1.49,5.45,5.45,0,0,1,1.41-1A4.26,4.26,0,0,1,62.78,44.7Z"/><path d="M75.46,44.7h.4A2.76,2.76,0,0,0,77,44.52a15.51,15.51,0,0,1-1,1.36h-.19a4,4,0,0,1-1.19-.19,4.75,4.75,0,0,0-1.31,1.78,13.33,13.33,0,0,0,2.83.39,10.16,10.16,0,0,1,.5,2.93H73.51a6.19,6.19,0,0,0-.62-1.64,2.71,2.71,0,0,0-.86-1c0,.66-.08,1.19-.08,1.59s0,.76,0,1.08H69.35a22.55,22.55,0,0,1-.23-3c0-.81.06-1.81.18-3h3.33a24.9,24.9,0,0,0-.49,2.49,8.41,8.41,0,0,1,1.13-1.49,5.34,5.34,0,0,1,1.42-1A4.07,4.07,0,0,1,75.46,44.7Z"/><path d="M85,45a2.79,2.79,0,0,1-.69.1,2.89,2.89,0,0,1-.52,0,4.55,4.55,0,0,0-.68,1.19,11,11,0,0,0-.45,1.33q-.15.6-.33,1.44a27.37,27.37,0,0,1-1.82,6.17,14.58,14.58,0,0,1-1.49.35,20.07,20.07,0,0,0,2-4.76H78.45a21.13,21.13,0,0,1-1-6H81a10.57,10.57,0,0,0-.25,2.37A11.91,11.91,0,0,0,81.13,50c.05-.22.15-.6.29-1.14s.23-.92.3-1.15.16-.56.29-1a6,6,0,0,1,.36-1c.11-.21.24-.45.4-.72a2.21,2.21,0,0,1,1.14-1,5.5,5.5,0,0,1,.83-.12,2.17,2.17,0,0,0,.9-.25A8.69,8.69,0,0,1,85,45Z"/><path d="M88.83,49.29q0,.68.06,1.5H86.25a16.19,16.19,0,0,1-.49-4.06,12.43,12.43,0,0,1,.13-1.94H92.4A14.08,14.08,0,0,1,92.78,48a13.11,13.11,0,0,1-4,1Zm0-1.07a3.5,3.5,0,0,0,1.29-.39,4.43,4.43,0,0,0-1-2.25A21.85,21.85,0,0,0,88.84,48.22Z"/><path d="M101.26,50.79H98.49a11,11,0,0,0-1.22-4.29,6.88,6.88,0,0,0-.65,2.71,4,4,0,0,0,.31,1.58H93.81a9.09,9.09,0,0,1-.08-1.32A5.4,5.4,0,0,1,94,47.86,5.36,5.36,0,0,0,95.64,47a3.81,3.81,0,0,0,1.15-1.29,8.79,8.79,0,0,0-.69-.92h4A14.12,14.12,0,0,1,101.26,50.79Z"/><path d="M102.5,50.79a13.51,13.51,0,0,1-.28-3,11.06,11.06,0,0,1,.34-3h3c-.12.76-.21,1.44-.25,2.05a11.13,11.13,0,0,1,3.73,1,12.2,12.2,0,0,1-.38,2.9Zm2.75-3.12a8.46,8.46,0,0,0,.3,2.32,4,4,0,0,0,.79-2A2.9,2.9,0,0,0,105.25,47.67ZM112.72,46a27.28,27.28,0,0,1-.4,4.78h-2.73a20.87,20.87,0,0,0,.16-2.82,22,22,0,0,0-.22-3.18h3.17C112.72,45.33,112.72,45.74,112.72,46Z"/><rect class="cls-1" x="10.57" y="21.78" width="3.46" height="12.62"/><circle class="cls-2" cx="12.39" cy="12.39" r="8.8"/></g></g></svg>