<svg xmlns="http://www.w3.org/2000/svg" viewBox="0 0 177.26 31.24"><defs><style>.cls-1{fill:#fff;}.cls-2{font-size:12px;font-family:RuslanDisplay, Ruslan Display;}.cls-3{fill:#cdcdcd;}</style></defs><g id="Слой_2" data-name="Слой 2"><g id="Слой_1-2" data-name="Слой 1"><circle class="cls-1" cx="12.39" cy="15.07" r="12.39"/><rect class="cls-1" x="39.53" y="1" width="136.73" height="28.13" rx="4"/><path class="cls-1" d="M172.26,2a3,3,0,0,1,3,3V25.13a3,3,0,0,1-3,3H43.53a3,3,0,0,1-3-3V5a3,3,0,0,1,3-3H172.26m0-2H43.53a5,5,0,0,0-5,5V25.13a5,5,0,0,0,5,5H172.26a5,5,0,0,0,5-5V5a5,5,0,0,0-5-5Z"/><text class="cls-2" transform="translate(46.54 17.95)">мост в нерюнгри</text><rect class="cls-1" x="28.17" y="5.21" width="3.46" height="19.71" transform="translate(14.84 44.97) rotate(-90)"/><circle class="cls-3" cx="12.39" cy="15.07" r="8.8"/></g></g></svg>