<svg xmlns="http://www.w3.org/2000/svg" viewBox="0 0 177.26 30.13"><defs><style>.cls-1{fill:#fff;}.cls-2{fill:#e42918;}</style></defs><g id="Слой_2" data-name="Слой 2"><g id="Слой_1-2" data-name="Слой 1"><circle class="cls-1" cx="12.39" cy="15.07" r="12.39"/><rect class="cls-2" x="39.53" y="1" width="136.73" height="28.13" rx="4"/><path class="cls-1" d="M172.26,2a3,3,0,0,1,3,3V25.13a3,3,0,0,1-3,3H43.53a3,3,0,0,1-3-3V5a3,3,0,0,1,3-3H172.26m0-2H43.53a5,5,0,0,0-5,5V25.13a5,5,0,0,0,5,5H172.26a5,5,0,0,0,5-5V5a5,5,0,0,0-5-5Z"/><path class="cls-1" d="M54.42,12.5a1.67,1.67,0,0,0-.09-.55h3.42a13.64,13.64,0,0,1,.65,2.86A25.44,25.44,0,0,1,58.61,18H55.84a15.34,15.34,0,0,0-.71-4.16A9.87,9.87,0,0,0,54,18H51.65a13,13,0,0,0-1.2-4.17,7.35,7.35,0,0,0-.64,2.83A5,5,0,0,0,50,18H47.06a7.52,7.52,0,0,1-.09-1.3A5.68,5.68,0,0,1,47.21,15a5.59,5.59,0,0,0,1.63-.83A4.29,4.29,0,0,0,50,12.94c-.16-.28-.38-.6-.66-1h3.79a14.3,14.3,0,0,1,.68,2.69A4.37,4.37,0,0,0,54.42,12.5Z"/><path class="cls-1" d="M60.64,17.92a4.56,4.56,0,0,1-1.07-2.81,3.07,3.07,0,0,1,1.2-2.44,4.69,4.69,0,0,1,3.08-1,6.68,6.68,0,0,1,2,.3,3.7,3.7,0,0,1,.87,2.34,3.55,3.55,0,0,1-1.29,2.73,4.43,4.43,0,0,1-3.1,1.17A5.12,5.12,0,0,1,60.64,17.92Zm1.82-5.2A3.29,3.29,0,0,0,62,14.41a3.92,3.92,0,0,0,.43,1.8,2.57,2.57,0,0,0,1.17,1.18,2.61,2.61,0,0,0,.56-1.67A3.48,3.48,0,0,0,63.74,14,3,3,0,0,0,62.46,12.72Z"/><path class="cls-1" d="M72.45,12.69a4.63,4.63,0,0,0-.81-.08,4,4,0,0,0-.94.14,6.29,6.29,0,0,0-.18,1.47,3.17,3.17,0,0,0,1.65,2.86,8.81,8.81,0,0,0,2-1.83q0,.48.06,1.47a8.38,8.38,0,0,1-1.81,1.09,5.89,5.89,0,0,1-2.3.4h-.28a3.92,3.92,0,0,1-1.69-1.38,3.32,3.32,0,0,1-.62-1.92,2.89,2.89,0,0,1,1.1-2.29,4.79,4.79,0,0,1,3.2-.94,10.73,10.73,0,0,1,2.46.3,9.21,9.21,0,0,1-.47,1.43c-.51,0-1,.07-1.57.07A6,6,0,0,0,72.45,12.69Z"/><path class="cls-1" d="M80.31,12.73a19.7,19.7,0,0,0-.31,3.1c0,.8,0,1.51.09,2.12H77.48a19.06,19.06,0,0,1-.41-4.1c0-.25,0-.62,0-1.12a1.69,1.69,0,0,0-1.24,1.38L74.66,14,75.09,12h8a14,14,0,0,1-.55,2.16L81.31,14a1.64,1.64,0,0,0,0-.38.81.81,0,0,0-.29-.7A1.18,1.18,0,0,0,80.31,12.73Z"/><path class="cls-1" d="M88.14,14.35a12.37,12.37,0,0,1,.23-2.4H95A4,4,0,0,1,93,14.39a5.55,5.55,0,0,1,2.21,1.37A9,9,0,0,1,94.66,18h-6A13,13,0,0,1,88.14,14.35Zm3,2.82A5.42,5.42,0,0,0,92.5,17a2.73,2.73,0,0,0-1.22-2A18.89,18.89,0,0,0,91.17,17.17Zm.2-2.94a2.93,2.93,0,0,0,1.09-.54,2.06,2.06,0,0,0,.72-.94c-.64,0-1.16,0-1.56.05C91.53,13.27,91.44,13.75,91.37,14.23Z"/><path class="cls-1" d="M108.23,13a29.84,29.84,0,0,1-.45,5h-2.87c.13-.94.21-2,.25-3a3.19,3.19,0,0,0-1.39-.47,26,26,0,0,1-.39,3.51h-2.72a22.36,22.36,0,0,0,.16-2.81A23.84,23.84,0,0,0,100.6,12h3.17c0,.33,0,.82,0,1.47a7.49,7.49,0,0,1,1.38.58c0-.74,0-1.42-.08-2.05h3.12C108.22,12.4,108.23,12.73,108.23,13Z"/><path class="cls-1" d="M113.7,14.37l1.13.07.25,0-.56,1.06h-.11a2.59,2.59,0,0,1-.65-.12,2.23,2.23,0,0,0-.6-.13c-.32,0-.58.21-.78.64,0,.39,0,.78-.07,1.17a5.64,5.64,0,0,0,1,.12h.1a1.38,1.38,0,0,0,.83-.23,1.3,1.3,0,0,0,.43-.81l1.44.06a8.63,8.63,0,0,1-.48,1.77h-5.89a21.88,21.88,0,0,1-.24-3.21,20.55,20.55,0,0,1,.17-2.79h6.43a15,15,0,0,1-.38,1.83l-1.3.05a1.49,1.49,0,0,0,.1-.52c0-.39-.29-.58-.87-.58a5.11,5.11,0,0,0-.72.07c-.17.77-.31,1.43-.4,2A1.65,1.65,0,0,1,113.7,14.37Z"/><path class="cls-1" d="M120.3,16.45q0,.69.06,1.5h-2.64a16.52,16.52,0,0,1-.49-4,14,14,0,0,1,.13-2h6.51a14.17,14.17,0,0,1,.38,3.23,13.1,13.1,0,0,1-4,1Zm0-1.07A3.45,3.45,0,0,0,121.6,15a4.39,4.39,0,0,0-1-2.25A22,22,0,0,0,120.32,15.38Z"/><path class="cls-1" d="M125.24,18a22,22,0,0,0,.16-2.82,23.3,23.3,0,0,0-.22-3.18h3.16c0,.31,0,.73,0,1.27s0,.93,0,1.17a7.58,7.58,0,0,1,.9,0,3.15,3.15,0,0,1,1.47-2,4.84,4.84,0,0,1,2.62-.73,6.71,6.71,0,0,1,1.92.3,3.74,3.74,0,0,1,.85,2.35,3.64,3.64,0,0,1-1.25,2.72,4.33,4.33,0,0,1-3.05,1.17,5.45,5.45,0,0,1-1.62-.29,4.54,4.54,0,0,1-1-2.71h-.85c-.07.89-.19,1.8-.35,2.72Zm6.33-3.49A3.62,3.62,0,0,0,132,16.2a2.51,2.51,0,0,0,1.14,1.14,2.6,2.6,0,0,0,.54-1.63,3.42,3.42,0,0,0-.45-1.72,2.93,2.93,0,0,0-1.24-1.2A3.31,3.31,0,0,0,131.57,14.46Z"/><path class="cls-1" d="M144.68,13a29.89,29.89,0,0,1-.46,5h-2.87c.13-.94.21-2,.25-3a3.15,3.15,0,0,0-1.39-.47,26,26,0,0,1-.38,3.51H137.1a20.61,20.61,0,0,0,.16-2.81A22.29,22.29,0,0,0,137,12h3.17q0,.5,0,1.47a8.12,8.12,0,0,1,1.38.58c0-.74,0-1.42-.09-2.05h3.12C144.67,12.4,144.68,12.73,144.68,13Z"/><path class="cls-1" d="M150.78,13.31c0-.39-.28-.58-.86-.58a4.85,4.85,0,0,0-.72.07,18.79,18.79,0,0,0-.6,4.37c0,.36,0,.62,0,.78H146a21.91,21.91,0,0,1-.24-3.22A20.29,20.29,0,0,1,146,12h6.42c-.14.79-.27,1.39-.39,1.83-.4,0-.84,0-1.29.05A1.72,1.72,0,0,0,150.78,13.31Z"/><path class="cls-1" d="M155.93,16.45q0,.69.06,1.5h-2.64a16.05,16.05,0,0,1-.49-4,12.65,12.65,0,0,1,.13-2h6.51a14.17,14.17,0,0,1,.38,3.23,13.1,13.1,0,0,1-3.95,1Zm0-1.07a3.51,3.51,0,0,0,1.29-.38,4.39,4.39,0,0,0-1-2.25A21.88,21.88,0,0,0,155.94,15.38Z"/><path class="cls-1" d="M161.3,18a23.13,23.13,0,0,0,.15-2.83,23.23,23.23,0,0,0-.21-3.17h3.16c0,.15,0,.53,0,1.16a19.72,19.72,0,0,1-.22,2.48,10.57,10.57,0,0,0,1.72-2.06,12.84,12.84,0,0,0-.14-1.58h3.11q0,.72,0,1.08a28.8,28.8,0,0,1-.46,4.92h-2.87a29.15,29.15,0,0,0,.31-2.9,31.73,31.73,0,0,1-2.2,2.9Z"/><rect class="cls-1" x="28.17" y="5.21" width="3.46" height="19.71" transform="translate(14.84 44.97) rotate(-90)"/><circle class="cls-2" cx="12.39" cy="15.07" r="8.8"/></g></g></svg>