<svg xmlns="http://www.w3.org/2000/svg" viewBox="0 0 107.58 127.29"><defs><style>.cls-1{fill:#fff;}.cls-2{fill:#cdcdcd;}</style></defs><g id="Слой_2" data-name="Слой 2"><g id="Слой_1-2" data-name="Слой 1"><circle class="cls-1" cx="41.97" cy="114.9" r="12.39"/><rect class="cls-1" x="1" y="1" width="105.58" height="28.13" rx="4"/><path class="cls-1" d="M102.58,2a3,3,0,0,1,3,3V25.13a3,3,0,0,1-3,3H5a3,3,0,0,1-3-3V5A3,3,0,0,1,5,2h97.58m0-2H5A5,5,0,0,0,0,5V25.13a5,5,0,0,0,5,5h97.58a5,5,0,0,0,5-5V5a5,5,0,0,0-5-5Z"/><path d="M11.78,12.57A4.59,4.59,0,0,0,11,12.5a4.65,4.65,0,0,0-.94.13,6.43,6.43,0,0,0-.18,1.48A3.17,3.17,0,0,0,11.5,17a9.07,9.07,0,0,0,2-1.83c0,.32,0,.81.06,1.46a8.33,8.33,0,0,1-1.82,1.1,5.9,5.9,0,0,1-2.3.39H9.16a3.78,3.78,0,0,1-1.69-1.38,3.3,3.3,0,0,1-.62-1.92A2.92,2.92,0,0,1,8,12.51a4.82,4.82,0,0,1,3.21-.95,10.9,10.9,0,0,1,2.46.31,9.86,9.86,0,0,1-.48,1.42c-.51.05-1,.08-1.56.08A5.82,5.82,0,0,0,11.78,12.57Z"/><path d="M19,14.25l1.12.08.26,0-.57,1.06h-.11a2.23,2.23,0,0,1-.64-.13,2.54,2.54,0,0,0-.6-.12q-.5,0-.78.63c0,.39-.06.79-.08,1.18a5.64,5.64,0,0,0,1,.12h.11a1.14,1.14,0,0,0,1.26-1l1.44,0a8.74,8.74,0,0,1-.48,1.78H15a21.88,21.88,0,0,1-.24-3.21,20.45,20.45,0,0,1,.17-2.79h6.43A15,15,0,0,1,21,13.67c-.47,0-.9,0-1.3,0a1.4,1.4,0,0,0,.1-.51c0-.39-.29-.58-.86-.58a3.8,3.8,0,0,0-.72.07c-.18.76-.32,1.43-.41,2A1.66,1.66,0,0,1,19,14.25Z"/><path d="M22.87,14.24a11.64,11.64,0,0,1,.23-2.4h6.66a4,4,0,0,1-2.07,2.44,5.47,5.47,0,0,1,2.21,1.36,8.1,8.1,0,0,1-.52,2.2h-6A13,13,0,0,1,22.87,14.24Zm3,2.82a5.42,5.42,0,0,0,1.33-.13A2.73,2.73,0,0,0,26,15C25.93,15.66,25.89,16.37,25.89,17.06Zm.21-2.94a3,3,0,0,0,1.09-.54,2.18,2.18,0,0,0,.72-.95q-1,0-1.56.06C26.25,13.16,26.17,13.63,26.1,14.12Z"/><path d="M35.35,14.25l1.12.08.26,0-.57,1.06h-.11a2.23,2.23,0,0,1-.64-.13,2.54,2.54,0,0,0-.6-.12q-.5,0-.78.63c0,.39-.06.79-.08,1.18a5.64,5.64,0,0,0,1,.12h.11a1.14,1.14,0,0,0,1.26-1l1.44,0a8.74,8.74,0,0,1-.48,1.78h-5.9a21.86,21.86,0,0,1-.23-3.21,20.6,20.6,0,0,1,.16-2.79h6.44a16.67,16.67,0,0,1-.39,1.83c-.47,0-.9,0-1.3,0a1.4,1.4,0,0,0,.1-.51c0-.39-.29-.58-.86-.58a3.8,3.8,0,0,0-.72.07c-.18.76-.31,1.43-.41,2A1.66,1.66,0,0,1,35.35,14.25Z"/><path d="M42,16.34q0,.69.06,1.5H39.37a16,16,0,0,1-.5-4.05A12.56,12.56,0,0,1,39,11.84h6.5a14.17,14.17,0,0,1,.38,3.23,13.11,13.11,0,0,1-3.94,1Zm0-1.07a3.45,3.45,0,0,0,1.28-.38,4.46,4.46,0,0,0-1-2.26A22.17,22.17,0,0,0,42,15.27Z"/><path d="M47.87,17.8A4.5,4.5,0,0,1,46.81,15,3.06,3.06,0,0,1,48,12.56a4.66,4.66,0,0,1,3.07-1,6.81,6.81,0,0,1,2,.31,3.7,3.7,0,0,1,.86,2.34,3.59,3.59,0,0,1-1.28,2.73,4.45,4.45,0,0,1-3.11,1.16A4.91,4.91,0,0,1,47.87,17.8Zm1.83-5.19a3.29,3.29,0,0,0-.42,1.69,3.91,3.91,0,0,0,.42,1.8,2.67,2.67,0,0,0,1.17,1.18,2.62,2.62,0,0,0,.57-1.67A3.58,3.58,0,0,0,51,13.85,3.06,3.06,0,0,0,49.7,12.61Z"/><path d="M62.18,12.39a1.42,1.42,0,0,0-.1-.55H65.5a13,13,0,0,1,.65,2.86,25.56,25.56,0,0,1,.22,3.14H63.59a15.34,15.34,0,0,0-.7-4.16,9.72,9.72,0,0,0-1.13,4.16H59.41a13,13,0,0,0-1.2-4.17,7.16,7.16,0,0,0-.65,2.83,4.68,4.68,0,0,0,.17,1.34H54.81a7.67,7.67,0,0,1-.08-1.3A5.8,5.8,0,0,1,55,14.91a5.16,5.16,0,0,0,1.62-.82,4,4,0,0,0,1.17-1.26,10.55,10.55,0,0,0-.66-1h3.79a13.57,13.57,0,0,1,.69,2.69A4.37,4.37,0,0,0,62.18,12.39Z"/><path d="M74.78,12.07a3.36,3.36,0,0,1-.69.1,4.22,4.22,0,0,1-.52,0,4.39,4.39,0,0,0-.68,1.19,10.45,10.45,0,0,0-.45,1.33q-.15.58-.33,1.44a27.72,27.72,0,0,1-1.82,6.17,14.86,14.86,0,0,1-1.49.34,19.72,19.72,0,0,0,2-4.76H68.26a21.13,21.13,0,0,1-1-6h3.5a10.7,10.7,0,0,0-.25,2.37,11.85,11.85,0,0,0,.41,2.86c0-.21.15-.59.29-1.13s.23-.93.3-1.16.16-.56.29-1a5.85,5.85,0,0,1,.36-1c.11-.21.24-.45.4-.71a2.21,2.21,0,0,1,1.14-1,6.61,6.61,0,0,1,.83-.13,2,2,0,0,0,.9-.24A9.24,9.24,0,0,1,74.78,12.07Z"/><path d="M76,17.84A23.19,23.19,0,0,0,76.18,15,23.19,23.19,0,0,0,76,11.84h3.16c0,.14,0,.53,0,1.15a19.85,19.85,0,0,1-.22,2.49,10.35,10.35,0,0,0,1.72-2.07,12.86,12.86,0,0,0-.14-1.57h3.11q0,.72,0,1.08a28.89,28.89,0,0,1-.46,4.92H80.32a29.15,29.15,0,0,0,.31-2.9,33.19,33.19,0,0,1-2.2,2.9Zm3.43-7.38a1.79,1.79,0,0,0,1,.26,1.52,1.52,0,0,0,1-.39s0,.08-.1.23a1.81,1.81,0,0,1-.45.49,1.61,1.61,0,0,1-1.07.34h-.06A2.21,2.21,0,0,1,78.62,11l-.17-.09a4.23,4.23,0,0,1,.22-.8,3.35,3.35,0,0,1,.18-.44Z"/><path d="M89.8,12.57A4.59,4.59,0,0,0,89,12.5a4.65,4.65,0,0,0-.94.13,6.43,6.43,0,0,0-.18,1.48A3.16,3.16,0,0,0,89.53,17a9,9,0,0,0,2-1.83c0,.32,0,.81.06,1.46a8.27,8.27,0,0,1-1.81,1.1,6,6,0,0,1-2.31.39h-.27a3.81,3.81,0,0,1-1.7-1.38,3.37,3.37,0,0,1-.62-1.92A2.92,2.92,0,0,1,86,12.51a4.82,4.82,0,0,1,3.21-.95,10.9,10.9,0,0,1,2.46.31,9.86,9.86,0,0,1-.48,1.42c-.51.05-1,.08-1.56.08A4.66,4.66,0,0,0,89.8,12.57Z"/><path d="M98.84,11.76h.39a2.69,2.69,0,0,0,1.14-.18,13.91,13.91,0,0,1-1,1.35h-.19A3.71,3.71,0,0,1,98,12.74a4.74,4.74,0,0,0-1.3,1.79,13.27,13.27,0,0,0,2.83.38,10.68,10.68,0,0,1,.49,2.93H96.88a6,6,0,0,0-.62-1.64,2.66,2.66,0,0,0-.85-1c-.06.65-.09,1.18-.09,1.58s0,.76,0,1.08H92.72a24.25,24.25,0,0,1-.23-3c0-.81.06-1.82.18-3H96a25.45,25.45,0,0,0-.5,2.5,8.41,8.41,0,0,1,1.14-1.5,5.32,5.32,0,0,1,1.41-1A4.26,4.26,0,0,1,98.84,11.76Z"/><rect class="cls-1" x="40.14" y="28.55" width="3.46" height="75.21"/><circle class="cls-2" cx="41.97" cy="114.9" r="8.8"/></g></g></svg>