<svg xmlns="http://www.w3.org/2000/svg" viewBox="0 0 137.74 67.04"><defs><style>.cls-1{fill:#fff;}.cls-2{fill:#cdcdcd;}</style></defs><g id="Слой_2" data-name="Слой 2"><g id="Слой_1-2" data-name="Слой 1"><circle class="cls-1" cx="86.35" cy="12.39" r="12.39"/><rect class="cls-1" x="1" y="37.91" width="135.74" height="28.13" rx="4"/><path class="cls-1" d="M132.74,38.91a3,3,0,0,1,3,3V62a3,3,0,0,1-3,3H5a3,3,0,0,1-3-3V41.91a3,3,0,0,1,3-3H132.74m0-2H5a5,5,0,0,0-5,5V62a5,5,0,0,0,5,5H132.74a5,5,0,0,0,5-5V41.91a5,5,0,0,0-5-5Z"/><path d="M11.39,49a5.78,5.78,0,0,0-.81-.07,4.56,4.56,0,0,0-.94.13,6.43,6.43,0,0,0-.18,1.48,3.17,3.17,0,0,0,1.65,2.86,8.81,8.81,0,0,0,2-1.83q0,.48.06,1.47a8.38,8.38,0,0,1-1.81,1.09,5.9,5.9,0,0,1-2.3.39H8.77a3.87,3.87,0,0,1-1.7-1.38,3.34,3.34,0,0,1-.61-1.92A2.89,2.89,0,0,1,7.56,49a4.79,4.79,0,0,1,3.2-.94,10.73,10.73,0,0,1,2.46.3,7.9,7.9,0,0,1-.48,1.42c-.5,0-1,.08-1.56.08A5.73,5.73,0,0,0,11.39,49Z"/><path d="M18.56,50.7l1.13.08.25,0-.56,1.06h-.11a2.28,2.28,0,0,1-.65-.13,2.54,2.54,0,0,0-.6-.12q-.48,0-.78.63c0,.4,0,.79-.07,1.18a5.64,5.64,0,0,0,1,.12h.1a1.38,1.38,0,0,0,.83-.23,1.3,1.3,0,0,0,.43-.81l1.44.06a8.82,8.82,0,0,1-.48,1.77H14.59a21.88,21.88,0,0,1-.24-3.21,20.45,20.45,0,0,1,.17-2.79H21a15,15,0,0,1-.38,1.83c-.47,0-.91,0-1.3,0a1.4,1.4,0,0,0,.1-.51c0-.39-.29-.58-.87-.58a5.11,5.11,0,0,0-.72.07c-.17.76-.31,1.43-.4,2A1.65,1.65,0,0,1,18.56,50.7Z"/><path d="M22.48,50.69a12.38,12.38,0,0,1,.22-2.4h6.66a4,4,0,0,1-2.06,2.44,5.48,5.48,0,0,1,2.21,1.37A8.51,8.51,0,0,1,29,54.29H23A13,13,0,0,1,22.48,50.69Zm3,2.82a5.42,5.42,0,0,0,1.33-.13,2.73,2.73,0,0,0-1.22-2C25.54,52.11,25.5,52.82,25.5,53.51Zm.2-2.94A3,3,0,0,0,26.8,50a2.18,2.18,0,0,0,.72-1q-1,0-1.56.06C25.86,49.61,25.78,50.08,25.7,50.57Z"/><path d="M35,50.7l1.12.08.26,0-.57,1.06h-.11a2.23,2.23,0,0,1-.64-.13,2.54,2.54,0,0,0-.6-.12q-.49,0-.78.63c0,.4-.06.79-.08,1.18a5.64,5.64,0,0,0,1,.12h.11a1.14,1.14,0,0,0,1.26-1l1.44.06a8.82,8.82,0,0,1-.48,1.77H31a21.88,21.88,0,0,1-.24-3.21,20.45,20.45,0,0,1,.17-2.79h6.43A15,15,0,0,1,37,50.12c-.47,0-.9,0-1.3,0a1.4,1.4,0,0,0,.1-.51c0-.39-.29-.58-.86-.58a4.85,4.85,0,0,0-.72.07c-.18.76-.32,1.43-.41,2A1.66,1.66,0,0,1,35,50.7Z"/><path d="M41.56,52.79q0,.69.06,1.5H39a16,16,0,0,1-.5-4,12.56,12.56,0,0,1,.14-2h6.5a14.17,14.17,0,0,1,.38,3.23,13.11,13.11,0,0,1-3.94,1Zm0-1.07a3.45,3.45,0,0,0,1.28-.38,4.46,4.46,0,0,0-1-2.26A22.37,22.37,0,0,0,41.57,51.72Z"/><path d="M47.48,54.26a4.55,4.55,0,0,1-1.06-2.81A3.07,3.07,0,0,1,47.62,49a4.66,4.66,0,0,1,3.07-1,6.8,6.8,0,0,1,2,.3,3.7,3.7,0,0,1,.86,2.34,3.59,3.59,0,0,1-1.28,2.73,4.46,4.46,0,0,1-3.11,1.17A5.17,5.17,0,0,1,47.48,54.26Zm1.83-5.2a3.29,3.29,0,0,0-.42,1.69,3.91,3.91,0,0,0,.42,1.8,2.67,2.67,0,0,0,1.17,1.18,2.62,2.62,0,0,0,.57-1.67,3.58,3.58,0,0,0-.46-1.76A3.06,3.06,0,0,0,49.31,49.06Z"/><path d="M54.54,50.64a12,12,0,0,1,.23-2.35H62a10.61,10.61,0,0,1-.39,1.45l-.83,0-.84,0a2.73,2.73,0,0,0,.15-.72c-.83,0-1.5,0-2,.07q-.09.44-.24,1.32a8.86,8.86,0,0,1,3.79,1.19,12,12,0,0,1-.51,2.64H55A13.19,13.19,0,0,1,54.54,50.64Zm3,2.86a5.54,5.54,0,0,0,1.35-.13,3.1,3.1,0,0,0-1.23-2.08A19.78,19.78,0,0,0,57.56,53.5Z"/><path d="M70.65,54.2v.09H67.87a10.39,10.39,0,0,0-.2-1.41A13,13,0,0,1,66,54.29h-2.8a7.67,7.67,0,0,1-.08-1.3,5.8,5.8,0,0,1,.24-1.63A5,5,0,0,0,65,50.51a4,4,0,0,0,1.16-1.29,8.63,8.63,0,0,0-.69-.93h4A14,14,0,0,1,70.65,54.2ZM67.45,52a10.82,10.82,0,0,0-.82-2A11.85,11.85,0,0,0,66,53.12,5.11,5.11,0,0,0,67.45,52Z"/><path d="M72.49,54.29a21.18,21.18,0,0,0,.16-2.84,21.67,21.67,0,0,0-.22-3.16H75.6c0,.15,0,.53,0,1.15a19.38,19.38,0,0,1-.21,2.49,10,10,0,0,0,1.71-2.07A12.76,12.76,0,0,0,77,48.29h3.11c0,.48,0,.84,0,1.08a28.84,28.84,0,0,1-.45,4.92H76.79c.16-1.07.26-2,.31-2.9a33.75,33.75,0,0,1-2.21,2.9Zm3.43-7.38a1.79,1.79,0,0,0,1,.27,1.57,1.57,0,0,0,1-.4s0,.08-.11.23a1.75,1.75,0,0,1-.44.49,1.63,1.63,0,0,1-1.07.34h-.06a2.25,2.25,0,0,1-1.18-.38l-.16-.09a4.23,4.23,0,0,1,.22-.8c.11-.29.16-.44.17-.44Z"/><path d="M87.72,48.21h.39A2.78,2.78,0,0,0,89.26,48a15.7,15.7,0,0,1-1,1.35H88a3.6,3.6,0,0,1-1.18-.19A4.76,4.76,0,0,0,85.55,51a13.36,13.36,0,0,0,2.83.38,10.68,10.68,0,0,1,.49,2.93H85.76a6.31,6.31,0,0,0-.61-1.64,2.77,2.77,0,0,0-.86-1c-.06.65-.09,1.18-.09,1.58s0,.76,0,1.08H81.6a24.25,24.25,0,0,1-.23-3c0-.81.06-1.82.18-3h3.34a22.45,22.45,0,0,0-.49,2.5,8.39,8.39,0,0,1,1.13-1.5,5.48,5.48,0,0,1,1.41-1A4.26,4.26,0,0,1,87.72,48.21Z"/><path d="M97.64,54.2v.09H94.86a9.08,9.08,0,0,0-.21-1.41A11.81,11.81,0,0,1,93,54.29H90.18a7.52,7.52,0,0,1-.09-1.3,5.47,5.47,0,0,1,.25-1.63A5.14,5.14,0,0,0,92,50.51a3.92,3.92,0,0,0,1.15-1.29,7.43,7.43,0,0,0-.68-.93h4A13.86,13.86,0,0,1,97.64,54.2ZM94.44,52a10.82,10.82,0,0,0-.82-2A12.3,12.3,0,0,0,93,53.12,5,5,0,0,0,94.44,52Z"/><path d="M106.55,54.29h-2.77A11.13,11.13,0,0,0,102.55,50a6.84,6.84,0,0,0-.65,2.71,4.11,4.11,0,0,0,.31,1.57H99.09A9.09,9.09,0,0,1,99,53a5.8,5.8,0,0,1,.23-1.61,5.13,5.13,0,0,0,1.68-.85,4,4,0,0,0,1.15-1.29,8.25,8.25,0,0,0-.68-.93h4A14.18,14.18,0,0,1,106.55,54.29Z"/><path d="M108,54.29a13.23,13.23,0,0,1-.29-3,10.92,10.92,0,0,1,.35-3H111c-.12.75-.21,1.43-.25,2a10.9,10.9,0,0,1,3.73,1.06,12.15,12.15,0,0,1-.37,2.9Zm2.74-3.13a8.59,8.59,0,0,0,.3,2.33,4,4,0,0,0,.79-2A2.9,2.9,0,0,0,110.69,51.16Z"/><path d="M120,49a5.78,5.78,0,0,0-.81-.07,4.65,4.65,0,0,0-.94.13,6.43,6.43,0,0,0-.18,1.48,3.16,3.16,0,0,0,1.66,2.86,9,9,0,0,0,2-1.83q0,.48.06,1.47a8.62,8.62,0,0,1-1.81,1.09,6,6,0,0,1-2.31.39h-.27a3.81,3.81,0,0,1-1.7-1.38,3.35,3.35,0,0,1-.62-1.92,2.92,2.92,0,0,1,1.1-2.28,4.82,4.82,0,0,1,3.21-.94,10.87,10.87,0,0,1,2.46.3,9.86,9.86,0,0,1-.48,1.42c-.5,0-1,.08-1.56.08A4.66,4.66,0,0,0,120,49Z"/><path d="M129,48.21h.39a2.69,2.69,0,0,0,1.14-.18,13.91,13.91,0,0,1-1,1.35h-.19a3.71,3.71,0,0,1-1.19-.19,4.74,4.74,0,0,0-1.3,1.79,13.27,13.27,0,0,0,2.83.38,10.68,10.68,0,0,1,.49,2.93H127a6,6,0,0,0-.62-1.64,2.66,2.66,0,0,0-.85-1c-.06.65-.09,1.18-.09,1.58s0,.76,0,1.08h-2.64a24.25,24.25,0,0,1-.23-3c0-.81.06-1.82.18-3h3.34a25.45,25.45,0,0,0-.5,2.5,8.41,8.41,0,0,1,1.14-1.5,5.32,5.32,0,0,1,1.41-1A4.26,4.26,0,0,1,129,48.21Z"/><rect class="cls-1" x="84.52" y="21.78" width="3.46" height="16.63"/><circle class="cls-2" cx="86.35" cy="12.39" r="8.8"/></g></g></svg>