<svg xmlns="http://www.w3.org/2000/svg" viewBox="0 0 107.58 127.29"><defs><style>.cls-1{fill:#fff;}.cls-2{font-size:12px;font-family:RuslanDisplay, Ruslan Display;}.cls-3{fill:#cdcdcd;}</style></defs><g id="Слой_2" data-name="Слой 2"><g id="Слой_1-2" data-name="Слой 1"><circle class="cls-1" cx="41.97" cy="114.9" r="12.39"/><rect class="cls-1" x="1" y="1" width="105.58" height="28.13" rx="4"/><path class="cls-1" d="M102.58,2a3,3,0,0,1,3,3V25.13a3,3,0,0,1-3,3H5a3,3,0,0,1-3-3V5A3,3,0,0,1,5,2h97.58m0-2H5A5,5,0,0,0,0,5V25.13a5,5,0,0,0,5,5h97.58a5,5,0,0,0,5-5V5a5,5,0,0,0-5-5Z"/><text class="cls-2" transform="translate(6.39 17.84)">северомуйск</text><rect class="cls-1" x="40.14" y="28.55" width="3.46" height="75.21"/><circle class="cls-3" cx="41.97" cy="114.9" r="8.8"/></g></g></svg>