<svg xmlns="http://www.w3.org/2000/svg" viewBox="0 0 132.52 114.38"><defs><style>.cls-1{fill:#fff;}.cls-2{fill:#cdcdcd;}</style></defs><g id="Слой_2" data-name="Слой 2"><g id="Слой_1-2" data-name="Слой 1"><circle class="cls-1" cx="68.22" cy="93.62" r="20.76"/><rect class="cls-1" x="1.68" y="1.68" width="129.17" height="48.8" rx="6.7"/><path class="cls-1" d="M124.14,3.35a5,5,0,0,1,5,5V43.77a5,5,0,0,1-5,5H8.38a5,5,0,0,1-5-5V8.38a5,5,0,0,1,5-5H124.14m0-3.35H8.38A8.38,8.38,0,0,0,0,8.38V43.77a8.38,8.38,0,0,0,8.38,8.38H124.14a8.38,8.38,0,0,0,8.38-8.38V8.38A8.38,8.38,0,0,0,124.14,0Z"/><path d="M26.39,21.83a34.38,34.38,0,0,0-.54,5.36A36.2,36.2,0,0,0,26,30.86H21.48a34,34,0,0,1-.7-7.1c0-.43,0-1.07,0-1.93a2.93,2.93,0,0,0-2.16,2.39l-2.06-.13.75-3.61H31.16a23.12,23.12,0,0,1-.95,3.74l-2.1-.13a3,3,0,0,0,.08-.66,1.44,1.44,0,0,0-.5-1.21A2,2,0,0,0,26.39,21.83Z"/><path d="M45.56,30.7v.16H40.74a18.59,18.59,0,0,0-.36-2.45,20.7,20.7,0,0,1-2.9,2.45H32.64a13.45,13.45,0,0,1-.15-2.25,9.82,9.82,0,0,1,.42-2.81,9.24,9.24,0,0,0,2.87-1.48,6.83,6.83,0,0,0,2-2.24,14.45,14.45,0,0,0-1.19-1.6h6.9A24.16,24.16,0,0,1,45.56,30.7ZM40,26.9a18.2,18.2,0,0,0-1.41-3.49,20.16,20.16,0,0,0-1.12,5.42A8.75,8.75,0,0,0,40,26.9Z"/><path d="M48.73,30.86A38.62,38.62,0,0,0,49,26a38.84,38.84,0,0,0-.37-5.47h5.48c0,.25,0,.91,0,2a32.5,32.5,0,0,1-.37,4.3,17.4,17.4,0,0,0,3-3.57,20.37,20.37,0,0,0-.23-2.72h5.38c0,.83,0,1.45,0,1.87a48.83,48.83,0,0,1-.79,8.51h-5c.28-1.85.46-3.53.54-5a59.16,59.16,0,0,1-3.82,5Zm5.94-12.77a3.22,3.22,0,0,0,1.72.46,2.6,2.6,0,0,0,1.77-.69s0,.14-.18.41a3.23,3.23,0,0,1-.77.84,2.82,2.82,0,0,1-1.85.58h-.1a3.85,3.85,0,0,1-2-.65l-.29-.16a8,8,0,0,1,.38-1.38c.19-.51.29-.76.3-.76Z"/><path d="M84.48,22.2a50.49,50.49,0,0,1-.79,8.66H64.48A37.62,37.62,0,0,0,64.75,26a39.61,39.61,0,0,0-.38-5.51h5.49c0,.94,0,1.65,0,2.12a46,46,0,0,1-.46,6.66,10.88,10.88,0,0,0,2.51.23c.09-1.06.13-2.39.13-4a35.75,35.75,0,0,0-.38-5h5.49c0,.23,0,.59,0,1.06a37.65,37.65,0,0,1-.79,7.74,12.64,12.64,0,0,0,2.47.21,44.54,44.54,0,0,0,.29-5c0-1.56-.05-2.9-.14-4h5.4C84.46,21.31,84.48,21.88,84.48,22.2Z"/><path d="M94.16,24.65l2,.13.44,0-1,1.82h-.19a4.44,4.44,0,0,1-1.12-.21,4,4,0,0,0-1-.22c-.57,0-1,.37-1.35,1.1-.05.68-.09,1.36-.12,2a9.51,9.51,0,0,0,1.7.21h.19a2.34,2.34,0,0,0,1.42-.39,2.37,2.37,0,0,0,.76-1.41l2.49.1a15.21,15.21,0,0,1-.83,3.07H87.28a38.84,38.84,0,0,1-.41-5.56,33.88,33.88,0,0,1,.29-4.82H98.29a27.51,27.51,0,0,1-.66,3.16c-.82,0-1.57.06-2.25.08a2.78,2.78,0,0,0,.17-.89c0-.67-.5-1-1.5-1a7.19,7.19,0,0,0-1.24.12c-.31,1.32-.54,2.47-.71,3.47A2.92,2.92,0,0,1,94.16,24.65Z"/><path d="M109.28,21.83a34.38,34.38,0,0,0-.54,5.36,36.2,36.2,0,0,0,.16,3.67h-4.52a34,34,0,0,1-.71-7.1c0-.43,0-1.07,0-1.93a2.93,2.93,0,0,0-2.16,2.39l-2-.13.74-3.61h13.81a22.12,22.12,0,0,1-1,3.74l-2.1-.13a2.48,2.48,0,0,0,.08-.66,1.46,1.46,0,0,0-.49-1.21A2.08,2.08,0,0,0,109.28,21.83Z"/><rect class="cls-1" x="65.33" y="49.33" width="5.79" height="25.24"/><circle class="cls-2" cx="68.22" cy="93.62" r="14.75"/></g></g></svg>