<svg xmlns="http://www.w3.org/2000/svg" viewBox="0 0 76.57 67.58"><defs><style>.cls-1,.cls-3{fill:#fff;}.cls-2{fill:#e42918;}.cls-3{font-size:12px;font-family:RuslanDisplay, Ruslan Display;}</style></defs><g id="Слой_2" data-name="Слой 2"><g id="Слой_1-2" data-name="Слой 1"><circle class="cls-1" cx="36.65" cy="12.39" r="12.39"/><rect class="cls-2" x="1" y="37.91" width="74.57" height="28.13" rx="4"/><path class="cls-1" d="M71.57,38.91a3,3,0,0,1,3,3V62a3,3,0,0,1-3,3H5a3,3,0,0,1-3-3V41.91a3,3,0,0,1,3-3H71.57m0-2H5a5,5,0,0,0-5,5V62a5,5,0,0,0,5,5H71.57a5,5,0,0,0,5-5V41.91a5,5,0,0,0-5-5Z"/><text class="cls-3" transform="translate(9 54.29)">тайшет</text><rect class="cls-1" x="34.83" y="21.78" width="3.46" height="16.63"/><circle class="cls-2" cx="36.65" cy="12.39" r="8.8"/></g></g></svg>