<svg xmlns="http://www.w3.org/2000/svg" viewBox="0 0 79.09 67.04"><defs><style>.cls-1{fill:#fff;}.cls-2{fill:#ee3524;}</style></defs><g id="Слой_2" data-name="Слой 2"><g id="Слой_1-2" data-name="Слой 1"><circle class="cls-1" cx="37.92" cy="12.39" r="12.39"/><rect class="cls-2" x="1" y="36.92" width="77.09" height="29.12" rx="4"/><path class="cls-1" d="M74.09,37.92a3,3,0,0,1,3,3V62a3,3,0,0,1-3,3H5a3,3,0,0,1-3-3V40.92a3,3,0,0,1,3-3H74.09m0-2H5a5,5,0,0,0-5,5V62a5,5,0,0,0,5,5H74.09a5,5,0,0,0,5-5V40.92a5,5,0,0,0-5-5Z"/><path class="cls-1" d="M15.15,48.48a19.9,19.9,0,0,0-.32,3.2,20.32,20.32,0,0,0,.1,2.19H12.22a20.32,20.32,0,0,1-.42-4.24c0-.25,0-.64,0-1.15a1.74,1.74,0,0,0-1.29,1.43l-1.23-.08.45-2.16H18a14.7,14.7,0,0,1-.57,2.24l-1.25-.08a1.75,1.75,0,0,0,.05-.4.87.87,0,0,0-.3-.72A1.27,1.27,0,0,0,15.15,48.48Z"/><path class="cls-1" d="M26.59,53.77v.1H23.71a9.69,9.69,0,0,0-.21-1.46,12.46,12.46,0,0,1-1.73,1.46H18.88a8,8,0,0,1-.09-1.34A6.11,6.11,0,0,1,19,50.85,5.51,5.51,0,0,0,20.76,50,4,4,0,0,0,22,48.63a9.14,9.14,0,0,0-.7-1h4.11A14.41,14.41,0,0,1,26.59,53.77ZM23.28,51.5a11.9,11.9,0,0,0-.84-2.08,12.24,12.24,0,0,0-.67,3.24A5.15,5.15,0,0,0,23.28,51.5Z"/><path class="cls-1" d="M28.49,53.87a24.46,24.46,0,0,0,.16-2.93,23.1,23.1,0,0,0-.23-3.27H31.7c0,.15,0,.55,0,1.19a21.08,21.08,0,0,1-.22,2.57,10.34,10.34,0,0,0,1.77-2.13,13.81,13.81,0,0,0-.14-1.63h3.21c0,.5,0,.87,0,1.12a29.73,29.73,0,0,1-.47,5.08h-3q.26-1.66.33-3a37.56,37.56,0,0,1-2.28,3ZM32,46.25a1.89,1.89,0,0,0,1,.27,1.57,1.57,0,0,0,1.06-.41s0,.08-.11.24a1.88,1.88,0,0,1-.46.51,1.65,1.65,0,0,1-1.1.34h-.06a2.38,2.38,0,0,1-1.22-.38l-.17-.1a4.48,4.48,0,0,1,.23-.82,3.11,3.11,0,0,1,.18-.46Z"/><path class="cls-1" d="M49.82,48.7a30.84,30.84,0,0,1-.47,5.17H37.88A22.1,22.1,0,0,0,38,51a23.71,23.71,0,0,0-.22-3.29h3.27c0,.57,0,1,0,1.27a26.83,26.83,0,0,1-.28,4,6.9,6.9,0,0,0,1.5.13c0-.63.08-1.43.08-2.38a22.8,22.8,0,0,0-.22-3h3.27c0,.14,0,.35,0,.64A22.92,22.92,0,0,1,45,52.93a7.79,7.79,0,0,0,1.47.12,26.39,26.39,0,0,0,.18-3q0-1.4-.09-2.4h3.22C49.81,48.17,49.82,48.51,49.82,48.7Z"/><path class="cls-1" d="M55.6,50.17l1.16.07H57l-.58,1.09h-.11a2.83,2.83,0,0,1-.67-.13,2.41,2.41,0,0,0-.62-.13c-.34,0-.61.22-.81.65,0,.41-.06.81-.07,1.22a5.93,5.93,0,0,0,1,.12h.12a1.42,1.42,0,0,0,.84-.23,1.36,1.36,0,0,0,.46-.84l1.48.06a8.61,8.61,0,0,1-.49,1.83H51.49a23.3,23.3,0,0,1-.25-3.32,20.15,20.15,0,0,1,.18-2.88h6.64a17.52,17.52,0,0,1-.39,1.89l-1.34,0a1.82,1.82,0,0,0,.1-.54c0-.39-.3-.59-.9-.59a4.08,4.08,0,0,0-.74.07q-.27,1.19-.42,2.07A1.76,1.76,0,0,1,55.6,50.17Z"/><path class="cls-1" d="M64.62,48.48a19.9,19.9,0,0,0-.32,3.2,20.32,20.32,0,0,0,.1,2.19H61.69a20.32,20.32,0,0,1-.42-4.24c0-.25,0-.64,0-1.15A1.76,1.76,0,0,0,60,49.91l-1.23-.08.45-2.16h8.24a13.6,13.6,0,0,1-.57,2.24l-1.25-.08a1.75,1.75,0,0,0,0-.4.87.87,0,0,0-.3-.72A1.27,1.27,0,0,0,64.62,48.48Z"/><rect class="cls-1" x="36.09" y="21.78" width="3.46" height="15.07"/><circle class="cls-2" cx="37.92" cy="12.39" r="8.8"/></g></g></svg>