<svg xmlns="http://www.w3.org/2000/svg" viewBox="0 0 60.07 70.62"><defs><style>.cls-1{fill:#fff;}.cls-2{fill:#e42918;}</style></defs><g id="Слой_2" data-name="Слой 2"><g id="Слой_1-2" data-name="Слой 1"><circle class="cls-1" cx="12.39" cy="12.39" r="12.39"/><rect class="cls-2" x="1" y="41.49" width="58.07" height="28.13" rx="4"/><path class="cls-1" d="M55.07,42.48a3,3,0,0,1,3,3V65.62a3,3,0,0,1-3,3H5a3,3,0,0,1-3-3V45.48a3,3,0,0,1,3-3H55.07m0-2H5a5,5,0,0,0-5,5V65.62a5,5,0,0,0,5,5H55.07a5,5,0,0,0,5-5V45.48a5,5,0,0,0-5-5Z"/><path class="cls-1" d="M12.84,52.22a19.7,19.7,0,0,0-.31,3.1c0,.8,0,1.51.09,2.12H10a19.06,19.06,0,0,1-.41-4.1c0-.25,0-.62,0-1.12A1.71,1.71,0,0,0,8.37,53.6l-1.18-.07.43-2.09h8a14,14,0,0,1-.55,2.16l-1.22-.07a1.24,1.24,0,0,0,.05-.38.81.81,0,0,0-.29-.7A1.18,1.18,0,0,0,12.84,52.22Z"/><path class="cls-1" d="M16.39,57.44a13.38,13.38,0,0,1-.28-3,11.16,11.16,0,0,1,.34-3h3c-.12.76-.21,1.45-.25,2.05a11.37,11.37,0,0,1,3.73,1.06,12.11,12.11,0,0,1-.38,2.89Zm2.75-3.12a8.49,8.49,0,0,0,.3,2.33,4,4,0,0,0,.79-2A2.92,2.92,0,0,0,19.14,54.32Zm7.47-1.65a27.08,27.08,0,0,1-.4,4.77H23.48a20.61,20.61,0,0,0,.16-2.81,22.29,22.29,0,0,0-.22-3.19h3.17C26.61,52,26.61,52.4,26.61,52.67Z"/><path class="cls-1" d="M35.48,52.44a29.84,29.84,0,0,1-.45,5H32.16c.13-.94.21-2,.25-3A3.19,3.19,0,0,0,31,53.93a26,26,0,0,1-.39,3.51H27.91a22.36,22.36,0,0,0,.16-2.81,23.84,23.84,0,0,0-.22-3.19H31c0,.33,0,.82,0,1.47a7.49,7.49,0,0,1,1.38.58c0-.74,0-1.42-.08-2.05h3.12C35.47,51.89,35.48,52.22,35.48,52.44Z"/><path class="cls-1" d="M43.1,58.19q0-.75-1-.75H38.58c-.67,0-1,.37-1,1.09a2,2,0,0,0,0,.28l-1.08,0a14.62,14.62,0,0,1-.45-2.26l.75,0a7.32,7.32,0,0,1,.23-2,4.09,4.09,0,0,0,1.51-.83,4.16,4.16,0,0,0,1-1.32,7.43,7.43,0,0,0-.68-.93h4A13.46,13.46,0,0,1,44,56.61l.81,0a13.39,13.39,0,0,1-.55,2.17L43,58.75A1.57,1.57,0,0,0,43.1,58.19Zm-3.69-2.32a4.28,4.28,0,0,0,0,.65,12.24,12.24,0,0,0,1.64.13A10.16,10.16,0,0,0,40,53.17,7.07,7.07,0,0,0,39.41,55.87Z"/><path class="cls-1" d="M53.17,57.35v.09H50.39A10.7,10.7,0,0,0,50.18,56a11.81,11.81,0,0,1-1.68,1.41H45.71a7.52,7.52,0,0,1-.09-1.3,5.68,5.68,0,0,1,.24-1.62,5.17,5.17,0,0,0,1.66-.86,3.84,3.84,0,0,0,1.16-1.29,7.43,7.43,0,0,0-.68-.93h4A14,14,0,0,1,53.17,57.35ZM50,55.15a10.46,10.46,0,0,0-.82-2,11.74,11.74,0,0,0-.65,3.13A5,5,0,0,0,50,55.15Z"/><rect class="cls-1" x="10.57" y="21.78" width="3.46" height="19.71"/><circle class="cls-2" cx="12.39" cy="12.39" r="8.8"/></g></g></svg>