<svg xmlns="http://www.w3.org/2000/svg" viewBox="0 0 60.07 70.73"><defs><style>.cls-1{fill:#fff;}.cls-2{font-size:12px;font-family:RuslanDisplay, Ruslan Display;}.cls-3{fill:#cdcdcd;}</style></defs><g id="Слой_2" data-name="Слой 2"><g id="Слой_1-2" data-name="Слой 1"><circle class="cls-1" cx="12.39" cy="12.39" r="12.39"/><rect class="cls-1" x="1" y="41.49" width="58.07" height="28.13" rx="4"/><path class="cls-1" d="M55.07,42.48a3,3,0,0,1,3,3V65.62a3,3,0,0,1-3,3H5a3,3,0,0,1-3-3V45.48a3,3,0,0,1,3-3H55.07m0-2H5a5,5,0,0,0-5,5V65.62a5,5,0,0,0,5,5H55.07a5,5,0,0,0,5-5V45.48a5,5,0,0,0-5-5Z"/><text class="cls-2" transform="translate(7.17 57.44)">тында</text><rect class="cls-1" x="10.57" y="21.78" width="3.46" height="19.71"/><circle class="cls-3" cx="12.39" cy="12.39" r="8.8"/></g></g></svg>