<svg xmlns="http://www.w3.org/2000/svg" viewBox="0 0 171.51 73.84"><defs><style>.cls-1{fill:#fff;}.cls-2{fill:#e42918;}</style></defs><g id="Слой_2" data-name="Слой 2"><g id="Слой_1-2" data-name="Слой 1"><circle class="cls-1" cx="55.61" cy="61.45" r="12.39"/><rect class="cls-2" x="1" y="1" width="169.5" height="28.13" rx="4"/><path class="cls-1" d="M166.51,2a3,3,0,0,1,3,3V25.13a3,3,0,0,1-3,3H5a3,3,0,0,1-3-3V5A3,3,0,0,1,5,2H166.51m0-2H5A5,5,0,0,0,0,5V25.13a5,5,0,0,0,5,5H166.51a5,5,0,0,0,5-5V5a5,5,0,0,0-5-5Z"/><path class="cls-1" d="M10.68,12.74H10.5a14.77,14.77,0,0,1-1-1.37,2.6,2.6,0,0,0,1.15.19h.38a4.64,4.64,0,0,1,.77,0,5.07,5.07,0,0,1,1.36,1,7.94,7.94,0,0,1,1.05,1.47c0-.82.07-1.64.15-2.47h3.31c-.15.59-.32,1.42-.49,2.49a7.82,7.82,0,0,1,1.11-1.48,5.54,5.54,0,0,1,1.42-1,4.64,4.64,0,0,1,.77,0h.38a2.79,2.79,0,0,0,1.17-.19,3,3,0,0,0-.2.29l-.25.39c-.07.1-.15.21-.25.33s-.37.37-.5.37a3.64,3.64,0,0,1-1.2-.22,4.75,4.75,0,0,0-1.3,1.78,14.46,14.46,0,0,0,2.82.37,9.65,9.65,0,0,1,.5,2.94h-3.1A5.71,5.71,0,0,0,18,16a3,3,0,0,0-.86-1c-.05.53-.08,1.08-.08,1.63s0,.9,0,1H14.45a20,20,0,0,1-.2-2.67A3,3,0,0,0,13.31,16a3.2,3.2,0,0,0-.42,1.61H9.79a8.59,8.59,0,0,1,.49-2.94,14,14,0,0,0,2.82-.38,4.55,4.55,0,0,0-1.21-1.77A3.94,3.94,0,0,1,10.68,12.74Z"/><path class="cls-1" d="M25.53,10.57a6.67,6.67,0,0,1,1.61-.24A93.55,93.55,0,0,0,23,18.74l-.12,0a6.6,6.6,0,0,1-1.47.21A91,91,0,0,0,25.53,10.57Z"/><path class="cls-1" d="M33.72,18.36c0-.5-.34-.75-1-.75H29.19c-.67,0-1,.37-1,1.09a2.1,2.1,0,0,0,0,.28c-.46,0-.82,0-1.08,0a15.24,15.24,0,0,1-.46-2.25l.76,0a7,7,0,0,1,.23-2.06,4,4,0,0,0,1.5-.82,4.3,4.3,0,0,0,1-1.32,8.59,8.59,0,0,0-.68-.93h4a13.46,13.46,0,0,1,1.17,5.17l.82,0A14.52,14.52,0,0,1,34.92,19l-1.32-.07A1.61,1.61,0,0,0,33.72,18.36ZM30,16a4.19,4.19,0,0,0,.05.65,12.09,12.09,0,0,0,1.63.13,10.15,10.15,0,0,0-1-3.48A6.92,6.92,0,0,0,30,16Z"/><path class="cls-1" d="M47.59,12.16a1.45,1.45,0,0,0-.1-.55h3.42a13,13,0,0,1,.65,2.86,23.73,23.73,0,0,1,.22,3.14H49a15.74,15.74,0,0,0-.71-4.16,9.72,9.72,0,0,0-1.13,4.16H44.82a13,13,0,0,0-1.2-4.17A7.16,7.16,0,0,0,43,16.27a4.63,4.63,0,0,0,.17,1.34H40.22a8.89,8.89,0,0,1-.08-1.3,5.8,5.8,0,0,1,.24-1.63A5.16,5.16,0,0,0,42,13.86a4,4,0,0,0,1.17-1.26c-.16-.28-.38-.6-.66-1H46.3A13.57,13.57,0,0,1,47,14.3,4.37,4.37,0,0,0,47.59,12.16Z"/><path class="cls-1" d="M53.8,17.58a4.55,4.55,0,0,1-1.06-2.81,3.07,3.07,0,0,1,1.2-2.44,4.66,4.66,0,0,1,3.07-1,6.8,6.8,0,0,1,2,.3A3.7,3.7,0,0,1,59.85,14a3.59,3.59,0,0,1-1.28,2.73,4.46,4.46,0,0,1-3.11,1.17A5.17,5.17,0,0,1,53.8,17.58Zm1.83-5.2a3.29,3.29,0,0,0-.42,1.69,3.91,3.91,0,0,0,.42,1.8,2.67,2.67,0,0,0,1.17,1.18,2.62,2.62,0,0,0,.57-1.67,3.58,3.58,0,0,0-.46-1.76A3.06,3.06,0,0,0,55.63,12.38Z"/><path class="cls-1" d="M65.61,12.35a3.75,3.75,0,0,0-1.75.05,6.43,6.43,0,0,0-.18,1.48,3.16,3.16,0,0,0,1.66,2.86,9,9,0,0,0,2-1.83q0,.48.06,1.47a8.62,8.62,0,0,1-1.81,1.09,6,6,0,0,1-2.31.39H63a3.81,3.81,0,0,1-1.7-1.38,3.35,3.35,0,0,1-.62-1.92,2.9,2.9,0,0,1,1.11-2.28,4.77,4.77,0,0,1,3.2-.94,10.87,10.87,0,0,1,2.46.3A9.86,9.86,0,0,1,67,13.06c-.51,0-1,.08-1.56.08A4.78,4.78,0,0,0,65.61,12.35Z"/><path class="cls-1" d="M73.47,12.39a19.7,19.7,0,0,0-.31,3.1,19,19,0,0,0,.1,2.12H70.64a19.72,19.72,0,0,1-.41-4.1c0-.25,0-.62,0-1.12A1.7,1.7,0,0,0,69,13.77l-1.19-.07.43-2.09h8a12.89,12.89,0,0,1-.55,2.16l-1.21-.07a1.73,1.73,0,0,0,0-.38.84.84,0,0,0-.29-.7A1.19,1.19,0,0,0,73.47,12.39Z"/><path class="cls-1" d="M84,16.11q0,.69.06,1.5H81.42a16,16,0,0,1-.5-4,12.56,12.56,0,0,1,.14-2h6.5a14.17,14.17,0,0,1,.38,3.23,13.11,13.11,0,0,1-3.94,1ZM84,15a3.45,3.45,0,0,0,1.28-.38,4.46,4.46,0,0,0-1-2.26A22.37,22.37,0,0,0,84,15Z"/><path class="cls-1" d="M93.43,14l1.13.08.25,0-.57,1.06h-.1a2.51,2.51,0,0,1-.65-.12,2.23,2.23,0,0,0-.6-.13q-.49,0-.78.63c0,.4-.06.79-.07,1.18a5.44,5.44,0,0,0,1,.12h.11a1.14,1.14,0,0,0,1.26-1l1.44.06a8.82,8.82,0,0,1-.48,1.77H89.46a21.88,21.88,0,0,1-.24-3.21,20.6,20.6,0,0,1,.16-2.79h6.44a16.67,16.67,0,0,1-.39,1.83c-.47,0-.9,0-1.29,0a1.61,1.61,0,0,0,.09-.51c0-.39-.29-.58-.86-.58a4.85,4.85,0,0,0-.72.07c-.18.77-.31,1.43-.41,2A1.68,1.68,0,0,1,93.43,14Z"/><path class="cls-1" d="M103.34,11.53h.4a2.76,2.76,0,0,0,1.14-.18q-.54.78-1,1.35h-.2a3.64,3.64,0,0,1-1.18-.19,4.76,4.76,0,0,0-1.31,1.79,13.36,13.36,0,0,0,2.83.38,10.68,10.68,0,0,1,.49,2.93h-3.11a6.24,6.24,0,0,0-.61-1.63,2.81,2.81,0,0,0-.86-1c-.06.65-.09,1.18-.09,1.58s0,.76,0,1.08H97.22a24.25,24.25,0,0,1-.23-3c0-.81.06-1.82.18-3h3.34a22.45,22.45,0,0,0-.49,2.5,8.39,8.39,0,0,1,1.13-1.5,5.66,5.66,0,0,1,1.41-1A4.26,4.26,0,0,1,103.34,11.53Z"/><path class="cls-1" d="M113.26,17.52v.09h-2.78a10.39,10.39,0,0,0-.2-1.41,13,13,0,0,1-1.68,1.41h-2.8a7.67,7.67,0,0,1-.08-1.3,5.8,5.8,0,0,1,.24-1.63,5,5,0,0,0,1.66-.85,4,4,0,0,0,1.16-1.29,8.63,8.63,0,0,0-.69-.93h4A14,14,0,0,1,113.26,17.52Zm-3.2-2.2a10.46,10.46,0,0,0-.82-2,11.71,11.71,0,0,0-.64,3.13A5.11,5.11,0,0,0,110.06,15.32Z"/><path class="cls-1" d="M126.25,11.84a3.36,3.36,0,0,1-.69.1,4.22,4.22,0,0,1-.52,0,4.39,4.39,0,0,0-.68,1.19,10.45,10.45,0,0,0-.45,1.33q-.15.59-.33,1.44A27.54,27.54,0,0,1,121.76,22a14.58,14.58,0,0,1-1.49.35,20,20,0,0,0,2-4.77h-2.49a21.13,21.13,0,0,1-1-6h3.5A10.7,10.7,0,0,0,122,14a12,12,0,0,0,.41,2.87c0-.22.15-.6.29-1.14s.23-.93.3-1.16.16-.56.29-1a6.24,6.24,0,0,1,.36-1c.11-.21.24-.45.4-.71a2.21,2.21,0,0,1,1.14-1,6.61,6.61,0,0,1,.83-.13,2,2,0,0,0,.9-.24A9.24,9.24,0,0,1,126.25,11.84Z"/><path class="cls-1" d="M132.24,17.61h-2.78a11,11,0,0,0-1.22-4.28,6.84,6.84,0,0,0-.65,2.71,4.11,4.11,0,0,0,.31,1.57h-3.12a9,9,0,0,1-.08-1.32,5.8,5.8,0,0,1,.23-1.61,5.13,5.13,0,0,0,1.68-.85,4,4,0,0,0,1.15-1.29,9.73,9.73,0,0,0-.68-.93h4A14.18,14.18,0,0,1,132.24,17.61Z"/><path class="cls-1" d="M133.64,17.61a13.23,13.23,0,0,1-.29-3,10.92,10.92,0,0,1,.35-3h3a19.43,19.43,0,0,0-.25,2,11,11,0,0,1,3.73,1.06,12.68,12.68,0,0,1-.37,2.9Zm2.74-3.13a8.59,8.59,0,0,0,.3,2.33,4,4,0,0,0,.79-2A2.75,2.75,0,0,0,136.38,14.48Z"/><path class="cls-1" d="M148.15,12.16a1.45,1.45,0,0,0-.1-.55h3.42a13,13,0,0,1,.65,2.86,25.56,25.56,0,0,1,.22,3.14h-2.78a15.34,15.34,0,0,0-.7-4.16,9.72,9.72,0,0,0-1.13,4.16h-2.35a13,13,0,0,0-1.2-4.17,7.16,7.16,0,0,0-.65,2.83,4.63,4.63,0,0,0,.17,1.34h-2.92a7.67,7.67,0,0,1-.08-1.3,5.8,5.8,0,0,1,.24-1.63,5.16,5.16,0,0,0,1.62-.82,4,4,0,0,0,1.17-1.26c-.16-.28-.38-.6-.66-1h3.79a13.57,13.57,0,0,1,.69,2.69A4.37,4.37,0,0,0,148.15,12.16Z"/><path class="cls-1" d="M161.17,17.52v.09h-2.79a10.39,10.39,0,0,0-.2-1.41,13,13,0,0,1-1.68,1.41h-2.8a8.89,8.89,0,0,1-.08-1.3,5.8,5.8,0,0,1,.24-1.63,5,5,0,0,0,1.66-.85,4,4,0,0,0,1.16-1.29,8.59,8.59,0,0,0-.68-.93h4A14,14,0,0,1,161.17,17.52ZM158,15.32a10.43,10.43,0,0,0-.81-2,11.74,11.74,0,0,0-.65,3.13A5,5,0,0,0,158,15.32Z"/><rect class="cls-1" x="53.79" y="29.21" width="3.46" height="21.1"/><circle class="cls-2" cx="55.61" cy="61.45" r="8.8"/></g></g></svg>