<svg xmlns="http://www.w3.org/2000/svg" viewBox="0 0 176.4 73.84"><defs><style>.cls-1{fill:#fff;}.cls-2{font-size:12px;font-family:RuslanDisplay, Ruslan Display;}.cls-3{letter-spacing:-0.19em;}.cls-4{fill:#cdcdcd;}</style></defs><g id="Слой_2" data-name="Слой 2"><g id="Слой_1-2" data-name="Слой 1"><circle class="cls-1" cx="55.61" cy="61.45" r="12.39"/><rect class="cls-1" x="1" y="1" width="169.5" height="28.13" rx="4"/><path class="cls-1" d="M166.51,2a3,3,0,0,1,3,3V25.13a3,3,0,0,1-3,3H5a3,3,0,0,1-3-3V5A3,3,0,0,1,5,2H166.51m0-2H5A5,5,0,0,0,0,5V25.13a5,5,0,0,0,5,5H166.51a5,5,0,0,0,5-5V5a5,5,0,0,0-5-5Z"/><text class="cls-2" transform="translate(9.54 17.61)">Ж/Д мост река <tspan class="cls-3" x="108.85" y="0">у</tspan><tspan x="114.72" y="0">льма</tspan></text><rect class="cls-1" x="53.79" y="29.21" width="3.46" height="21.1"/><circle class="cls-4" cx="55.61" cy="61.45" r="8.8"/></g></g></svg>