<svg xmlns="http://www.w3.org/2000/svg" viewBox="0 0 102.91 62.85"><defs><style>.cls-1{fill:#fff;}.cls-2{fill:#e42918;}</style></defs><g id="Слой_2" data-name="Слой 2"><g id="Слой_1-2" data-name="Слой 1"><circle class="cls-1" cx="90.52" cy="50.46" r="12.39"/><rect class="cls-2" x="1" y="1" width="99.54" height="28.13" rx="4"/><path class="cls-1" d="M96.54,2a3,3,0,0,1,3,3V25.13a3,3,0,0,1-3,3H5a3,3,0,0,1-3-3V5A3,3,0,0,1,5,2H96.54m0-2H5A5,5,0,0,0,0,5V25.13a5,5,0,0,0,5,5H96.54a5,5,0,0,0,5-5V5a5,5,0,0,0-5-5Z"/><path class="cls-1" d="M12.78,12.1l0,1a29.7,29.7,0,0,1-.45,5H9.48a28.48,28.48,0,0,0,.27-3.89c0-.45,0-.89,0-1.33H9.51A7.39,7.39,0,0,0,8.37,13v.39A28.06,28.06,0,0,1,8,18.1H5.23a22.1,22.1,0,0,0,.17-2.81,23.77,23.77,0,0,0-.22-3.19Z"/><path class="cls-1" d="M15,18.06a4.48,4.48,0,0,1-1.07-2.81,3,3,0,0,1,1.2-2.43,4.61,4.61,0,0,1,3.07-1,6.8,6.8,0,0,1,2,.3A3.68,3.68,0,0,1,21,14.46a3.58,3.58,0,0,1-1.28,2.74,4.49,4.49,0,0,1-3.11,1.16A5.07,5.07,0,0,1,15,18.06Zm1.82-5.19a3.29,3.29,0,0,0-.42,1.69,3.76,3.76,0,0,0,.43,1.79A2.53,2.53,0,0,0,18,17.53a2.64,2.64,0,0,0,.56-1.66,3.52,3.52,0,0,0-.46-1.77A3.09,3.09,0,0,0,16.81,12.87Z"/><path class="cls-1" d="M26.79,12.83a4.59,4.59,0,0,0-.81-.07,4,4,0,0,0-.94.13,6.37,6.37,0,0,0-.18,1.48,3.13,3.13,0,0,0,1.66,2.85,9,9,0,0,0,2-1.82c0,.32,0,.81.06,1.46A8.27,8.27,0,0,1,26.76,18a6,6,0,0,1-2.31.39h-.27A3.81,3.81,0,0,1,22.48,17a3.4,3.4,0,0,1-.62-1.92A2.9,2.9,0,0,1,23,12.76a4.83,4.83,0,0,1,3.2-.94,10.87,10.87,0,0,1,2.46.3,10,10,0,0,1-.48,1.43c-.5,0-1,.07-1.56.07A4.53,4.53,0,0,0,26.79,12.83Z"/><path class="cls-1" d="M34,14.51l1.13.07h.25l-.56,1.06h-.11A2.28,2.28,0,0,1,34,15.5a2.54,2.54,0,0,0-.6-.12q-.49,0-.78.63c0,.39-.06.78-.07,1.18a5.44,5.44,0,0,0,1,.12h.11a1.35,1.35,0,0,0,.82-.23,1.34,1.34,0,0,0,.44-.82l1.44.06a8.93,8.93,0,0,1-.48,1.78H30a21.91,21.91,0,0,1-.24-3.22,18.91,18.91,0,0,1,.17-2.78h6.43A14.3,14.3,0,0,1,36,13.92c-.47,0-.9,0-1.29.05a1.61,1.61,0,0,0,.09-.51c0-.39-.28-.58-.86-.58a3.8,3.8,0,0,0-.72.07c-.18.76-.31,1.43-.41,2A1.68,1.68,0,0,1,34,14.51Z"/><path class="cls-1" d="M45,18.1H42.25A11,11,0,0,0,41,13.81a6.71,6.71,0,0,0-.65,2.72,3.93,3.93,0,0,0,.31,1.57H37.57a7.86,7.86,0,0,1-.08-1.32,5.79,5.79,0,0,1,.22-1.61,5,5,0,0,0,1.68-.86A3.84,3.84,0,0,0,40.55,13a8.79,8.79,0,0,0-.69-.92h4A14,14,0,0,1,45,18.1Z"/><path class="cls-1" d="M47,18.06a4.54,4.54,0,0,1-1.07-2.81,3,3,0,0,1,1.2-2.43,4.61,4.61,0,0,1,3.07-1,6.7,6.7,0,0,1,2,.3A3.7,3.7,0,0,1,53,14.46a3.59,3.59,0,0,1-1.29,2.74,4.48,4.48,0,0,1-3.11,1.16A5.07,5.07,0,0,1,47,18.06Zm1.82-5.19a3.29,3.29,0,0,0-.42,1.69,3.76,3.76,0,0,0,.43,1.79A2.53,2.53,0,0,0,50,17.53a2.64,2.64,0,0,0,.56-1.66,3.52,3.52,0,0,0-.46-1.77A3,3,0,0,0,48.8,12.87Z"/><path class="cls-1" d="M60.24,12h.39a2.72,2.72,0,0,0,1.14-.17,15.26,15.26,0,0,1-1,1.35h-.19A3.71,3.71,0,0,1,59.37,13a4.66,4.66,0,0,0-1.3,1.79,13.94,13.94,0,0,0,2.83.38,10.6,10.6,0,0,1,.49,2.93H58.28a6,6,0,0,0-.62-1.64,2.79,2.79,0,0,0-.85-1q-.09,1-.09,1.59c0,.4,0,.76,0,1.08H54.12a24.39,24.39,0,0,1-.23-3c0-.82.06-1.82.18-3h3.34a25.33,25.33,0,0,0-.5,2.49,8,8,0,0,1,1.14-1.49,5.35,5.35,0,0,1,1.41-1A5.39,5.39,0,0,1,60.24,12Z"/><path class="cls-1" d="M73.94,12.33a3.26,3.26,0,0,1-.68.09,4.45,4.45,0,0,1-.53,0,4.31,4.31,0,0,0-.67,1.18,10.54,10.54,0,0,0-.45,1.34q-.15.59-.33,1.44a27.85,27.85,0,0,1-1.83,6.16,14.32,14.32,0,0,1-1.48.35,19.72,19.72,0,0,0,1.94-4.76H67.43a21.15,21.15,0,0,1-1-6H70a10.56,10.56,0,0,0-.26,2.37,11.91,11.91,0,0,0,.41,2.86c.06-.22.15-.59.29-1.13l.3-1.16c.06-.23.16-.56.29-1a9.08,9.08,0,0,1,.36-1c.11-.21.25-.45.41-.71a2.09,2.09,0,0,1,1.14-1,4.92,4.92,0,0,1,.82-.13,2,2,0,0,0,.9-.25A8.4,8.4,0,0,1,73.94,12.33Z"/><path class="cls-1" d="M74.42,18.06a4.54,4.54,0,0,1-1.07-2.81,3,3,0,0,1,1.2-2.43,4.64,4.64,0,0,1,3.08-1,6.8,6.8,0,0,1,2,.3,3.74,3.74,0,0,1,.86,2.34,3.61,3.61,0,0,1-1.28,2.74,4.51,4.51,0,0,1-3.11,1.16A5.17,5.17,0,0,1,74.42,18.06Zm1.83-5.19a3.29,3.29,0,0,0-.42,1.69,3.87,3.87,0,0,0,.42,1.79,2.62,2.62,0,0,0,1.17,1.18A2.59,2.59,0,0,0,78,15.87a3.52,3.52,0,0,0-.47-1.77A3,3,0,0,0,76.25,12.87Z"/><path class="cls-1" d="M81.67,14.25a10.52,10.52,0,0,1,.26-2.15H88.2a21.52,21.52,0,0,1,.17,2.76A16.75,16.75,0,0,1,88,18.1H85.4c0-.56.07-1.05.07-1.46s0-.68,0-.82c-.68.29-1.1,1.05-1.27,2.28h-3.1a8.06,8.06,0,0,1,.5-2.37,12.32,12.32,0,0,0,2.48-.33,9.12,9.12,0,0,1-2.4-.81Zm3.54-1.35a4.66,4.66,0,0,0-.85,1.61,1.92,1.92,0,0,0,1.07.47C85.38,14.3,85.31,13.61,85.21,12.9Z"/><path class="cls-1" d="M97.1,13.09a30,30,0,0,1-.45,5H93.78c.13-1,.21-2,.25-3.05a3.33,3.33,0,0,0-1.39-.47,26.14,26.14,0,0,1-.39,3.52H89.53a22.53,22.53,0,0,0,.16-2.82,23.58,23.58,0,0,0-.22-3.18h3.17c0,.33,0,.82,0,1.46a7.54,7.54,0,0,1,1.38.59c0-.74,0-1.43-.08-2.05h3.12C97.09,12.55,97.1,12.88,97.1,13.09Z"/><rect class="cls-1" x="88.7" y="28.42" width="3.46" height="10.91"/><circle class="cls-2" cx="90.52" cy="50.46" r="8.8"/></g></g></svg>