<svg xmlns="http://www.w3.org/2000/svg" viewBox="0 0 102.91 62.85"><defs><style>.cls-1,.cls-3{fill:#fff;}.cls-2{fill:#e42918;}.cls-3{font-size:12px;font-family:RuslanDisplay, Ruslan Display;}.cls-4{letter-spacing:-0.11em;}</style></defs><g id="Слой_2" data-name="Слой 2"><g id="Слой_1-2" data-name="Слой 1"><circle class="cls-1" cx="90.52" cy="50.46" r="12.39"/><rect class="cls-2" x="1" y="1" width="99.54" height="28.13" rx="4"/><path class="cls-1" d="M96.54,2a3,3,0,0,1,3,3V25.13a3,3,0,0,1-3,3H5a3,3,0,0,1-3-3V5A3,3,0,0,1,5,2H96.54m0-2H5A5,5,0,0,0,0,5V25.13a5,5,0,0,0,5,5H96.54a5,5,0,0,0,5-5V5a5,5,0,0,0-5-5Z"/><text class="cls-3" transform="translate(4.63 18.1)">поселок <tspan class="cls-4" x="61.45" y="0">у</tspan><tspan x="68.31" y="0">оян</tspan></text><rect class="cls-1" x="88.7" y="28.42" width="3.46" height="10.91"/><circle class="cls-2" cx="90.52" cy="50.46" r="8.8"/></g></g></svg>