<svg width="131" height="22" viewBox="0 0 131 22" fill="none" xmlns="http://www.w3.org/2000/svg">
<mask id="mask0_26_445" style="mask-type:luminance" maskUnits="userSpaceOnUse" x="0" y="0" width="131" height="22">
<path d="M130.618 21.4443L130.661 0.34436L0.761532 0.0792119L0.718463 21.1792L130.618 21.4443Z" fill="white"/>
</mask>
<g mask="url(#mask0_26_445)">
<path d="M65.2798 20.5235V19.8235H55.5798V20.5235C55.5798 20.9235 55.8798 21.1235 56.1798 21.1235H64.5798C64.9798 21.2235 65.2798 20.9235 65.2798 20.5235Z" fill="#2B2E30"/>
</g>
<mask id="mask1_26_445" style="mask-type:luminance" maskUnits="userSpaceOnUse" x="0" y="0" width="131" height="22">
<path d="M130.618 21.4443L130.661 0.34436L0.761532 0.0792119L0.718463 21.1792L130.618 21.4443Z" fill="white"/>
</mask>
<g mask="url(#mask1_26_445)">
<path d="M47.9797 20.6235V19.9235H38.2797V20.6235C38.2797 21.0235 38.5797 21.2235 38.8797 21.2235H47.2797C47.6797 21.2235 47.9797 21.0235 47.9797 20.6235Z" fill="#2B2E30"/>
</g>
<mask id="mask2_26_445" style="mask-type:luminance" maskUnits="userSpaceOnUse" x="0" y="0" width="131" height="22">
<path d="M130.618 21.4443L130.661 0.34436L0.761532 0.0792119L0.718463 21.1792L130.618 21.4443Z" fill="white"/>
</mask>
<g mask="url(#mask2_26_445)">
<path d="M30.7798 20.4235V19.7235H21.0798V20.4235C21.0798 20.8235 21.3798 21.0235 21.6798 21.0235H30.0798C30.4798 21.1235 30.7798 20.8235 30.7798 20.4235Z" fill="#2B2E30"/>
</g>
<mask id="mask3_26_445" style="mask-type:luminance" maskUnits="userSpaceOnUse" x="0" y="0" width="131" height="22">
<path d="M130.618 21.4443L130.661 0.34436L0.761532 0.0792119L0.718463 21.1792L130.618 21.4443Z" fill="white"/>
</mask>
<g mask="url(#mask3_26_445)">
<path d="M13.4797 20.5235V19.8235H3.77974V20.5235C3.77974 20.9235 4.07974 21.1235 4.37974 21.1235H12.7797C13.1797 21.1235 13.4797 20.8235 13.4797 20.5235Z" fill="#2B2E30"/>
</g>
<mask id="mask4_26_445" style="mask-type:luminance" maskUnits="userSpaceOnUse" x="0" y="0" width="131" height="22">
<path d="M130.618 21.4443L130.661 0.34436L0.761532 0.0792119L0.718463 21.1792L130.618 21.4443Z" fill="white"/>
</mask>
<g mask="url(#mask4_26_445)">
<path d="M2.37971 3.4235L68.0797 3.5235V5.5235H2.37971V3.4235Z" fill="#3A3B3F"/>
</g>
<mask id="mask5_26_445" style="mask-type:luminance" maskUnits="userSpaceOnUse" x="0" y="0" width="131" height="22">
<path d="M130.618 21.4443L130.661 0.34436L0.761532 0.0792119L0.718463 21.1792L130.618 21.4443Z" fill="white"/>
</mask>
<g mask="url(#mask5_26_445)">
<path d="M64.6797 1.92351C64.6797 2.92351 63.8797 3.72351 62.8797 3.72351C61.8797 3.72351 61.0797 2.92351 61.0797 1.92351C61.0797 0.92351 61.8797 0.12351 62.8797 0.12351C63.8797 0.12351 64.6797 0.92351 64.6797 1.92351Z" fill="#909AA0"/>
</g>
<mask id="mask6_26_445" style="mask-type:luminance" maskUnits="userSpaceOnUse" x="0" y="0" width="131" height="22">
<path d="M130.618 21.4443L130.661 0.34436L0.761532 0.0792119L0.718463 21.1792L130.618 21.4443Z" fill="white"/>
</mask>
<g mask="url(#mask6_26_445)">
<path d="M62.8798 3.32349C63.6798 3.32349 64.2798 2.72349 64.2798 1.92349C64.2798 1.12349 63.6798 0.523487 62.8798 0.523487C62.0798 0.523487 61.4798 1.12349 61.4798 1.92349C61.4798 2.72349 62.0798 3.32349 62.8798 3.32349Z" fill="#646A6B"/>
</g>
<mask id="mask7_26_445" style="mask-type:luminance" maskUnits="userSpaceOnUse" x="0" y="0" width="131" height="22">
<path d="M130.618 21.4443L130.661 0.34436L0.761532 0.0792119L0.718463 21.1792L130.618 21.4443Z" fill="white"/>
</mask>
<g mask="url(#mask7_26_445)">
<path d="M63.3798 1.92349C63.3798 2.22349 63.1798 2.42349 62.8798 2.42349C62.5798 2.42349 62.3798 2.22349 62.3798 1.92349C62.3798 1.62349 62.5798 1.42349 62.8798 1.42349C63.1798 1.42349 63.3798 1.72349 63.3798 1.92349Z" fill="#909AA0"/>
</g>
<mask id="mask8_26_445" style="mask-type:luminance" maskUnits="userSpaceOnUse" x="0" y="0" width="131" height="22">
<path d="M130.618 21.4443L130.661 0.34436L0.761532 0.0792119L0.718463 21.1792L130.618 21.4443Z" fill="white"/>
</mask>
<g mask="url(#mask8_26_445)">
<path d="M58.4798 3.72351C59.4798 3.72351 60.2798 2.92351 60.2798 1.92351C60.2798 0.92351 59.4798 0.12351 58.4798 0.12351C57.4798 0.12351 56.6798 0.92351 56.6798 1.92351C56.6798 2.92351 57.4798 3.72351 58.4798 3.72351Z" fill="#909AA0"/>
</g>
<mask id="mask9_26_445" style="mask-type:luminance" maskUnits="userSpaceOnUse" x="0" y="0" width="131" height="22">
<path d="M130.618 21.4443L130.661 0.34436L0.761532 0.0792119L0.718463 21.1792L130.618 21.4443Z" fill="white"/>
</mask>
<g mask="url(#mask9_26_445)">
<path d="M58.4798 3.32349C59.2798 3.32349 59.8798 2.72349 59.8798 1.92349C59.8798 1.12349 59.2798 0.523487 58.4798 0.523487C57.6798 0.523487 57.0798 1.12349 57.0798 1.92349C57.0798 2.72349 57.7798 3.32349 58.4798 3.32349Z" fill="#646A6B"/>
</g>
<mask id="mask10_26_445" style="mask-type:luminance" maskUnits="userSpaceOnUse" x="0" y="0" width="131" height="22">
<path d="M130.618 21.4443L130.661 0.34436L0.761532 0.0792119L0.718463 21.1792L130.618 21.4443Z" fill="white"/>
</mask>
<g mask="url(#mask10_26_445)">
<path d="M58.9797 1.92349C58.9797 2.22349 58.7797 2.42349 58.4797 2.42349C58.1797 2.42349 57.9797 2.22349 57.9797 1.92349C57.9797 1.62349 58.1797 1.42349 58.4797 1.42349C58.7797 1.42349 58.9797 1.72349 58.9797 1.92349Z" fill="#909AA0"/>
</g>
<mask id="mask11_26_445" style="mask-type:luminance" maskUnits="userSpaceOnUse" x="0" y="0" width="131" height="22">
<path d="M130.618 21.4443L130.661 0.34436L0.761532 0.0792119L0.718463 21.1792L130.618 21.4443Z" fill="white"/>
</mask>
<g mask="url(#mask11_26_445)">
<path d="M54.1797 3.72351C55.1797 3.72351 55.9797 2.92351 55.9797 1.92351C55.9797 0.92351 55.1797 0.12351 54.1797 0.12351C53.1797 0.12351 52.3797 0.92351 52.3797 1.92351C52.3797 2.92351 53.1797 3.72351 54.1797 3.72351Z" fill="#909AA0"/>
</g>
<mask id="mask12_26_445" style="mask-type:luminance" maskUnits="userSpaceOnUse" x="0" y="0" width="131" height="22">
<path d="M130.618 21.4443L130.661 0.34436L0.761532 0.0792119L0.718463 21.1792L130.618 21.4443Z" fill="white"/>
</mask>
<g mask="url(#mask12_26_445)">
<path d="M54.1797 3.32349C54.9797 3.32349 55.5797 2.72349 55.5797 1.92349C55.5797 1.12349 54.9797 0.523487 54.1797 0.523487C53.3797 0.523487 52.7797 1.12349 52.7797 1.92349C52.7797 2.72349 53.3797 3.32349 54.1797 3.32349Z" fill="#646A6B"/>
</g>
<mask id="mask13_26_445" style="mask-type:luminance" maskUnits="userSpaceOnUse" x="0" y="0" width="131" height="22">
<path d="M130.618 21.4443L130.661 0.34436L0.761532 0.0792119L0.718463 21.1792L130.618 21.4443Z" fill="white"/>
</mask>
<g mask="url(#mask13_26_445)">
<path d="M54.1797 2.42349C54.4797 2.42349 54.6797 2.22349 54.6797 1.92349C54.6797 1.62349 54.4797 1.42349 54.1797 1.42349C53.8797 1.42349 53.6797 1.62349 53.6797 1.92349C53.6797 2.22349 53.8797 2.42349 54.1797 2.42349Z" fill="#909AA0"/>
</g>
<mask id="mask14_26_445" style="mask-type:luminance" maskUnits="userSpaceOnUse" x="0" y="0" width="131" height="22">
<path d="M130.618 21.4443L130.661 0.34436L0.761532 0.0792119L0.718463 21.1792L130.618 21.4443Z" fill="white"/>
</mask>
<g mask="url(#mask14_26_445)">
<path d="M50.7797 1.72349H51.3797L51.8797 2.42349H57.8797H59.4797H65.4797L65.9797 1.72349H66.5797L66.3797 2.42349L65.9797 4.32349H59.6797H58.0797H51.7797L51.3797 2.42349L50.7797 1.72349Z" fill="#2B2E30"/>
</g>
<mask id="mask15_26_445" style="mask-type:luminance" maskUnits="userSpaceOnUse" x="0" y="0" width="131" height="22">
<path d="M130.618 21.4443L130.661 0.34436L0.761532 0.0792119L0.718463 21.1792L130.618 21.4443Z" fill="white"/>
</mask>
<g mask="url(#mask15_26_445)">
<path d="M18.1797 1.8235C18.1797 2.8235 17.3797 3.6235 16.3797 3.6235C15.3797 3.6235 14.5797 2.8235 14.5797 1.8235C14.5797 0.823503 15.3797 0.0235043 16.3797 0.0235043C17.3797 0.0235043 18.1797 0.923504 18.1797 1.8235Z" fill="#909AA0"/>
</g>
<mask id="mask16_26_445" style="mask-type:luminance" maskUnits="userSpaceOnUse" x="0" y="0" width="131" height="22">
<path d="M130.618 21.4443L130.661 0.34436L0.761532 0.0792119L0.718463 21.1792L130.618 21.4443Z" fill="white"/>
</mask>
<g mask="url(#mask16_26_445)">
<path d="M16.3798 3.22351C17.1798 3.22351 17.7798 2.62351 17.7798 1.82351C17.7798 1.02351 17.1798 0.42351 16.3798 0.42351C15.5798 0.42351 14.9798 1.02351 14.9798 1.82351C14.9798 2.62351 15.5798 3.22351 16.3798 3.22351Z" fill="#646A6B"/>
</g>
<mask id="mask17_26_445" style="mask-type:luminance" maskUnits="userSpaceOnUse" x="0" y="0" width="131" height="22">
<path d="M130.618 21.4443L130.661 0.34436L0.761532 0.0792119L0.718463 21.1792L130.618 21.4443Z" fill="white"/>
</mask>
<g mask="url(#mask17_26_445)">
<path d="M16.8798 1.82349C16.8798 2.12349 16.6798 2.32349 16.3798 2.32349C16.0798 2.32349 15.8798 2.12349 15.8798 1.82349C15.8798 1.52349 16.0798 1.32349 16.3798 1.32349C16.5798 1.32349 16.8798 1.62349 16.8798 1.82349Z" fill="#909AA0"/>
</g>
<mask id="mask18_26_445" style="mask-type:luminance" maskUnits="userSpaceOnUse" x="0" y="0" width="131" height="22">
<path d="M130.618 21.4443L130.661 0.34436L0.761532 0.0792119L0.718463 21.1792L130.618 21.4443Z" fill="white"/>
</mask>
<g mask="url(#mask18_26_445)">
<path d="M11.9798 3.6235C12.9798 3.6235 13.7798 2.8235 13.7798 1.8235C13.7798 0.823503 12.9798 0.0235043 11.9798 0.0235043C10.9798 0.0235043 10.1798 0.823503 10.1798 1.8235C10.1798 2.8235 10.9798 3.6235 11.9798 3.6235Z" fill="#909AA0"/>
</g>
<mask id="mask19_26_445" style="mask-type:luminance" maskUnits="userSpaceOnUse" x="0" y="0" width="131" height="22">
<path d="M130.618 21.4443L130.661 0.34436L0.761532 0.0792119L0.718463 21.1792L130.618 21.4443Z" fill="white"/>
</mask>
<g mask="url(#mask19_26_445)">
<path d="M11.9798 3.22351C12.7798 3.22351 13.3798 2.62351 13.3798 1.82351C13.3798 1.02351 12.7798 0.42351 11.9798 0.42351C11.1798 0.42351 10.5798 1.02351 10.5798 1.82351C10.5798 2.62351 11.1798 3.22351 11.9798 3.22351Z" fill="#646A6B"/>
</g>
<mask id="mask20_26_445" style="mask-type:luminance" maskUnits="userSpaceOnUse" x="0" y="0" width="131" height="22">
<path d="M130.618 21.4443L130.661 0.34436L0.761532 0.0792119L0.718463 21.1792L130.618 21.4443Z" fill="white"/>
</mask>
<g mask="url(#mask20_26_445)">
<path d="M12.4797 1.82349C12.4797 2.12349 12.2797 2.32349 11.9797 2.32349C11.6797 2.32349 11.4797 2.12349 11.4797 1.82349C11.4797 1.52349 11.6797 1.32349 11.9797 1.32349C12.2797 1.32349 12.4797 1.62349 12.4797 1.82349Z" fill="#909AA0"/>
</g>
<mask id="mask21_26_445" style="mask-type:luminance" maskUnits="userSpaceOnUse" x="0" y="0" width="131" height="22">
<path d="M130.618 21.4443L130.661 0.34436L0.761532 0.0792119L0.718463 21.1792L130.618 21.4443Z" fill="white"/>
</mask>
<g mask="url(#mask21_26_445)">
<path d="M7.57976 3.6235C8.57976 3.6235 9.37976 2.8235 9.37976 1.8235C9.37976 0.823503 8.57976 0.0235043 7.57976 0.0235043C6.57976 0.0235043 5.77976 0.823503 5.77976 1.8235C5.77976 2.8235 6.57976 3.6235 7.57976 3.6235Z" fill="#909AA0"/>
</g>
<mask id="mask22_26_445" style="mask-type:luminance" maskUnits="userSpaceOnUse" x="0" y="0" width="131" height="22">
<path d="M130.618 21.4443L130.661 0.34436L0.761532 0.0792119L0.718463 21.1792L130.618 21.4443Z" fill="white"/>
</mask>
<g mask="url(#mask22_26_445)">
<path d="M7.57973 3.22351C8.37973 3.22351 8.97974 2.62351 8.97974 1.82351C8.97974 1.02351 8.37973 0.42351 7.57973 0.42351C6.77973 0.42351 6.17974 1.02351 6.17974 1.82351C6.17974 2.62351 6.87973 3.22351 7.57973 3.22351Z" fill="#646A6B"/>
</g>
<mask id="mask23_26_445" style="mask-type:luminance" maskUnits="userSpaceOnUse" x="0" y="0" width="131" height="22">
<path d="M130.618 21.4443L130.661 0.34436L0.761532 0.0792119L0.718463 21.1792L130.618 21.4443Z" fill="white"/>
</mask>
<g mask="url(#mask23_26_445)">
<path d="M8.07971 1.82349C8.07971 2.12349 7.87971 2.32349 7.57971 2.32349C7.27971 2.32349 7.07971 2.12349 7.07971 1.82349C7.07971 1.52349 7.27971 1.32349 7.57971 1.32349C7.87971 1.32349 8.07971 1.62349 8.07971 1.82349Z" fill="#909AA0"/>
</g>
<mask id="mask24_26_445" style="mask-type:luminance" maskUnits="userSpaceOnUse" x="0" y="0" width="131" height="22">
<path d="M130.618 21.4443L130.661 0.34436L0.761532 0.0792119L0.718463 21.1792L130.618 21.4443Z" fill="white"/>
</mask>
<g mask="url(#mask24_26_445)">
<path d="M4.17974 1.62351H4.77974L5.27974 2.32351H11.2797H12.8797H18.8797L19.3797 1.62351H19.9797L19.7797 2.32351L19.3797 4.22351H13.0797H11.4797H5.17974L4.77974 2.32351L4.17974 1.62351Z" fill="#2B2E30"/>
</g>
<mask id="mask25_26_445" style="mask-type:luminance" maskUnits="userSpaceOnUse" x="0" y="0" width="131" height="22">
<path d="M130.618 21.4443L130.661 0.34436L0.761532 0.0792119L0.718463 21.1792L130.618 21.4443Z" fill="white"/>
</mask>
<g mask="url(#mask25_26_445)">
<path d="M68.0798 5.82349H69.8798V17.9235H68.0798V5.82349Z" fill="#3A3B3F"/>
</g>
<mask id="mask26_26_445" style="mask-type:luminance" maskUnits="userSpaceOnUse" x="0" y="0" width="131" height="22">
<path d="M130.618 21.4443L130.661 0.34436L0.761532 0.0792119L0.718463 21.1792L130.618 21.4443Z" fill="white"/>
</mask>
<g mask="url(#mask26_26_445)">
<path d="M2.37971 5.02349L68.0797 5.12349V20.4235L2.37971 20.3235V5.02349Z" fill="#E0524B"/>
</g>
<mask id="mask27_26_445" style="mask-type:luminance" maskUnits="userSpaceOnUse" x="0" y="0" width="131" height="22">
<path d="M130.618 21.4443L130.661 0.34436L0.761532 0.0792119L0.718463 21.1792L130.618 21.4443Z" fill="white"/>
</mask>
<g mask="url(#mask27_26_445)">
<path d="M2.37971 17.0235L68.0797 17.1235V20.4235L2.37971 20.3235V17.0235Z" fill="#47494F"/>
</g>
<mask id="mask28_26_445" style="mask-type:luminance" maskUnits="userSpaceOnUse" x="0" y="0" width="131" height="22">
<path d="M130.618 21.4443L130.661 0.34436L0.761532 0.0792119L0.718463 21.1792L130.618 21.4443Z" fill="white"/>
</mask>
<g mask="url(#mask28_26_445)">
<path d="M2.37971 10.2235L68.0797 10.3235V17.1235L2.37971 17.0235V10.2235Z" fill="#909AA0"/>
</g>
<mask id="mask29_26_445" style="mask-type:luminance" maskUnits="userSpaceOnUse" x="0" y="0" width="131" height="22">
<path d="M130.618 21.4443L130.661 0.34436L0.761532 0.0792119L0.718463 21.1792L130.618 21.4443Z" fill="white"/>
</mask>
<g mask="url(#mask29_26_445)">
<path d="M57.4797 14.8235V5.22349H50.4797V14.8235C50.4797 15.2235 50.7797 15.4235 51.0797 15.4235H56.7797C57.1797 15.4235 57.4797 15.1235 57.4797 14.8235Z" fill="#47494F"/>
</g>
<mask id="mask30_26_445" style="mask-type:luminance" maskUnits="userSpaceOnUse" x="0" y="0" width="131" height="22">
<path d="M130.618 21.4443L130.661 0.34436L0.761532 0.0792119L0.718463 21.1792L130.618 21.4443Z" fill="white"/>
</mask>
<g mask="url(#mask30_26_445)">
<path d="M57.2798 14.6235V5.22351H50.7798V14.6235C50.7798 14.9235 51.0798 15.2235 51.3798 15.2235H56.6798C56.9798 15.2235 57.2798 14.9235 57.2798 14.6235Z" fill="#D3E1EA"/>
</g>
<mask id="mask31_26_445" style="mask-type:luminance" maskUnits="userSpaceOnUse" x="0" y="0" width="131" height="22">
<path d="M130.618 21.4443L130.661 0.34436L0.761532 0.0792119L0.718463 21.1792L130.618 21.4443Z" fill="white"/>
</mask>
<g mask="url(#mask31_26_445)">
<path d="M56.4797 14.0235V10.2235C56.4797 10.0235 56.2797 9.7235 55.9797 9.7235H55.2797C55.0797 9.7235 54.7797 9.9235 54.7797 10.2235V14.0235C54.7797 14.2235 54.9797 14.5235 55.2797 14.5235H55.9797C56.2797 14.4235 56.4797 14.2235 56.4797 14.0235Z" fill="#2B2E30"/>
</g>
<mask id="mask32_26_445" style="mask-type:luminance" maskUnits="userSpaceOnUse" x="0" y="0" width="131" height="22">
<path d="M130.618 21.4443L130.661 0.34436L0.761532 0.0792119L0.718463 21.1792L130.618 21.4443Z" fill="white"/>
</mask>
<g mask="url(#mask32_26_445)">
<path d="M53.2798 14.0235V10.2235C53.2798 10.0235 53.0798 9.7235 52.7798 9.7235H52.0798C51.8798 9.7235 51.5798 9.9235 51.5798 10.2235V14.0235C51.5798 14.2235 51.7798 14.5235 52.0798 14.5235H52.7798C53.0798 14.4235 53.2798 14.2235 53.2798 14.0235Z" fill="#2B2E30"/>
</g>
<mask id="mask33_26_445" style="mask-type:luminance" maskUnits="userSpaceOnUse" x="0" y="0" width="131" height="22">
<path d="M130.618 21.4443L130.661 0.34436L0.761532 0.0792119L0.718463 21.1792L130.618 21.4443Z" fill="white"/>
</mask>
<g mask="url(#mask33_26_445)">
<path d="M53.8797 5.22349H54.0797V15.3235H53.8797V5.22349Z" fill="#47494F"/>
</g>
<mask id="mask34_26_445" style="mask-type:luminance" maskUnits="userSpaceOnUse" x="0" y="0" width="131" height="22">
<path d="M130.618 21.4443L130.661 0.34436L0.761532 0.0792119L0.718463 21.1792L130.618 21.4443Z" fill="white"/>
</mask>
<g mask="url(#mask34_26_445)">
<path d="M19.7798 14.7235V5.12349H12.7798V14.7235C12.7798 15.1235 13.0798 15.3235 13.3798 15.3235H19.0798C19.4798 15.3235 19.7798 15.0235 19.7798 14.7235Z" fill="#47494F"/>
</g>
<mask id="mask35_26_445" style="mask-type:luminance" maskUnits="userSpaceOnUse" x="0" y="0" width="131" height="22">
<path d="M130.618 21.4443L130.661 0.34436L0.761532 0.0792119L0.718463 21.1792L130.618 21.4443Z" fill="white"/>
</mask>
<g mask="url(#mask35_26_445)">
<path d="M19.4797 14.5235V5.1235H12.9797V14.5235C12.9797 14.8235 13.2797 15.1235 13.5797 15.1235H18.8797C19.2797 15.1235 19.4797 14.8235 19.4797 14.5235Z" fill="#D3E1EA"/>
</g>
<mask id="mask36_26_445" style="mask-type:luminance" maskUnits="userSpaceOnUse" x="0" y="0" width="131" height="22">
<path d="M130.618 21.4443L130.661 0.34436L0.761532 0.0792119L0.718463 21.1792L130.618 21.4443Z" fill="white"/>
</mask>
<g mask="url(#mask36_26_445)">
<path d="M18.7798 13.9235V10.1235C18.7798 9.92349 18.5798 9.62349 18.2798 9.62349H17.5798C17.3798 9.62349 17.0798 9.82349 17.0798 10.1235V13.9235C17.0798 14.1235 17.2798 14.4235 17.5798 14.4235H18.2798C18.5798 14.4235 18.7798 14.2235 18.7798 13.9235Z" fill="#2B2E30"/>
</g>
<mask id="mask37_26_445" style="mask-type:luminance" maskUnits="userSpaceOnUse" x="0" y="0" width="131" height="22">
<path d="M130.618 21.4443L130.661 0.34436L0.761532 0.0792119L0.718463 21.1792L130.618 21.4443Z" fill="white"/>
</mask>
<g mask="url(#mask37_26_445)">
<path d="M13.8797 13.9235V10.1235C13.8797 9.92349 14.0797 9.62349 14.3797 9.62349H15.0797C15.3797 9.62349 15.5797 9.82349 15.5797 10.1235V13.9235C15.5797 14.1235 15.3797 14.4235 15.0797 14.4235H14.3797C14.0797 14.4235 13.8797 14.2235 13.8797 13.9235Z" fill="#2B2E30"/>
</g>
<mask id="mask38_26_445" style="mask-type:luminance" maskUnits="userSpaceOnUse" x="0" y="0" width="131" height="22">
<path d="M130.618 21.4443L130.661 0.34436L0.761532 0.0792119L0.718463 21.1792L130.618 21.4443Z" fill="white"/>
</mask>
<g mask="url(#mask38_26_445)">
<path d="M16.0798 5.12351H16.2798V15.2235H16.0798V5.12351Z" fill="#47494F"/>
</g>
<mask id="mask39_26_445" style="mask-type:luminance" maskUnits="userSpaceOnUse" x="0" y="0" width="131" height="22">
<path d="M130.618 21.4443L130.661 0.34436L0.761532 0.0792119L0.718463 21.1792L130.618 21.4443Z" fill="white"/>
</mask>
<g mask="url(#mask39_26_445)">
<path d="M67.0797 14.3235V12.4235C67.0797 11.8235 66.5797 11.4235 66.0797 11.4235H60.0797C59.4797 11.4235 59.0797 11.9235 59.0797 12.4235V14.3235C59.0797 14.9235 59.5797 15.3235 60.0797 15.3235H66.0797C66.5797 15.3235 67.0797 14.9235 67.0797 14.3235Z" fill="#47494F"/>
</g>
<mask id="mask40_26_445" style="mask-type:luminance" maskUnits="userSpaceOnUse" x="0" y="0" width="131" height="22">
<path d="M130.618 21.4443L130.661 0.34436L0.761532 0.0792119L0.718463 21.1792L130.618 21.4443Z" fill="white"/>
</mask>
<g mask="url(#mask40_26_445)">
<path d="M66.7798 14.2235V12.6235C66.7798 12.1235 66.3798 11.7235 65.8798 11.7235H60.3798C59.8798 11.7235 59.4798 12.1235 59.4798 12.6235V14.2235C59.4798 14.7235 59.8798 15.1235 60.3798 15.1235H65.8798C66.3798 15.1235 66.7798 14.7235 66.7798 14.2235Z" fill="#2B2E30"/>
</g>
<mask id="mask41_26_445" style="mask-type:luminance" maskUnits="userSpaceOnUse" x="0" y="0" width="131" height="22">
<path d="M130.618 21.4443L130.661 0.34436L0.761532 0.0792119L0.718463 21.1792L130.618 21.4443Z" fill="white"/>
</mask>
<g mask="url(#mask41_26_445)">
<path opacity="0.12" d="M64.1798 15.1235L66.7798 12.5235V13.1235L64.8798 15.2235L64.1798 15.1235Z" fill="white"/>
</g>
<mask id="mask42_26_445" style="mask-type:luminance" maskUnits="userSpaceOnUse" x="0" y="0" width="131" height="22">
<path d="M130.618 21.4443L130.661 0.34436L0.761532 0.0792119L0.718463 21.1792L130.618 21.4443Z" fill="white"/>
</mask>
<g mask="url(#mask42_26_445)">
<path opacity="0.12" d="M64.9797 11.7235H63.2797C63.1797 11.7235 60.7797 15.2235 60.7797 15.2235H61.8797L64.9797 11.7235Z" fill="white"/>
</g>
<mask id="mask43_26_445" style="mask-type:luminance" maskUnits="userSpaceOnUse" x="0" y="0" width="131" height="22">
<path d="M130.618 21.4443L130.661 0.34436L0.761532 0.0792119L0.718463 21.1792L130.618 21.4443Z" fill="white"/>
</mask>
<g mask="url(#mask43_26_445)">
<path opacity="0.12" d="M61.7798 11.6235H60.6798L59.3798 13.3235V13.9235C59.3798 13.9235 61.6798 11.6235 61.7798 11.6235Z" fill="white"/>
</g>
<mask id="mask44_26_445" style="mask-type:luminance" maskUnits="userSpaceOnUse" x="0" y="0" width="131" height="22">
<path d="M130.618 21.4443L130.661 0.34436L0.761532 0.0792119L0.718463 21.1792L130.618 21.4443Z" fill="white"/>
</mask>
<g mask="url(#mask44_26_445)">
<path d="M10.4797 15.5235C11.0797 15.5235 11.4797 15.0235 11.4797 14.5235V12.6235C11.4797 12.0235 10.9797 11.6235 10.4797 11.6235H4.47974C3.87974 11.6235 3.47974 12.1235 3.47974 12.6235V14.5235C3.47974 15.1235 3.97974 15.5235 4.47974 15.5235H10.4797Z" fill="#47494F"/>
</g>
<mask id="mask45_26_445" style="mask-type:luminance" maskUnits="userSpaceOnUse" x="0" y="0" width="131" height="22">
<path d="M130.618 21.4443L130.661 0.34436L0.761532 0.0792119L0.718463 21.1792L130.618 21.4443Z" fill="white"/>
</mask>
<g mask="url(#mask45_26_445)">
<path d="M11.1797 14.4235V12.8235C11.1797 12.3235 10.7797 11.9235 10.2797 11.9235H4.77969C4.27969 11.9235 3.87968 12.3235 3.87968 12.8235V14.4235C3.87968 14.9235 4.27969 15.3235 4.77969 15.3235H10.2797C10.7797 15.3235 11.1797 14.9235 11.1797 14.4235Z" fill="#2B2E30"/>
</g>
<mask id="mask46_26_445" style="mask-type:luminance" maskUnits="userSpaceOnUse" x="0" y="0" width="131" height="22">
<path d="M130.618 21.4443L130.661 0.34436L0.761532 0.0792119L0.718463 21.1792L130.618 21.4443Z" fill="white"/>
</mask>
<g mask="url(#mask46_26_445)">
<path opacity="0.12" d="M8.67979 15.3235L11.2798 12.6235V13.2235L9.37978 15.3235H8.67979Z" fill="white"/>
</g>
<mask id="mask47_26_445" style="mask-type:luminance" maskUnits="userSpaceOnUse" x="0" y="0" width="131" height="22">
<path d="M130.618 21.4443L130.661 0.34436L0.761532 0.0792119L0.718463 21.1792L130.618 21.4443Z" fill="white"/>
</mask>
<g mask="url(#mask47_26_445)">
<path opacity="0.12" d="M9.47974 11.8235H7.77974C7.67974 11.8235 5.27974 15.3235 5.27974 15.3235H6.37974L9.47974 11.8235Z" fill="white"/>
</g>
<mask id="mask48_26_445" style="mask-type:luminance" maskUnits="userSpaceOnUse" x="0" y="0" width="131" height="22">
<path d="M130.618 21.4443L130.661 0.34436L0.761532 0.0792119L0.718463 21.1792L130.618 21.4443Z" fill="white"/>
</mask>
<g mask="url(#mask48_26_445)">
<path opacity="0.12" d="M6.17969 11.8235H5.07968L3.77969 13.5235V14.1235L6.17969 11.8235Z" fill="white"/>
</g>
<mask id="mask49_26_445" style="mask-type:luminance" maskUnits="userSpaceOnUse" x="0" y="0" width="131" height="22">
<path d="M130.618 21.4443L130.661 0.34436L0.761532 0.0792119L0.718463 21.1792L130.618 21.4443Z" fill="white"/>
</mask>
<g mask="url(#mask49_26_445)">
<path d="M48.8798 14.3235V12.4235C48.8798 11.8235 48.3798 11.4235 47.8798 11.4235H41.8798C41.2798 11.4235 40.8798 11.9235 40.8798 12.4235V14.3235C40.8798 14.9235 41.3798 15.3235 41.8798 15.3235H47.8798C48.4798 15.3235 48.8798 14.9235 48.8798 14.3235Z" fill="#47494F"/>
</g>
<mask id="mask50_26_445" style="mask-type:luminance" maskUnits="userSpaceOnUse" x="0" y="0" width="131" height="22">
<path d="M130.618 21.4443L130.661 0.34436L0.761532 0.0792119L0.718463 21.1792L130.618 21.4443Z" fill="white"/>
</mask>
<g mask="url(#mask50_26_445)">
<path d="M48.5797 14.2235V12.6235C48.5797 12.1235 48.1797 11.7235 47.6797 11.7235H42.1797C41.6797 11.7235 41.2797 12.1235 41.2797 12.6235V14.2235C41.2797 14.7235 41.6797 15.1235 42.1797 15.1235H47.6797C48.1797 15.2235 48.5797 14.8235 48.5797 14.2235Z" fill="#2B2E30"/>
</g>
<mask id="mask51_26_445" style="mask-type:luminance" maskUnits="userSpaceOnUse" x="0" y="0" width="131" height="22">
<path d="M130.618 21.4443L130.661 0.34436L0.761532 0.0792119L0.718463 21.1792L130.618 21.4443Z" fill="white"/>
</mask>
<g mask="url(#mask51_26_445)">
<path opacity="0.12" d="M46.0797 15.2235L48.5797 12.5235V13.1235L46.6797 15.2235H46.0797Z" fill="white"/>
</g>
<mask id="mask52_26_445" style="mask-type:luminance" maskUnits="userSpaceOnUse" x="0" y="0" width="131" height="22">
<path d="M130.618 21.4443L130.661 0.34436L0.761532 0.0792119L0.718463 21.1792L130.618 21.4443Z" fill="white"/>
</mask>
<g mask="url(#mask52_26_445)">
<path opacity="0.12" d="M46.8798 11.7235H45.1798C45.0798 11.7235 42.6798 15.2235 42.6798 15.2235H43.7798L46.8798 11.7235Z" fill="white"/>
</g>
<mask id="mask53_26_445" style="mask-type:luminance" maskUnits="userSpaceOnUse" x="0" y="0" width="131" height="22">
<path d="M130.618 21.4443L130.661 0.34436L0.761532 0.0792119L0.718463 21.1792L130.618 21.4443Z" fill="white"/>
</mask>
<g mask="url(#mask53_26_445)">
<path opacity="0.12" d="M42.4797 11.7235L41.1797 13.4235V14.0235C41.1797 14.0235 43.4797 11.7235 43.5797 11.7235H42.4797Z" fill="white"/>
</g>
<mask id="mask54_26_445" style="mask-type:luminance" maskUnits="userSpaceOnUse" x="0" y="0" width="131" height="22">
<path d="M130.618 21.4443L130.661 0.34436L0.761532 0.0792119L0.718463 21.1792L130.618 21.4443Z" fill="white"/>
</mask>
<g mask="url(#mask54_26_445)">
<path d="M30.7798 14.3235V12.4235C30.7798 11.8235 31.2798 11.4235 31.7798 11.4235H37.7798C38.3798 11.4235 38.7798 11.9235 38.7798 12.4235V14.3235C38.7798 14.9235 38.2798 15.3235 37.7798 15.3235H31.7798C31.1798 15.3235 30.7798 14.8235 30.7798 14.3235Z" fill="#47494F"/>
</g>
<mask id="mask55_26_445" style="mask-type:luminance" maskUnits="userSpaceOnUse" x="0" y="0" width="131" height="22">
<path d="M130.618 21.4443L130.661 0.34436L0.761532 0.0792119L0.718463 21.1792L130.618 21.4443Z" fill="white"/>
</mask>
<g mask="url(#mask55_26_445)">
<path d="M38.4797 14.2235V12.6235C38.4797 12.1235 38.0797 11.7235 37.5797 11.7235H32.0797C31.5797 11.7235 31.1797 12.1235 31.1797 12.6235V14.2235C31.1797 14.7235 31.5797 15.1235 32.0797 15.1235H37.5797C38.0797 15.1235 38.4797 14.7235 38.4797 14.2235Z" fill="#2B2E30"/>
</g>
<mask id="mask56_26_445" style="mask-type:luminance" maskUnits="userSpaceOnUse" x="0" y="0" width="131" height="22">
<path d="M130.618 21.4443L130.661 0.34436L0.761532 0.0792119L0.718463 21.1792L130.618 21.4443Z" fill="white"/>
</mask>
<g mask="url(#mask56_26_445)">
<path opacity="0.12" d="M35.8797 15.1235L38.4797 12.4235V13.0235L36.5797 15.1235H35.8797Z" fill="white"/>
</g>
<mask id="mask57_26_445" style="mask-type:luminance" maskUnits="userSpaceOnUse" x="0" y="0" width="131" height="22">
<path d="M130.618 21.4443L130.661 0.34436L0.761532 0.0792119L0.718463 21.1792L130.618 21.4443Z" fill="white"/>
</mask>
<g mask="url(#mask57_26_445)">
<path opacity="0.12" d="M36.7798 11.6235H35.0798C34.9798 11.6235 32.5798 15.1235 32.5798 15.1235H33.6798L36.7798 11.6235Z" fill="white"/>
</g>
<mask id="mask58_26_445" style="mask-type:luminance" maskUnits="userSpaceOnUse" x="0" y="0" width="131" height="22">
<path d="M130.618 21.4443L130.661 0.34436L0.761532 0.0792119L0.718463 21.1792L130.618 21.4443Z" fill="white"/>
</mask>
<g mask="url(#mask58_26_445)">
<path opacity="0.12" d="M33.4797 11.6235H32.3797L31.0797 13.3235V13.9235L33.4797 11.6235Z" fill="white"/>
</g>
<mask id="mask59_26_445" style="mask-type:luminance" maskUnits="userSpaceOnUse" x="0" y="0" width="131" height="22">
<path d="M130.618 21.4443L130.661 0.34436L0.761532 0.0792119L0.718463 21.1792L130.618 21.4443Z" fill="white"/>
</mask>
<g mask="url(#mask59_26_445)">
<path d="M27.8798 15.3235C28.4798 15.3235 28.8798 14.8235 28.8798 14.3235V12.4235C28.8798 11.8235 28.3798 11.4235 27.8798 11.4235H21.8798C21.2798 11.4235 20.8798 11.9235 20.8798 12.4235V14.3235C20.8798 14.9235 21.3798 15.3235 21.8798 15.3235H27.8798Z" fill="#47494F"/>
</g>
<mask id="mask60_26_445" style="mask-type:luminance" maskUnits="userSpaceOnUse" x="0" y="0" width="131" height="22">
<path d="M130.618 21.4443L130.661 0.34436L0.761532 0.0792119L0.718463 21.1792L130.618 21.4443Z" fill="white"/>
</mask>
<g mask="url(#mask60_26_445)">
<path d="M21.1797 14.2235V12.6235C21.1797 12.1235 21.5797 11.7235 22.0797 11.7235H27.5797C28.0797 11.7235 28.4797 12.1235 28.4797 12.6235V14.2235C28.4797 14.7235 28.0797 15.1235 27.5797 15.1235H22.0797C21.5797 15.1235 21.1797 14.7235 21.1797 14.2235Z" fill="#2B2E30"/>
</g>
<mask id="mask61_26_445" style="mask-type:luminance" maskUnits="userSpaceOnUse" x="0" y="0" width="131" height="22">
<path d="M130.618 21.4443L130.661 0.34436L0.761532 0.0792119L0.718463 21.1792L130.618 21.4443Z" fill="white"/>
</mask>
<g mask="url(#mask61_26_445)">
<path opacity="0.12" d="M25.9797 15.1235L28.5797 12.4235V13.0235L26.6797 15.1235H25.9797Z" fill="white"/>
</g>
<mask id="mask62_26_445" style="mask-type:luminance" maskUnits="userSpaceOnUse" x="0" y="0" width="131" height="22">
<path d="M130.618 21.4443L130.661 0.34436L0.761532 0.0792119L0.718463 21.1792L130.618 21.4443Z" fill="white"/>
</mask>
<g mask="url(#mask62_26_445)">
<path opacity="0.12" d="M26.8798 11.6235H25.1798C25.0798 11.6235 22.6798 15.1235 22.6798 15.1235H23.7798L26.8798 11.6235Z" fill="white"/>
</g>
<mask id="mask63_26_445" style="mask-type:luminance" maskUnits="userSpaceOnUse" x="0" y="0" width="131" height="22">
<path d="M130.618 21.4443L130.661 0.34436L0.761532 0.0792119L0.718463 21.1792L130.618 21.4443Z" fill="white"/>
</mask>
<g mask="url(#mask63_26_445)">
<path opacity="0.12" d="M23.5797 11.6235H22.4797L21.1797 13.3235V13.9235L23.5797 11.6235Z" fill="white"/>
</g>
<mask id="mask64_26_445" style="mask-type:luminance" maskUnits="userSpaceOnUse" x="0" y="0" width="131" height="22">
<path d="M130.618 21.4443L130.661 0.34436L0.761532 0.0792119L0.718463 21.1792L130.618 21.4443Z" fill="white"/>
</mask>
<g mask="url(#mask64_26_445)">
<path d="M2.37974 8.22351H9.67974L11.4797 6.72351H2.37974V8.22351Z" fill="#909AA0"/>
</g>
<mask id="mask65_26_445" style="mask-type:luminance" maskUnits="userSpaceOnUse" x="0" y="0" width="131" height="22">
<path d="M130.618 21.4443L130.661 0.34436L0.761532 0.0792119L0.718463 21.1792L130.618 21.4443Z" fill="white"/>
</mask>
<g mask="url(#mask65_26_445)">
<path d="M58.9797 8.32349H68.0797V6.82349H60.7797L58.9797 8.32349Z" fill="#909AA0"/>
</g>
<mask id="mask66_26_445" style="mask-type:luminance" maskUnits="userSpaceOnUse" x="0" y="0" width="131" height="22">
<path d="M130.618 21.4443L130.661 0.34436L0.761532 0.0792119L0.718463 21.1792L130.618 21.4443Z" fill="white"/>
</mask>
<g mask="url(#mask66_26_445)">
<path d="M20.8797 8.32349L22.6797 6.82349H28.5797H29.9797H49.0797L46.7797 8.32349H29.9797H28.5797H20.8797Z" fill="#909AA0"/>
</g>
<mask id="mask67_26_445" style="mask-type:luminance" maskUnits="userSpaceOnUse" x="0" y="0" width="131" height="22">
<path d="M130.618 21.4443L130.661 0.34436L0.761532 0.0792119L0.718463 21.1792L130.618 21.4443Z" fill="white"/>
</mask>
<g mask="url(#mask67_26_445)">
<path opacity="0.24" d="M45.4797 18.9235C48.7797 19.0235 52.0797 19.1235 55.3797 19.1235C58.3797 19.1235 61.2797 19.0235 64.2797 18.9235C64.7797 18.9235 65.9797 18.6235 66.3797 18.9235C66.7797 19.3235 66.1797 19.6235 65.8797 19.7235C65.2797 19.9235 64.5797 19.8235 63.8797 19.8235C63.1797 19.8235 62.3797 19.8235 61.6797 19.8235C55.6797 19.8235 49.6797 19.8235 43.7797 19.7235C43.5797 19.7235 43.3797 19.7235 43.2797 19.6235C43.0797 19.5235 43.0797 19.3235 43.1797 19.1235C43.2797 19.0235 43.3797 19.0235 43.4797 19.0235C43.9797 18.9235 44.6797 18.9235 45.4797 18.9235Z" fill="white"/>
</g>
<mask id="mask68_26_445" style="mask-type:luminance" maskUnits="userSpaceOnUse" x="0" y="0" width="131" height="22">
<path d="M130.618 21.4443L130.661 0.34436L0.761532 0.0792119L0.718463 21.1792L130.618 21.4443Z" fill="white"/>
</mask>
<g mask="url(#mask68_26_445)">
<path opacity="0.24" d="M33.4798 18.9235C34.4798 18.9235 35.3798 18.9235 36.3798 19.0235C37.2798 19.0235 38.0798 19.0235 38.9798 19.0235C39.3798 19.0235 40.9798 18.8235 41.0798 19.3235C41.2798 20.1235 37.7798 19.7235 37.2798 19.7235C36.6798 19.7235 36.0798 19.6235 35.3798 19.6235C33.9798 19.6235 32.6798 19.7235 31.2798 19.8235C31.0798 19.8235 30.8798 19.8235 30.7798 19.7235C30.5798 19.6235 30.4798 19.4235 30.5798 19.2235C30.6798 19.1235 30.7798 19.1235 30.8798 19.0235C31.7798 18.8235 32.6798 18.8235 33.4798 18.9235Z" fill="white"/>
</g>
<mask id="mask69_26_445" style="mask-type:luminance" maskUnits="userSpaceOnUse" x="0" y="0" width="131" height="22">
<path d="M130.618 21.4443L130.661 0.34436L0.761532 0.0792119L0.718463 21.1792L130.618 21.4443Z" fill="white"/>
</mask>
<g mask="url(#mask69_26_445)">
<mask id="mask70_26_445" style="mask-type:luminance" maskUnits="userSpaceOnUse" x="29" y="4" width="16" height="8">
<path d="M44.1905 11.7193L44.2659 4.91968L29.1668 4.75223L29.0914 11.5518L44.1905 11.7193Z" fill="white"/>
</mask>
<g mask="url(#mask70_26_445)">
<path d="M34.1799 10.5235V10.3235H32.3799C32.2799 10.3235 32.0799 10.3235 31.9799 10.2235C31.8799 10.1235 31.8799 9.9235 31.8799 9.8235V8.0235C31.8799 7.9235 31.8799 7.7235 31.9799 7.6235C32.0799 7.5235 32.2799 7.5235 32.3799 7.5235H33.1799C33.2799 7.5235 33.4799 7.5235 33.5799 7.7235C33.6799 7.9235 33.5799 8.0235 33.4799 8.1235L32.2799 9.6235H34.0799L34.7799 8.7235C34.8799 8.5235 34.9799 8.4235 34.9799 8.2235C34.9799 8.0235 34.8799 7.9235 34.7799 7.7235L34.5799 7.5235C34.3799 7.3235 34.2799 7.0235 33.9799 6.9235C33.7799 6.8235 33.4799 6.8235 33.0799 6.8235H32.2799C31.8799 6.8235 31.1799 6.8235 30.7799 7.2235C30.3799 7.6235 30.3799 8.3235 30.2799 8.5235V9.2235C30.2799 9.4235 30.2799 10.1235 30.6799 10.5235C31.0799 10.9235 31.7799 11.0235 32.1799 11.0235H33.3799C33.4799 11.0235 33.6799 11.0235 33.7799 10.9235C34.1799 10.7235 34.1799 10.6235 34.1799 10.5235Z" fill="white"/>
<path d="M36.2798 9.6235H34.5798L36.6798 6.8235H38.3798L36.2798 9.6235Z" fill="white"/>
<path d="M43.1798 9.22351C43.1798 9.32351 43.1798 9.52351 43.0798 9.62351C42.9798 9.72351 42.7798 9.72351 42.6798 9.72351H39.7798C39.3798 9.72351 39.0798 9.72351 38.8798 9.62351C38.6798 9.52351 38.4798 9.22351 38.2798 9.02351L38.0798 8.82351C37.9798 8.62351 37.8798 8.52351 37.8798 8.32351C37.8798 8.12351 37.9798 8.02351 38.0798 7.82351L38.7798 6.92351H40.4798L39.2798 8.42351C39.1798 8.52351 39.0798 8.72351 39.1798 8.82351C39.2798 9.02351 39.4798 9.02351 39.5798 9.02351H40.9798V5.52351H42.3798V9.02351H43.0798L43.1798 9.22351Z" fill="white"/>
</g>
</g>
<mask id="mask71_26_445" style="mask-type:luminance" maskUnits="userSpaceOnUse" x="0" y="0" width="131" height="22">
<path d="M130.618 21.4443L130.661 0.34436L0.761532 0.0792119L0.718463 21.1792L130.618 21.4443Z" fill="white"/>
</mask>
<g mask="url(#mask71_26_445)">
<path d="M117.48 20.6235V19.9235H107.78V20.6235C107.78 21.0235 108.08 21.2235 108.38 21.2235H116.78C117.18 21.2235 117.48 20.9235 117.48 20.6235Z" fill="#2B2E30"/>
</g>
<mask id="mask72_26_445" style="mask-type:luminance" maskUnits="userSpaceOnUse" x="0" y="0" width="131" height="22">
<path d="M130.618 21.4443L130.661 0.34436L0.761532 0.0792119L0.718463 21.1792L130.618 21.4443Z" fill="white"/>
</mask>
<g mask="url(#mask72_26_445)">
<path d="M99.1797 20.6235V19.9235H89.4797V20.6235C89.4797 21.0235 89.7797 21.2235 90.0797 21.2235H98.4797C98.8797 21.3235 99.1797 21.0235 99.1797 20.6235Z" fill="#2B2E30"/>
</g>
<mask id="mask73_26_445" style="mask-type:luminance" maskUnits="userSpaceOnUse" x="0" y="0" width="131" height="22">
<path d="M130.618 21.4443L130.661 0.34436L0.761532 0.0792119L0.718463 21.1792L130.618 21.4443Z" fill="white"/>
</mask>
<g mask="url(#mask73_26_445)">
<path d="M80.8798 20.5235V19.8235H71.1798V20.5235C71.1798 20.9235 71.4798 21.1235 71.7798 21.1235H80.1798C80.5798 21.1235 80.8798 20.8235 80.8798 20.5235Z" fill="#2B2E30"/>
</g>
<mask id="mask74_26_445" style="mask-type:luminance" maskUnits="userSpaceOnUse" x="0" y="0" width="131" height="22">
<path d="M130.618 21.4443L130.661 0.34436L0.761532 0.0792119L0.718463 21.1792L130.618 21.4443Z" fill="white"/>
</mask>
<g mask="url(#mask74_26_445)">
<path d="M69.8798 3.62351L126.78 3.72351V5.72351L69.9798 5.62351L69.8798 3.62351Z" fill="#3A3B3F"/>
</g>
<mask id="mask75_26_445" style="mask-type:luminance" maskUnits="userSpaceOnUse" x="0" y="0" width="131" height="22">
<path d="M130.618 21.4443L130.661 0.34436L0.761532 0.0792119L0.718463 21.1792L130.618 21.4443Z" fill="white"/>
</mask>
<g mask="url(#mask75_26_445)">
<path d="M124.38 3.92351C123.98 4.72351 123.18 5.32351 122.28 5.32351L69.8797 5.22351V20.5235C69.8797 20.5235 118.88 20.8235 120.18 20.6235C121.48 20.4235 130.28 11.5235 130.48 10.0235C130.68 8.42351 130.48 2.22351 130.48 2.22351H124.68L124.38 3.92351Z" fill="#E52713"/>
</g>
<mask id="mask76_26_445" style="mask-type:luminance" maskUnits="userSpaceOnUse" x="0" y="0" width="131" height="22">
<path d="M130.618 21.4443L130.661 0.34436L0.761532 0.0792119L0.718463 21.1792L130.618 21.4443Z" fill="white"/>
</mask>
<g mask="url(#mask76_26_445)">
<path d="M69.8797 20.5235V17.0235L120.18 17.1235V20.6235C118.98 20.7235 69.8797 20.5235 69.8797 20.5235Z" fill="#47494F"/>
</g>
<mask id="mask77_26_445" style="mask-type:luminance" maskUnits="userSpaceOnUse" x="0" y="0" width="131" height="22">
<path d="M130.618 21.4443L130.661 0.34436L0.761532 0.0792119L0.718463 21.1792L130.618 21.4443Z" fill="white"/>
</mask>
<g mask="url(#mask77_26_445)">
<path d="M120.18 17.1235L69.8797 17.0235V10.4235H123.38C123.38 10.4235 125.68 11.0235 125.38 12.4235C124.98 13.8235 120.18 17.1235 120.18 17.1235Z" fill="#909AA0"/>
</g>
<mask id="mask78_26_445" style="mask-type:luminance" maskUnits="userSpaceOnUse" x="0" y="0" width="131" height="22">
<path d="M130.618 21.4443L130.661 0.34436L0.761532 0.0792119L0.718463 21.1792L130.618 21.4443Z" fill="white"/>
</mask>
<g mask="url(#mask78_26_445)">
<path d="M129.68 11.3235C129.68 11.3235 128.98 12.2235 127.68 13.7235C126.68 14.8235 125.88 15.6235 125.88 15.6235C125.88 15.6235 118.88 15.7235 118.78 15.7235C118.68 15.7235 123.28 11.4235 123.28 11.4235L129.68 11.3235Z" fill="#47494F"/>
</g>
<mask id="mask79_26_445" style="mask-type:luminance" maskUnits="userSpaceOnUse" x="0" y="0" width="131" height="22">
<path d="M130.618 21.4443L130.661 0.34436L0.761532 0.0792119L0.718463 21.1792L130.618 21.4443Z" fill="white"/>
</mask>
<g mask="url(#mask79_26_445)">
<path d="M129.48 11.6235C129.48 11.6235 128.98 12.4235 127.78 13.7235C126.88 14.7235 126.18 15.3235 126.18 15.3235C126.18 15.3235 119.58 15.4235 119.48 15.4235C119.38 15.4235 123.68 11.6235 123.68 11.6235H129.48Z" fill="#2B2E30"/>
</g>
<mask id="mask80_26_445" style="mask-type:luminance" maskUnits="userSpaceOnUse" x="0" y="0" width="131" height="22">
<path d="M130.618 21.4443L130.661 0.34436L0.761532 0.0792119L0.718463 21.1792L130.618 21.4443Z" fill="white"/>
</mask>
<g mask="url(#mask80_26_445)">
<path d="M107.78 14.4235V12.5235C107.78 11.9235 107.28 11.5235 106.78 11.5235H100.78C100.18 11.5235 99.7798 12.0235 99.7798 12.5235V14.4235C99.7798 15.0235 100.28 15.4235 100.78 15.4235H106.78C107.38 15.4235 107.78 15.0235 107.78 14.4235Z" fill="#47494F"/>
</g>
<mask id="mask81_26_445" style="mask-type:luminance" maskUnits="userSpaceOnUse" x="0" y="0" width="131" height="22">
<path d="M130.618 21.4443L130.661 0.34436L0.761532 0.0792119L0.718463 21.1792L130.618 21.4443Z" fill="white"/>
</mask>
<g mask="url(#mask81_26_445)">
<path d="M97.9797 14.8235V5.22349H90.9797V14.8235C90.9797 15.2235 91.2797 15.4235 91.5797 15.4235H97.2797C97.6797 15.4235 97.9797 15.1235 97.9797 14.8235Z" fill="#47494F"/>
</g>
<mask id="mask82_26_445" style="mask-type:luminance" maskUnits="userSpaceOnUse" x="0" y="0" width="131" height="22">
<path d="M130.618 21.4443L130.661 0.34436L0.761532 0.0792119L0.718463 21.1792L130.618 21.4443Z" fill="white"/>
</mask>
<g mask="url(#mask82_26_445)">
<path d="M97.1798 15.2235C97.4798 15.2235 97.7798 14.9235 97.7798 14.6235V5.22351H91.2798V14.6235C91.2798 14.9235 91.5798 15.2235 91.8798 15.2235H97.1798Z" fill="#D3E1EA"/>
</g>
<mask id="mask83_26_445" style="mask-type:luminance" maskUnits="userSpaceOnUse" x="0" y="0" width="131" height="22">
<path d="M130.618 21.4443L130.661 0.34436L0.761532 0.0792119L0.718463 21.1792L130.618 21.4443Z" fill="white"/>
</mask>
<g mask="url(#mask83_26_445)">
<path d="M96.9797 14.0235V10.2235C96.9797 10.0235 96.7797 9.7235 96.4797 9.7235H95.7797C95.5797 9.7235 95.2797 9.9235 95.2797 10.2235V14.0235C95.3797 14.3235 95.5797 14.5235 95.7797 14.5235H96.4797C96.7797 14.5235 96.9797 14.3235 96.9797 14.0235Z" fill="#2B2E30"/>
</g>
<mask id="mask84_26_445" style="mask-type:luminance" maskUnits="userSpaceOnUse" x="0" y="0" width="131" height="22">
<path d="M130.618 21.4443L130.661 0.34436L0.761532 0.0792119L0.718463 21.1792L130.618 21.4443Z" fill="white"/>
</mask>
<g mask="url(#mask84_26_445)">
<path d="M93.7798 14.0235V10.2235C93.7798 10.0235 93.5798 9.7235 93.2798 9.7235H92.5798C92.3798 9.7235 92.0798 9.9235 92.0798 10.2235V14.0235C92.0798 14.2235 92.2798 14.5235 92.5798 14.5235H93.2798C93.5798 14.5235 93.7798 14.3235 93.7798 14.0235Z" fill="#2B2E30"/>
</g>
<mask id="mask85_26_445" style="mask-type:luminance" maskUnits="userSpaceOnUse" x="0" y="0" width="131" height="22">
<path d="M130.618 21.4443L130.661 0.34436L0.761532 0.0792119L0.718463 21.1792L130.618 21.4443Z" fill="white"/>
</mask>
<g mask="url(#mask85_26_445)">
<path d="M94.3797 5.22349H94.5797V15.3235H94.3797V5.22349Z" fill="#47494F"/>
</g>
<mask id="mask86_26_445" style="mask-type:luminance" maskUnits="userSpaceOnUse" x="0" y="0" width="131" height="22">
<path d="M130.618 21.4443L130.661 0.34436L0.761532 0.0792119L0.718463 21.1792L130.618 21.4443Z" fill="white"/>
</mask>
<g mask="url(#mask86_26_445)">
<path d="M98.2797 8.4235L130.58 8.5235V7.0235L100.08 6.9235L98.2797 8.4235Z" fill="#909AA0"/>
</g>
<mask id="mask87_26_445" style="mask-type:luminance" maskUnits="userSpaceOnUse" x="0" y="0" width="131" height="22">
<path d="M130.618 21.4443L130.661 0.34436L0.761532 0.0792119L0.718463 21.1792L130.618 21.4443Z" fill="white"/>
</mask>
<g mask="url(#mask87_26_445)">
<path d="M69.8798 8.42349H88.0798L90.3798 6.92349H69.8798V8.42349Z" fill="#909AA0"/>
</g>
<mask id="mask88_26_445" style="mask-type:luminance" maskUnits="userSpaceOnUse" x="0" y="0" width="131" height="22">
<path d="M130.618 21.4443L130.661 0.34436L0.761532 0.0792119L0.718463 21.1792L130.618 21.4443Z" fill="white"/>
</mask>
<g mask="url(#mask88_26_445)">
<path opacity="0.24" d="M128.98 9.52351C128.68 10.4235 127.88 10.9235 126.98 10.6235C126.68 10.5235 126.38 10.3235 126.28 10.0235C126.18 9.72351 126.38 9.32351 126.58 9.02351C126.78 8.72351 127.08 8.52351 127.28 8.22351C127.58 7.62351 127.58 7.02351 127.48 6.32351C127.38 5.62351 127.38 4.82351 127.28 4.12351C127.28 3.92351 127.28 3.72351 127.38 3.62351C127.48 3.42351 127.88 3.32351 128.08 3.32351C128.28 3.32351 128.58 3.32351 128.78 3.52351C129.18 3.82351 129.18 4.32351 129.18 4.82351C129.18 5.92351 129.18 6.92351 129.18 8.02351C129.18 8.42351 129.18 9.02351 128.98 9.52351Z" fill="white"/>
</g>
<mask id="mask89_26_445" style="mask-type:luminance" maskUnits="userSpaceOnUse" x="0" y="0" width="131" height="22">
<path d="M130.618 21.4443L130.661 0.34436L0.761532 0.0792119L0.718463 21.1792L130.618 21.4443Z" fill="white"/>
</mask>
<g mask="url(#mask89_26_445)">
<path d="M122.08 2.12349C122.08 3.12349 121.28 3.92349 120.28 3.92349C119.28 3.92349 118.48 3.12349 118.48 2.12349C118.48 1.12349 119.28 0.323492 120.28 0.323492C121.28 0.323492 122.08 1.12349 122.08 2.12349Z" fill="#909AA0"/>
</g>
<mask id="mask90_26_445" style="mask-type:luminance" maskUnits="userSpaceOnUse" x="0" y="0" width="131" height="22">
<path d="M130.618 21.4443L130.661 0.34436L0.761532 0.0792119L0.718463 21.1792L130.618 21.4443Z" fill="white"/>
</mask>
<g mask="url(#mask90_26_445)">
<path d="M120.28 3.42349C121.08 3.42349 121.68 2.82349 121.68 2.02349C121.68 1.22349 121.08 0.623493 120.28 0.623493C119.48 0.623493 118.88 1.22349 118.88 2.02349C118.88 2.82349 119.48 3.42349 120.28 3.42349Z" fill="#646A6B"/>
</g>
<mask id="mask91_26_445" style="mask-type:luminance" maskUnits="userSpaceOnUse" x="0" y="0" width="131" height="22">
<path d="M130.618 21.4443L130.661 0.34436L0.761532 0.0792119L0.718463 21.1792L130.618 21.4443Z" fill="white"/>
</mask>
<g mask="url(#mask91_26_445)">
<path d="M120.78 2.1235C120.78 2.4235 120.58 2.6235 120.28 2.6235C119.98 2.6235 119.78 2.4235 119.78 2.1235C119.78 1.8235 119.98 1.6235 120.28 1.6235C120.48 1.6235 120.78 1.8235 120.78 2.1235Z" fill="#909AA0"/>
</g>
<mask id="mask92_26_445" style="mask-type:luminance" maskUnits="userSpaceOnUse" x="0" y="0" width="131" height="22">
<path d="M130.618 21.4443L130.661 0.34436L0.761532 0.0792119L0.718463 21.1792L130.618 21.4443Z" fill="white"/>
</mask>
<g mask="url(#mask92_26_445)">
<path d="M115.88 3.82349C116.88 3.82349 117.68 3.02349 117.68 2.02349C117.68 1.02349 116.88 0.223488 115.88 0.223488C114.88 0.223488 114.08 1.02349 114.08 2.02349C114.08 3.02349 114.88 3.82349 115.88 3.82349Z" fill="#909AA0"/>
</g>
<mask id="mask93_26_445" style="mask-type:luminance" maskUnits="userSpaceOnUse" x="0" y="0" width="131" height="22">
<path d="M130.618 21.4443L130.661 0.34436L0.761532 0.0792119L0.718463 21.1792L130.618 21.4443Z" fill="white"/>
</mask>
<g mask="url(#mask93_26_445)">
<path d="M115.88 3.42349C116.68 3.42349 117.28 2.82349 117.28 2.02349C117.28 1.22349 116.68 0.623493 115.88 0.623493C115.08 0.623493 114.48 1.22349 114.48 2.02349C114.48 2.82349 115.08 3.42349 115.88 3.42349Z" fill="#646A6B"/>
</g>
<mask id="mask94_26_445" style="mask-type:luminance" maskUnits="userSpaceOnUse" x="0" y="0" width="131" height="22">
<path d="M130.618 21.4443L130.661 0.34436L0.761532 0.0792119L0.718463 21.1792L130.618 21.4443Z" fill="white"/>
</mask>
<g mask="url(#mask94_26_445)">
<path d="M116.38 2.0235C116.38 2.3235 116.18 2.5235 115.88 2.5235C115.58 2.5235 115.38 2.3235 115.38 2.0235C115.38 1.7235 115.58 1.5235 115.88 1.5235C116.18 1.6235 116.38 1.8235 116.38 2.0235Z" fill="#909AA0"/>
</g>
<mask id="mask95_26_445" style="mask-type:luminance" maskUnits="userSpaceOnUse" x="0" y="0" width="131" height="22">
<path d="M130.618 21.4443L130.661 0.34436L0.761532 0.0792119L0.718463 21.1792L130.618 21.4443Z" fill="white"/>
</mask>
<g mask="url(#mask95_26_445)">
<path d="M111.48 3.82349C112.48 3.82349 113.28 3.02349 113.28 2.02349C113.28 1.02349 112.48 0.223488 111.48 0.223488C110.48 0.223488 109.68 1.02349 109.68 2.02349C109.68 3.02349 110.48 3.82349 111.48 3.82349Z" fill="#909AA0"/>
</g>
<mask id="mask96_26_445" style="mask-type:luminance" maskUnits="userSpaceOnUse" x="0" y="0" width="131" height="22">
<path d="M130.618 21.4443L130.661 0.34436L0.761532 0.0792119L0.718463 21.1792L130.618 21.4443Z" fill="white"/>
</mask>
<g mask="url(#mask96_26_445)">
<path d="M111.48 3.42349C112.28 3.42349 112.88 2.82349 112.88 2.02349C112.88 1.22349 112.28 0.623493 111.48 0.623493C110.68 0.623493 110.08 1.22349 110.08 2.02349C110.18 2.82349 110.78 3.42349 111.48 3.42349Z" fill="#646A6B"/>
</g>
<mask id="mask97_26_445" style="mask-type:luminance" maskUnits="userSpaceOnUse" x="0" y="0" width="131" height="22">
<path d="M130.618 21.4443L130.661 0.34436L0.761532 0.0792119L0.718463 21.1792L130.618 21.4443Z" fill="white"/>
</mask>
<g mask="url(#mask97_26_445)">
<path d="M111.98 2.0235C111.98 2.3235 111.78 2.5235 111.48 2.5235C111.18 2.5235 110.98 2.3235 110.98 2.0235C110.98 1.7235 111.18 1.5235 111.48 1.5235C111.78 1.5235 111.98 1.8235 111.98 2.0235Z" fill="#909AA0"/>
</g>
<mask id="mask98_26_445" style="mask-type:luminance" maskUnits="userSpaceOnUse" x="0" y="0" width="131" height="22">
<path d="M130.618 21.4443L130.661 0.34436L0.761532 0.0792119L0.718463 21.1792L130.618 21.4443Z" fill="white"/>
</mask>
<g mask="url(#mask98_26_445)">
<path d="M108.18 1.82349H108.78L109.18 2.52349H115.18H116.78H122.78L123.28 1.82349H123.88L123.48 2.52349L123.08 4.42349H116.78H115.18H108.88L108.38 2.52349L108.18 1.82349Z" fill="#2B2E30"/>
</g>
<mask id="mask99_26_445" style="mask-type:luminance" maskUnits="userSpaceOnUse" x="0" y="0" width="131" height="22">
<path d="M130.618 21.4443L130.661 0.34436L0.761532 0.0792119L0.718463 21.1792L130.618 21.4443Z" fill="white"/>
</mask>
<g mask="url(#mask99_26_445)">
<path d="M83.8798 2.02349C83.8798 3.02349 83.0798 3.82349 82.0798 3.82349C81.0798 3.82349 80.2798 3.02349 80.2798 2.02349C80.2798 1.02349 81.0798 0.223488 82.0798 0.223488C83.0798 0.223488 83.8798 1.02349 83.8798 2.02349Z" fill="#909AA0"/>
</g>
<mask id="mask100_26_445" style="mask-type:luminance" maskUnits="userSpaceOnUse" x="0" y="0" width="131" height="22">
<path d="M130.618 21.4443L130.661 0.34436L0.761532 0.0792119L0.718463 21.1792L130.618 21.4443Z" fill="white"/>
</mask>
<g mask="url(#mask100_26_445)">
<path d="M82.0797 3.42349C82.8797 3.42349 83.4797 2.82349 83.4797 2.02349C83.4797 1.22349 82.8797 0.623493 82.0797 0.623493C81.2797 0.623493 80.6797 1.22349 80.6797 2.02349C80.7797 2.72349 81.3797 3.42349 82.0797 3.42349Z" fill="#646A6B"/>
</g>
<mask id="mask101_26_445" style="mask-type:luminance" maskUnits="userSpaceOnUse" x="0" y="0" width="131" height="22">
<path d="M130.618 21.4443L130.661 0.34436L0.761532 0.0792119L0.718463 21.1792L130.618 21.4443Z" fill="white"/>
</mask>
<g mask="url(#mask101_26_445)">
<path d="M82.5797 2.0235C82.5797 2.3235 82.3797 2.5235 82.0797 2.5235C81.7797 2.5235 81.5797 2.3235 81.5797 2.0235C81.5797 1.7235 81.7797 1.5235 82.0797 1.5235C82.3797 1.5235 82.5797 1.7235 82.5797 2.0235Z" fill="#909AA0"/>
</g>
<mask id="mask102_26_445" style="mask-type:luminance" maskUnits="userSpaceOnUse" x="0" y="0" width="131" height="22">
<path d="M130.618 21.4443L130.661 0.34436L0.761532 0.0792119L0.718463 21.1792L130.618 21.4443Z" fill="white"/>
</mask>
<g mask="url(#mask102_26_445)">
<path d="M77.7797 3.82349C78.7797 3.82349 79.5797 3.02349 79.5797 2.02349C79.5797 1.02349 78.7797 0.223488 77.7797 0.223488C76.7797 0.223488 75.9797 1.02349 75.9797 2.02349C75.9797 3.02349 76.7797 3.82349 77.7797 3.82349Z" fill="#909AA0"/>
</g>
<mask id="mask103_26_445" style="mask-type:luminance" maskUnits="userSpaceOnUse" x="0" y="0" width="131" height="22">
<path d="M130.618 21.4443L130.661 0.34436L0.761532 0.0792119L0.718463 21.1792L130.618 21.4443Z" fill="white"/>
</mask>
<g mask="url(#mask103_26_445)">
<path d="M77.7797 3.32349C78.5797 3.32349 79.1797 2.72349 79.1797 1.92349C79.1797 1.12349 78.5797 0.523487 77.7797 0.523487C76.9797 0.523487 76.3797 1.12349 76.3797 1.92349C76.3797 2.72349 76.9797 3.32349 77.7797 3.32349Z" fill="#646A6B"/>
</g>
<mask id="mask104_26_445" style="mask-type:luminance" maskUnits="userSpaceOnUse" x="0" y="0" width="131" height="22">
<path d="M130.618 21.4443L130.661 0.34436L0.761532 0.0792119L0.718463 21.1792L130.618 21.4443Z" fill="white"/>
</mask>
<g mask="url(#mask104_26_445)">
<path d="M78.2798 2.0235C78.2798 2.3235 78.0798 2.5235 77.7798 2.5235C77.4798 2.5235 77.2798 2.3235 77.2798 2.0235C77.2798 1.7235 77.4798 1.5235 77.7798 1.5235C77.9798 1.5235 78.2798 1.7235 78.2798 2.0235Z" fill="#909AA0"/>
</g>
<mask id="mask105_26_445" style="mask-type:luminance" maskUnits="userSpaceOnUse" x="0" y="0" width="131" height="22">
<path d="M130.618 21.4443L130.661 0.34436L0.761532 0.0792119L0.718463 21.1792L130.618 21.4443Z" fill="white"/>
</mask>
<g mask="url(#mask105_26_445)">
<path d="M73.3797 3.82349C74.3797 3.82349 75.1797 3.02349 75.1797 2.02349C75.1797 1.02349 74.3797 0.223488 73.3797 0.223488C72.3797 0.223488 71.5797 1.02349 71.5797 2.02349C71.5797 2.92349 72.3797 3.82349 73.3797 3.82349Z" fill="#909AA0"/>
</g>
<mask id="mask106_26_445" style="mask-type:luminance" maskUnits="userSpaceOnUse" x="0" y="0" width="131" height="22">
<path d="M130.618 21.4443L130.661 0.34436L0.761532 0.0792119L0.718463 21.1792L130.618 21.4443Z" fill="white"/>
</mask>
<g mask="url(#mask106_26_445)">
<path d="M73.3798 3.32349C74.1798 3.32349 74.7798 2.72349 74.7798 1.92349C74.7798 1.12349 74.1798 0.523487 73.3798 0.523487C72.5798 0.523487 71.9798 1.12349 71.9798 1.92349C71.9798 2.72349 72.5798 3.32349 73.3798 3.32349Z" fill="#646A6B"/>
</g>
<mask id="mask107_26_445" style="mask-type:luminance" maskUnits="userSpaceOnUse" x="0" y="0" width="131" height="22">
<path d="M130.618 21.4443L130.661 0.34436L0.761532 0.0792119L0.718463 21.1792L130.618 21.4443Z" fill="white"/>
</mask>
<g mask="url(#mask107_26_445)">
<path d="M73.8798 2.0235C73.8798 2.3235 73.6798 2.5235 73.3798 2.5235C73.0798 2.5235 72.8798 2.3235 72.8798 2.0235C72.8798 1.7235 73.0798 1.5235 73.3798 1.5235C73.6798 1.5235 73.8798 1.7235 73.8798 2.0235Z" fill="#909AA0"/>
</g>
<mask id="mask108_26_445" style="mask-type:luminance" maskUnits="userSpaceOnUse" x="0" y="0" width="131" height="22">
<path d="M130.618 21.4443L130.661 0.34436L0.761532 0.0792119L0.718463 21.1792L130.618 21.4443Z" fill="white"/>
</mask>
<g mask="url(#mask108_26_445)">
<path d="M69.9798 1.72349H70.5798L71.0798 2.42349H77.0798H78.6798H84.6798L85.1798 1.72349H85.7798L85.5798 2.42349L85.1798 4.32349H78.8798H77.2798H70.9798L70.5798 2.42349L69.9798 1.72349Z" fill="#2B2E30"/>
</g>
<mask id="mask109_26_445" style="mask-type:luminance" maskUnits="userSpaceOnUse" x="0" y="0" width="131" height="22">
<path d="M130.618 21.4443L130.661 0.34436L0.761532 0.0792119L0.718463 21.1792L130.618 21.4443Z" fill="white"/>
</mask>
<g mask="url(#mask109_26_445)">
<path d="M109.88 14.4235V12.5235C109.88 11.9235 110.38 11.5235 110.88 11.5235H116.88C117.48 11.5235 117.88 12.0235 117.88 12.5235V14.4235C117.88 15.0235 117.38 15.4235 116.88 15.4235H110.88C110.38 15.4235 109.88 15.0235 109.88 14.4235Z" fill="#47494F"/>
</g>
<mask id="mask110_26_445" style="mask-type:luminance" maskUnits="userSpaceOnUse" x="0" y="0" width="131" height="22">
<path d="M130.618 21.4443L130.661 0.34436L0.761532 0.0792119L0.718463 21.1792L130.618 21.4443Z" fill="white"/>
</mask>
<g mask="url(#mask110_26_445)">
<path d="M117.68 14.3235V12.7235C117.68 12.2235 117.28 11.8235 116.78 11.8235H111.28C110.78 11.8235 110.38 12.2235 110.38 12.7235V14.3235C110.38 14.8235 110.78 15.2235 111.28 15.2235H116.78C117.18 15.3235 117.58 14.9235 117.68 14.3235Z" fill="#2B2E30"/>
</g>
<mask id="mask111_26_445" style="mask-type:luminance" maskUnits="userSpaceOnUse" x="0" y="0" width="131" height="22">
<path d="M130.618 21.4443L130.661 0.34436L0.761532 0.0792119L0.718463 21.1792L130.618 21.4443Z" fill="white"/>
</mask>
<g mask="url(#mask111_26_445)">
<path opacity="0.12" d="M115.08 15.3235L117.68 12.6235V13.2235L115.78 15.3235H115.08Z" fill="white"/>
</g>
<mask id="mask112_26_445" style="mask-type:luminance" maskUnits="userSpaceOnUse" x="0" y="0" width="131" height="22">
<path d="M130.618 21.4443L130.661 0.34436L0.761532 0.0792119L0.718463 21.1792L130.618 21.4443Z" fill="white"/>
</mask>
<g mask="url(#mask112_26_445)">
<path opacity="0.12" d="M115.88 11.8235H114.18C114.08 11.8235 111.68 15.3235 111.68 15.3235H112.78L115.88 11.8235Z" fill="white"/>
</g>
<mask id="mask113_26_445" style="mask-type:luminance" maskUnits="userSpaceOnUse" x="0" y="0" width="131" height="22">
<path d="M130.618 21.4443L130.661 0.34436L0.761532 0.0792119L0.718463 21.1792L130.618 21.4443Z" fill="white"/>
</mask>
<g mask="url(#mask113_26_445)">
<path opacity="0.12" d="M112.58 11.8235H111.48L110.18 13.5235V14.1235C110.28 14.1235 112.58 11.8235 112.58 11.8235Z" fill="white"/>
</g>
<mask id="mask114_26_445" style="mask-type:luminance" maskUnits="userSpaceOnUse" x="0" y="0" width="131" height="22">
<path d="M130.618 21.4443L130.661 0.34436L0.761532 0.0792119L0.718463 21.1792L130.618 21.4443Z" fill="white"/>
</mask>
<g mask="url(#mask114_26_445)">
<path d="M107.78 14.4235V12.5235C107.78 11.9235 107.28 11.5235 106.78 11.5235H100.78C100.18 11.5235 99.7798 12.0235 99.7798 12.5235V14.4235C99.7798 15.0235 100.28 15.4235 100.78 15.4235H106.78C107.38 15.4235 107.78 15.0235 107.78 14.4235Z" fill="#47494F"/>
</g>
<mask id="mask115_26_445" style="mask-type:luminance" maskUnits="userSpaceOnUse" x="0" y="0" width="131" height="22">
<path d="M130.618 21.4443L130.661 0.34436L0.761532 0.0792119L0.718463 21.1792L130.618 21.4443Z" fill="white"/>
</mask>
<g mask="url(#mask115_26_445)">
<path d="M100.08 14.3235V12.7235C100.08 12.2235 100.48 11.8235 100.98 11.8235H106.48C106.98 11.8235 107.38 12.2235 107.38 12.7235V14.3235C107.38 14.8235 106.98 15.2235 106.48 15.2235H100.98C100.58 15.2235 100.08 14.8235 100.08 14.3235Z" fill="#2B2E30"/>
</g>
<mask id="mask116_26_445" style="mask-type:luminance" maskUnits="userSpaceOnUse" x="0" y="0" width="131" height="22">
<path d="M130.618 21.4443L130.661 0.34436L0.761532 0.0792119L0.718463 21.1792L130.618 21.4443Z" fill="white"/>
</mask>
<g mask="url(#mask116_26_445)">
<path opacity="0.12" d="M104.98 15.2235L107.48 12.5235V13.1235L105.58 15.2235H104.98Z" fill="white"/>
</g>
<mask id="mask117_26_445" style="mask-type:luminance" maskUnits="userSpaceOnUse" x="0" y="0" width="131" height="22">
<path d="M130.618 21.4443L130.661 0.34436L0.761532 0.0792119L0.718463 21.1792L130.618 21.4443Z" fill="white"/>
</mask>
<g mask="url(#mask117_26_445)">
<path opacity="0.12" d="M105.78 11.7235H104.08C103.98 11.7235 101.58 15.2235 101.58 15.2235H102.68L105.78 11.7235Z" fill="white"/>
</g>
<mask id="mask118_26_445" style="mask-type:luminance" maskUnits="userSpaceOnUse" x="0" y="0" width="131" height="22">
<path d="M130.618 21.4443L130.661 0.34436L0.761532 0.0792119L0.718463 21.1792L130.618 21.4443Z" fill="white"/>
</mask>
<g mask="url(#mask118_26_445)">
<path opacity="0.12" d="M101.38 11.7235L100.08 13.4235V14.0235L102.48 11.7235H101.38Z" fill="white"/>
</g>
<mask id="mask119_26_445" style="mask-type:luminance" maskUnits="userSpaceOnUse" x="0" y="0" width="131" height="22">
<path d="M130.618 21.4443L130.661 0.34436L0.761532 0.0792119L0.718463 21.1792L130.618 21.4443Z" fill="white"/>
</mask>
<g mask="url(#mask119_26_445)">
<path d="M89.4797 14.4235V12.5235C89.4797 11.9235 88.9797 11.5235 88.4797 11.5235H82.4797C81.8797 11.5235 81.4797 12.0235 81.4797 12.5235V14.4235C81.4797 15.0235 81.9797 15.4235 82.4797 15.4235H88.4797C88.9797 15.4235 89.4797 14.9235 89.4797 14.4235Z" fill="#47494F"/>
</g>
<mask id="mask120_26_445" style="mask-type:luminance" maskUnits="userSpaceOnUse" x="0" y="0" width="131" height="22">
<path d="M130.618 21.4443L130.661 0.34436L0.761532 0.0792119L0.718463 21.1792L130.618 21.4443Z" fill="white"/>
</mask>
<g mask="url(#mask120_26_445)">
<path d="M81.7797 14.3235V12.7235C81.7797 12.2235 82.1797 11.8235 82.6797 11.8235H88.1797C88.6797 11.8235 89.0797 12.2235 89.0797 12.7235V14.3235C89.0797 14.8235 88.6797 15.2235 88.1797 15.2235H82.6797C82.1797 15.2235 81.7797 14.8235 81.7797 14.3235Z" fill="#2B2E30"/>
</g>
<mask id="mask121_26_445" style="mask-type:luminance" maskUnits="userSpaceOnUse" x="0" y="0" width="131" height="22">
<path d="M130.618 21.4443L130.661 0.34436L0.761532 0.0792119L0.718463 21.1792L130.618 21.4443Z" fill="white"/>
</mask>
<g mask="url(#mask121_26_445)">
<path opacity="0.12" d="M86.5797 15.2235L89.1797 12.5235V13.1235L87.2797 15.2235H86.5797Z" fill="white"/>
</g>
<mask id="mask122_26_445" style="mask-type:luminance" maskUnits="userSpaceOnUse" x="0" y="0" width="131" height="22">
<path d="M130.618 21.4443L130.661 0.34436L0.761532 0.0792119L0.718463 21.1792L130.618 21.4443Z" fill="white"/>
</mask>
<g mask="url(#mask122_26_445)">
<path opacity="0.12" d="M87.3798 11.7235H85.6798C85.5798 11.7235 83.1798 15.2235 83.1798 15.2235H84.2798L87.3798 11.7235Z" fill="white"/>
</g>
<mask id="mask123_26_445" style="mask-type:luminance" maskUnits="userSpaceOnUse" x="0" y="0" width="131" height="22">
<path d="M130.618 21.4443L130.661 0.34436L0.761532 0.0792119L0.718463 21.1792L130.618 21.4443Z" fill="white"/>
</mask>
<g mask="url(#mask123_26_445)">
<path opacity="0.12" d="M84.1797 11.7235H83.0797L81.7797 13.4235V14.0235C81.7797 14.0235 84.0797 11.7235 84.1797 11.7235Z" fill="white"/>
</g>
<mask id="mask124_26_445" style="mask-type:luminance" maskUnits="userSpaceOnUse" x="0" y="0" width="131" height="22">
<path d="M130.618 21.4443L130.661 0.34436L0.761532 0.0792119L0.718463 21.1792L130.618 21.4443Z" fill="white"/>
</mask>
<g mask="url(#mask124_26_445)">
<path d="M79.3798 14.3235V12.4235C79.3798 11.8235 78.8798 11.4235 78.3798 11.4235H72.3798C71.7798 11.4235 71.3798 11.9235 71.3798 12.4235V14.3235C71.3798 14.9235 71.8798 15.3235 72.3798 15.3235H78.3798C78.8798 15.3235 79.3798 14.9235 79.3798 14.3235Z" fill="#47494F"/>
</g>
<mask id="mask125_26_445" style="mask-type:luminance" maskUnits="userSpaceOnUse" x="0" y="0" width="131" height="22">
<path d="M130.618 21.4443L130.661 0.34436L0.761532 0.0792119L0.718463 21.1792L130.618 21.4443Z" fill="white"/>
</mask>
<g mask="url(#mask125_26_445)">
<path d="M71.6797 14.2235V12.6235C71.6797 12.1235 72.0797 11.7235 72.5797 11.7235H78.0797C78.5797 11.7235 78.9797 12.1235 78.9797 12.6235V14.2235C78.9797 14.7235 78.5797 15.1235 78.0797 15.1235H72.5797C72.0797 15.1235 71.6797 14.7235 71.6797 14.2235Z" fill="#2B2E30"/>
</g>
<mask id="mask126_26_445" style="mask-type:luminance" maskUnits="userSpaceOnUse" x="0" y="0" width="131" height="22">
<path d="M130.618 21.4443L130.661 0.34436L0.761532 0.0792119L0.718463 21.1792L130.618 21.4443Z" fill="white"/>
</mask>
<g mask="url(#mask126_26_445)">
<path opacity="0.12" d="M76.4797 15.2235L78.9797 12.5235V13.1235L77.0797 15.2235H76.4797Z" fill="white"/>
</g>
<mask id="mask127_26_445" style="mask-type:luminance" maskUnits="userSpaceOnUse" x="0" y="0" width="131" height="22">
<path d="M130.618 21.4443L130.661 0.34436L0.761532 0.0792119L0.718463 21.1792L130.618 21.4443Z" fill="white"/>
</mask>
<g mask="url(#mask127_26_445)">
<path opacity="0.12" d="M77.2798 11.7235H75.5798C75.4798 11.7235 73.0798 15.2235 73.0798 15.2235H74.1798L77.2798 11.7235Z" fill="white"/>
</g>
<mask id="mask128_26_445" style="mask-type:luminance" maskUnits="userSpaceOnUse" x="0" y="0" width="131" height="22">
<path d="M130.618 21.4443L130.661 0.34436L0.761532 0.0792119L0.718463 21.1792L130.618 21.4443Z" fill="white"/>
</mask>
<g mask="url(#mask128_26_445)">
<path opacity="0.12" d="M73.9797 11.7235H72.8797L71.5797 13.4235V14.0235C71.6797 14.0235 73.9797 11.7235 73.9797 11.7235Z" fill="white"/>
</g>
<mask id="mask129_26_445" style="mask-type:luminance" maskUnits="userSpaceOnUse" x="0" y="0" width="131" height="22">
<path d="M130.618 21.4443L130.661 0.34436L0.761532 0.0792119L0.718463 21.1792L130.618 21.4443Z" fill="white"/>
</mask>
<g mask="url(#mask129_26_445)">
<path opacity="0.12" d="M129.18 12.1235L129.58 11.6235H128.68C128.68 11.6235 123.68 15.4235 123.58 15.4235H124.48L129.18 12.1235Z" fill="white"/>
</g>
<mask id="mask130_26_445" style="mask-type:luminance" maskUnits="userSpaceOnUse" x="0" y="0" width="131" height="22">
<path d="M130.618 21.4443L130.661 0.34436L0.761532 0.0792119L0.718463 21.1792L130.618 21.4443Z" fill="white"/>
</mask>
<g mask="url(#mask130_26_445)">
<path opacity="0.27" d="M126.78 11.6235H124.38C124.38 11.6235 119.78 15.4235 119.68 15.4235H120.78L126.78 11.6235Z" fill="white"/>
</g>
<mask id="mask131_26_445" style="mask-type:luminance" maskUnits="userSpaceOnUse" x="0" y="0" width="131" height="22">
<path d="M130.618 21.4443L130.661 0.34436L0.761532 0.0792119L0.718463 21.1792L130.618 21.4443Z" fill="white"/>
</mask>
<g mask="url(#mask131_26_445)">
<path opacity="0.24" d="M104.78 19.3235C106.18 19.3235 107.68 19.3235 109.08 19.3235C111.68 19.3235 114.28 19.4235 116.78 19.4235C117.38 19.4235 118.08 19.4235 118.68 19.4235C119.18 19.4235 120.08 19.2235 120.58 19.4235C121.08 19.6235 120.88 20.0235 120.48 20.2235C119.98 20.4235 119.48 20.4235 118.88 20.4235C113.68 20.3235 108.58 19.7235 103.38 20.1235C103.18 20.1235 102.98 20.1235 102.88 20.0235C102.68 19.9235 102.58 19.7235 102.68 19.5235C102.78 19.4235 102.88 19.4235 102.98 19.3235C103.68 19.3235 104.18 19.3235 104.78 19.3235Z" fill="white"/>
</g>
<mask id="mask132_26_445" style="mask-type:luminance" maskUnits="userSpaceOnUse" x="0" y="0" width="131" height="22">
<path d="M130.618 21.4443L130.661 0.34436L0.761532 0.0792119L0.718463 21.1792L130.618 21.4443Z" fill="white"/>
</mask>
<g mask="url(#mask132_26_445)">
<path opacity="0.24" d="M100.78 19.4235C101.18 19.4235 101.58 19.8235 101.08 20.0235C100.88 20.1235 100.48 20.0235 100.28 20.0235C99.9798 20.0235 99.6798 20.0235 99.2798 20.0235C97.9798 20.0235 96.6798 20.0235 95.4798 20.0235C95.3798 20.0235 95.1798 20.0235 95.0798 19.9235C94.9798 19.8235 94.8798 19.6235 94.9798 19.5235C95.0798 19.5235 95.1798 19.5235 95.1798 19.5235C95.9798 19.3235 96.7798 19.3235 97.5798 19.3235C98.6798 19.3235 99.6798 19.3235 100.78 19.4235Z" fill="white"/>
</g>
<mask id="mask133_26_445" style="mask-type:luminance" maskUnits="userSpaceOnUse" x="0" y="0" width="131" height="22">
<path d="M130.618 21.4443L130.661 0.34436L0.761532 0.0792119L0.718463 21.1792L130.618 21.4443Z" fill="white"/>
</mask>
<g mask="url(#mask133_26_445)">
<path d="M107.98 10.3235V10.1235H106.18C106.08 10.1235 105.88 10.1235 105.78 10.0235C105.68 9.92349 105.68 9.72349 105.68 9.62349V7.82349C105.68 7.72349 105.68 7.52349 105.78 7.42349C105.88 7.32349 106.08 7.32349 106.18 7.32349H106.98C107.08 7.32349 107.28 7.32349 107.38 7.52349C107.48 7.72349 107.38 7.82349 107.28 7.92349L106.08 9.42349H107.88L108.58 8.52349C108.68 8.32349 108.78 8.22349 108.78 8.02349C108.78 7.82349 108.68 7.72349 108.58 7.52349L108.38 7.32349C108.18 7.12349 108.08 6.82349 107.78 6.72349C107.58 6.62349 107.28 6.62349 106.88 6.62349H106.08C105.68 6.62349 104.98 6.62349 104.58 7.02349C104.18 7.42349 104.18 8.12349 104.08 8.32349V9.02349C104.08 9.22349 104.08 9.92349 104.48 10.3235C104.88 10.7235 105.58 10.8235 105.98 10.8235H107.18C107.28 10.8235 107.48 10.8235 107.58 10.7235C107.98 10.5235 107.98 10.4235 107.98 10.3235Z" fill="white"/>
<path d="M110.08 9.42349H108.38L110.48 6.62349H112.18L110.08 9.42349Z" fill="white"/>
<path d="M116.98 9.0235C116.98 9.1235 116.98 9.3235 116.88 9.4235C116.78 9.5235 116.58 9.5235 116.48 9.5235H113.58C113.18 9.5235 112.88 9.5235 112.68 9.4235C112.48 9.3235 112.28 9.0235 112.08 8.8235L111.88 8.6235C111.78 8.4235 111.68 8.3235 111.68 8.1235C111.68 7.9235 111.78 7.8235 111.88 7.6235L112.58 6.7235H114.28L113.08 8.2235C112.98 8.3235 112.88 8.5235 112.98 8.6235C113.08 8.8235 113.28 8.8235 113.38 8.8235H114.78V5.3235H116.18V8.8235H116.88L116.98 9.0235Z" fill="white"/>
</g>
</svg>
