<?xml version="1.0" encoding="utf-8"?>
<!-- Generator: Adobe Illustrator 25.0.0, SVG Export Plug-In . SVG Version: 6.00 Build 0)  -->
<svg version="1.1" id="Слой_1" xmlns="http://www.w3.org/2000/svg" xmlns:xlink="http://www.w3.org/1999/xlink" x="0px" y="0px"
	 viewBox="0 0 131 26" style="enable-background:new 0 0 131 26;" xml:space="preserve">
<style type="text/css">
	.st0{clip-path:url(#SVGID_2_);}
	.st1{fill:#2B2E30;}
	.st2{fill:#3A3B3F;}
	.st3{fill:#909AA0;}
	.st4{fill:#646A6B;}
	.st5{fill:#E0524B;}
	.st6{fill:#47494F;}
	.st7{fill:#D3E1EA;}
	.st8{opacity:0.12;fill:#FFFFFF;enable-background:new    ;}
	.st9{opacity:0.24;fill:#FFFFFF;enable-background:new    ;}
	.st10{clip-path:url(#SVGID_4_);}
	.st11{fill:#FFFFFF;filter:url(#Adobe_OpacityMaskFilter);}
	.st12{mask:url(#mask0_55_2692_1_);}
	.st13{fill:#FFFFFF;}
	.st14{fill:#E52713;}
	.st15{opacity:0.27;fill:#FFFFFF;enable-background:new    ;}
	.st16{fill:#FFFFFF;filter:url(#Adobe_OpacityMaskFilter_1_);}
	.st17{mask:url(#mask1_55_2692_1_);}
</style>
<g>
	<defs>
		
			<rect id="SVGID_1_" x="0.8" y="2.2" transform="matrix(1 -2.041178e-03 2.041178e-03 1 -2.596162e-02 0.1342)" width="129.9" height="21.1"/>
	</defs>
	<clipPath id="SVGID_2_">
		<use xlink:href="#SVGID_1_"  style="overflow:visible;"/>
	</clipPath>
	<g class="st0">
		<path class="st1" d="M64.7,2.3l-8.4,0c-0.4,0-0.6,0.3-0.6,0.6l0,0.7l9.7,0l0-0.7C65.3,2.6,65,2.3,64.7,2.3z"/>
		<path class="st1" d="M47.4,2.3l-8.4,0c-0.4,0-0.6,0.3-0.6,0.6l0,0.7l9.7,0l0-0.7C48.1,2.5,47.8,2.3,47.4,2.3z"/>
		<path class="st1" d="M30.2,2.4l-8.4,0c-0.4,0-0.6,0.3-0.6,0.6l0,0.7l9.7,0l0-0.7C30.8,2.7,30.5,2.4,30.2,2.4z"/>
		<path class="st1" d="M12.9,2.4l-8.4,0C4.1,2.4,3.9,2.7,3.9,3l0,0.7l9.7,0l0-0.7C13.6,2.7,13.3,2.4,12.9,2.4z"/>
		<path class="st2" d="M2.5,18l65.7-0.1l0,2L2.5,20.1L2.5,18z"/>
		<path class="st3" d="M63,23.4c-1,0-1.8-0.8-1.8-1.8c0-1,0.8-1.8,1.8-1.8c1,0,1.8,0.8,1.8,1.8C64.8,22.6,63.9,23.4,63,23.4z"/>
		<path class="st4" d="M61.6,21.6c0,0.8,0.6,1.4,1.4,1.4c0.8,0,1.4-0.6,1.4-1.4c0-0.8-0.6-1.4-1.4-1.4
			C62.2,20.2,61.6,20.8,61.6,21.6z"/>
		<path class="st3" d="M62.9,22.1c-0.3,0-0.5-0.2-0.5-0.5c0-0.3,0.2-0.5,0.5-0.5c0.3,0,0.5,0.2,0.5,0.5
			C63.4,21.8,63.2,22.1,62.9,22.1z"/>
		<path class="st3" d="M56.8,21.6c0,1,0.8,1.8,1.8,1.8c1,0,1.8-0.8,1.8-1.8c0-1-0.8-1.8-1.8-1.8C57.6,19.8,56.8,20.6,56.8,21.6z"/>
		<path class="st4" d="M57.2,21.6c0,0.8,0.6,1.4,1.4,1.4c0.8,0,1.4-0.6,1.4-1.4c0-0.8-0.6-1.4-1.4-1.4
			C57.8,20.2,57.2,20.8,57.2,21.6z"/>
		<path class="st3" d="M58.6,22.1c-0.3,0-0.5-0.2-0.5-0.5c0-0.3,0.2-0.5,0.5-0.5c0.3,0,0.5,0.2,0.5,0.5
			C59.1,21.8,58.9,22.1,58.6,22.1z"/>
		<path class="st3" d="M52.4,21.6c0,1,0.8,1.8,1.8,1.8c1,0,1.8-0.8,1.8-1.8c0-1-0.8-1.8-1.8-1.8C53.2,19.8,52.4,20.6,52.4,21.6z"/>
		<path class="st4" d="M52.8,21.6c0,0.8,0.6,1.4,1.4,1.4c0.8,0,1.4-0.6,1.4-1.4c0-0.8-0.6-1.4-1.4-1.4
			C53.4,20.2,52.8,20.8,52.8,21.6z"/>
		<path class="st3" d="M53.7,21.6c0,0.3,0.2,0.5,0.5,0.5c0.3,0,0.5-0.2,0.5-0.5c0-0.3-0.2-0.5-0.5-0.5
			C53.9,21.1,53.7,21.3,53.7,21.6z"/>
		<path class="st1" d="M51,21.1l0.4-1.9l6.3,0l1.6,0l6.3,0l0.4,1.9l0.2,0.7l-0.6,0l-0.5-0.7l-6,0l-1.6,0l-6,0l-0.5,0.7l-0.6,0
			L51,21.1z"/>
		<path class="st3" d="M16.4,23.5c-1,0-1.8-0.8-1.8-1.8c0-1,0.8-1.8,1.8-1.8c1,0,1.8,0.8,1.8,1.8C18.2,22.6,17.4,23.5,16.4,23.5z"/>
		<path class="st4" d="M15,21.7c0,0.8,0.6,1.4,1.4,1.4c0.8,0,1.4-0.6,1.4-1.4c0-0.8-0.6-1.4-1.4-1.4C15.6,20.3,15,20.9,15,21.7z"/>
		<path class="st3" d="M16.4,22.2c-0.3,0-0.5-0.2-0.5-0.5c0-0.3,0.2-0.5,0.5-0.5c0.3,0,0.5,0.2,0.5,0.5
			C16.9,21.9,16.7,22.2,16.4,22.2z"/>
		<path class="st3" d="M10.2,21.7c0,1,0.8,1.8,1.8,1.8c1,0,1.8-0.8,1.8-1.8c0-1-0.8-1.8-1.8-1.8C11.1,19.9,10.2,20.7,10.2,21.7z"/>
		<path class="st4" d="M10.7,21.7c0,0.8,0.6,1.4,1.4,1.4c0.8,0,1.4-0.6,1.4-1.4c0-0.8-0.6-1.4-1.4-1.4
			C11.3,20.3,10.7,20.9,10.7,21.7z"/>
		<path class="st3" d="M12.1,22.2c-0.3,0-0.5-0.2-0.5-0.5c0-0.3,0.2-0.5,0.5-0.5c0.3,0,0.5,0.2,0.5,0.5S12.3,22.2,12.1,22.2z"/>
		<path class="st3" d="M5.9,21.7c0,1,0.8,1.8,1.8,1.8c1,0,1.8-0.8,1.8-1.8c0-1-0.8-1.8-1.8-1.8C6.7,19.9,5.9,20.7,5.9,21.7z"/>
		<path class="st4" d="M6.3,21.7c0,0.8,0.6,1.4,1.4,1.4c0.8,0,1.4-0.6,1.4-1.4c0-0.8-0.6-1.4-1.4-1.4C6.9,20.3,6.3,20.9,6.3,21.7z"
			/>
		<path class="st3" d="M7.7,22.2c-0.3,0-0.5-0.2-0.5-0.5c0-0.3,0.2-0.5,0.5-0.5c0.3,0,0.5,0.2,0.5,0.5C8.2,21.9,8,22.2,7.7,22.2z"/>
		<path class="st1" d="M4.5,21.2l0.4-1.9l6.3,0l1.6,0l6.3,0l0.4,1.9l0.2,0.7l-0.6,0l-0.5-0.7l-6,0l-1.6,0l-6,0l-0.5,0.7l-0.6,0
			L4.5,21.2z"/>
		<path class="st2" d="M68.1,5.5l1.8,0l0,12.1l-1.8,0L68.1,5.5z"/>
		<path class="st5" d="M2.5,3.2l65.7-0.1l0,15.3L2.5,18.5L2.5,3.2z"/>
		<path class="st6" d="M2.5,3.2l65.7-0.1l0,3.3L2.5,6.5L2.5,3.2z"/>
		<path class="st3" d="M2.5,6.5l65.7-0.1l0,6.8L2.5,13.3L2.5,6.5z"/>
		<path class="st6" d="M56.9,8.1l-5.7,0c-0.4,0-0.6,0.3-0.6,0.6l0,9.6l7,0l0-9.6C57.6,8.4,57.3,8.1,56.9,8.1z"/>
		<path class="st7" d="M56.7,8.3l-5.3,0c-0.3,0-0.6,0.3-0.6,0.6l0,9.4l6.5,0l0-9.4C57.3,8.6,57.1,8.3,56.7,8.3z"/>
		<path class="st1" d="M56.1,9.1l-0.7,0c-0.3,0-0.5,0.2-0.5,0.5l0,3.8c0,0.2,0.2,0.5,0.5,0.5l0.7,0c0.3,0,0.5-0.2,0.5-0.5l0-3.8
			C56.6,9.3,56.4,9.1,56.1,9.1z"/>
		<path class="st1" d="M52.9,9.1l-0.7,0c-0.2,0-0.5,0.2-0.5,0.5l0,3.8c0,0.2,0.2,0.5,0.5,0.5l0.7,0c0.2,0,0.5-0.2,0.5-0.5l0-3.8
			C53.4,9.3,53.2,9.1,52.9,9.1z"/>
		<path class="st6" d="M53.9,8.2l0.2,0l0,10.1l-0.2,0L53.9,8.2z"/>
		<path class="st6" d="M19.2,8.2l-5.7,0c-0.4,0-0.6,0.3-0.6,0.6l0,9.6l7,0l0-9.6C19.8,8.5,19.5,8.2,19.2,8.2z"/>
		<path class="st7" d="M19,8.4l-5.3,0C13.3,8.4,13,8.7,13,9l0,9.4l6.5,0l0-9.4C19.6,8.7,19.3,8.4,19,8.4z"/>
		<path class="st1" d="M18.4,9.1l-0.7,0c-0.2,0-0.5,0.2-0.5,0.5l0,3.8c0,0.2,0.2,0.5,0.5,0.5l0.7,0c0.2,0,0.5-0.2,0.5-0.5l0-3.8
			C18.8,9.3,18.6,9.1,18.4,9.1z"/>
		<path class="st1" d="M14.4,9.1l0.7,0c0.3,0,0.5,0.2,0.5,0.5l0,3.8c0,0.2-0.2,0.5-0.5,0.5l-0.7,0c-0.3,0-0.5-0.2-0.5-0.5l0-3.8
			C13.9,9.3,14.1,9.1,14.4,9.1z"/>
		<path class="st6" d="M16.1,8.3l0.2,0l0,10.1l-0.2,0L16.1,8.3z"/>
		<path class="st6" d="M66.1,8.2l-6,0c-0.6,0-1,0.5-1,1l0,1.9c0,0.6,0.5,1,1,1l6,0c0.6,0,1-0.5,1-1l0-1.9
			C67.1,8.6,66.7,8.2,66.1,8.2z"/>
		<path class="st1" d="M65.9,8.4l-5.5,0c-0.5,0-0.9,0.4-0.9,0.9l0,1.6c0,0.5,0.4,0.9,0.9,0.9l5.5,0c0.5,0,0.9-0.4,0.9-0.9l0-1.6
			C66.8,8.8,66.4,8.4,65.9,8.4z"/>
		<path class="st8" d="M64.9,8.4l1.9,2.1l0,0.6l-2.6-2.7L64.9,8.4z"/>
		<path class="st8" d="M65.1,11.8l-3-3.5l-1.1,0c0,0,2.4,3.5,2.5,3.5L65.1,11.8L65.1,11.8z"/>
		<path class="st8" d="M61.8,11.9c0,0-2.4-2.3-2.4-2.3l0,0.6l1.3,1.7L61.8,11.9L61.8,11.9z"/>
		<path class="st6" d="M10.6,8l-6,0c-0.6,0-1,0.5-1,1l0,1.9c0,0.6,0.5,1,1,1l6,0c0.6,0,1-0.5,1-1l0-1.9C11.6,8.5,11.1,8,10.6,8
			L10.6,8z"/>
		<path class="st1" d="M10.4,8.2l-5.5,0c-0.5,0-0.9,0.4-0.9,0.9l0,1.6c0,0.5,0.4,0.9,0.9,0.9l5.5,0c0.5,0,0.9-0.4,0.9-0.9l0-1.6
			C11.3,8.6,10.9,8.2,10.4,8.2z"/>
		<path class="st8" d="M9.4,8.2l1.9,2.1l0,0.6L8.7,8.2L9.4,8.2z"/>
		<path class="st8" d="M9.5,11.7l-3-3.5l-1.1,0c0,0,2.4,3.5,2.5,3.5L9.5,11.7L9.5,11.7z"/>
		<path class="st8" d="M6.3,11.7c0,0-2.4-2.3-2.4-2.3l0,0.6l1.3,1.7L6.3,11.7L6.3,11.7z"/>
		<path class="st6" d="M48,8.2l-6,0c-0.6,0-1,0.5-1,1l0,1.9c0,0.6,0.5,1,1,1l6,0c0.6,0,1-0.5,1-1l0-1.9C49,8.6,48.5,8.2,48,8.2z"/>
		<path class="st1" d="M47.7,8.3l-5.5,0c-0.5,0-0.9,0.4-0.9,0.9l0,1.6c0,0.5,0.4,0.9,0.9,0.9l5.5,0c0.5,0,0.9-0.4,0.9-0.9l0-1.6
			C48.7,8.7,48.3,8.3,47.7,8.3z"/>
		<path class="st8" d="M46.8,8.3l1.9,2.1l0,0.6l-2.6-2.7L46.8,8.3z"/>
		<path class="st8" d="M46.9,11.8l-3-3.5l-1.1,0c0,0,2.4,3.5,2.5,3.5L46.9,11.8L46.9,11.8z"/>
		<path class="st8" d="M43.7,11.8c0,0-2.4-2.3-2.4-2.3l0,0.6l1.3,1.7L43.7,11.8z"/>
		<path class="st6" d="M31.9,8.2l6,0c0.6,0,1,0.5,1,1l0,1.9c0,0.6-0.5,1-1,1l-6,0c-0.6,0-1-0.5-1-1l0-1.9
			C30.8,8.7,31.3,8.2,31.9,8.2z"/>
		<path class="st1" d="M37.6,8.4l-5.5,0c-0.5,0-0.9,0.4-0.9,0.9l0,1.6c0,0.5,0.4,0.9,0.9,0.9l5.5,0c0.5,0,0.9-0.4,0.9-0.9l0-1.6
			C38.5,8.8,38.1,8.4,37.6,8.4z"/>
		<path class="st8" d="M36.6,8.4l1.9,2.1l0,0.6L36,8.4L36.6,8.4z"/>
		<path class="st8" d="M36.8,11.9l-3-3.5l-1.1,0c0,0,2.4,3.5,2.5,3.5L36.8,11.9L36.8,11.9z"/>
		<path class="st8" d="M33.5,11.9c0,0-2.4-2.3-2.4-2.3l0,0.6l1.3,1.7L33.5,11.9L33.5,11.9z"/>
		<path class="st6" d="M27.9,8.2l-6,0c-0.6,0-1,0.5-1,1l0,1.9c0,0.6,0.5,1,1,1l6,0c0.6,0,1-0.5,1-1l0-1.9C29,8.7,28.5,8.2,27.9,8.2
			L27.9,8.2z"/>
		<path class="st1" d="M22.2,8.4l5.5,0c0.5,0,0.9,0.4,0.9,0.9l0,1.6c0,0.5-0.4,0.9-0.9,0.9l-5.5,0c-0.5,0-0.9-0.4-0.9-0.9l0-1.6
			C21.3,8.8,21.7,8.4,22.2,8.4z"/>
		<path class="st8" d="M26.7,8.4l1.9,2.1l0,0.6l-2.6-2.7L26.7,8.4z"/>
		<path class="st8" d="M26.9,11.9l-3-3.5l-1.1,0c0,0,2.4,3.5,2.5,3.5L26.9,11.9L26.9,11.9z"/>
		<path class="st8" d="M23.6,11.9c0,0-2.4-2.3-2.4-2.3l0,0.6l1.3,1.7L23.6,11.9L23.6,11.9z"/>
		<path class="st3" d="M2.5,16.8l9.1,0l-1.8-1.5l-7.3,0L2.5,16.8z"/>
		<path class="st3" d="M60.9,16.7l7.3,0l0-1.5l-9.1,0L60.9,16.7z"/>
		<path class="st3" d="M28.6,15.2l1.4,0l16.8,0l2.3,1.5l-19.1,0l-1.4,0l-5.9,0L21,15.2L28.6,15.2z"/>
		<path class="st9" d="M45.5,4.6c-0.7,0-1.4,0.1-2.1-0.1c-0.1,0-0.2-0.1-0.3-0.1c-0.1-0.1,0-0.4,0.1-0.5c0.2-0.1,0.3-0.1,0.5-0.1
			c6,0,12,0,17.9-0.1c0.7,0,1.5,0,2.2,0c0.6,0,1.4-0.1,2,0.1c0.3,0.1,0.9,0.4,0.5,0.8c-0.4,0.4-1.6,0-2.1,0c-3-0.2-5.9-0.3-8.9-0.2
			C52.1,4.3,48.8,4.4,45.5,4.6L45.5,4.6z"/>
		<path class="st9" d="M33.6,4.6c-0.9,0-1.7,0-2.5-0.2c-0.1,0-0.2-0.1-0.3-0.2c-0.1-0.2,0-0.4,0.2-0.5c0.2-0.1,0.4-0.1,0.5-0.1
			c1.4,0,2.7,0.2,4.1,0.2c0.6,0,1.2,0,1.9-0.1c0.4,0,4-0.4,3.8,0.4C41,4.7,39.4,4.5,39,4.5c-0.9,0-1.7,0-2.6,0
			C35.5,4.6,34.5,4.6,33.6,4.6L33.6,4.6z"/>
		<g>
			<defs>
				
					<rect id="SVGID_3_" x="33.4" y="7.8" transform="matrix(1.108873e-02 -0.9999 0.9999 1.108873e-02 21.061 51.9287)" width="6.8" height="15.1"/>
			</defs>
			<clipPath id="SVGID_4_">
				<use xlink:href="#SVGID_3_"  style="overflow:visible;"/>
			</clipPath>
			<g class="st10">
				<defs>
					<filter id="Adobe_OpacityMaskFilter" filterUnits="userSpaceOnUse" x="30.3" y="12.5" width="12.6" height="5.5">
						<feColorMatrix  type="matrix" values="1 0 0 0 0  0 1 0 0 0  0 0 1 0 0  0 0 0 1 0"/>
					</filter>
				</defs>
				<mask maskUnits="userSpaceOnUse" x="30.3" y="12.5" width="12.6" height="5.5" id="mask0_55_2692_1_">
					<path class="st11" d="M44.5,12l-15.2-0.2l-0.1,6.8l15.2,0.2L44.5,12z"/>
				</mask>
				<g class="st12">
					<path class="st13" d="M39.3,13l0,0.2l1.8,0c0.1,0,0.3,0,0.4,0.1c0.1,0.1,0.1,0.3,0.1,0.4l0,1.8c0,0.1,0,0.3-0.1,0.4
						s-0.3,0.1-0.4,0.1l-0.8,0c-0.1,0-0.3,0-0.4-0.2c-0.1-0.2,0-0.3,0.1-0.4L41,14l-1.8,0l-0.7,0.9c-0.1,0.2-0.2,0.3-0.2,0.5
						c0,0.2,0.1,0.3,0.2,0.5l0.2,0.2c0.2,0.2,0.3,0.5,0.6,0.6c0.2,0.1,0.5,0.1,0.9,0.1l0.8,0c0.4,0,1.1,0,1.5-0.4
						c0.4-0.4,0.4-1.1,0.5-1.3l0-0.7c0-0.2,0-0.9-0.4-1.3c-0.4-0.4-1.1-0.5-1.5-0.5l-1.2,0c-0.1,0-0.3,0-0.4,0.1
						C39.3,12.8,39.3,12.9,39.3,13z"/>
					<path class="st13" d="M37.2,13.9l1.7,0l-2.1,2.8l-1.7,0L37.2,13.9z"/>
					<path class="st13" d="M30.3,14.3c0-0.1,0-0.3,0.1-0.4c0.1-0.1,0.3-0.1,0.4-0.1l2.9,0c0.4,0,0.7,0,0.9,0.1
						c0.2,0.1,0.4,0.4,0.6,0.6l0.2,0.2c0.1,0.2,0.2,0.3,0.2,0.5c0,0.2-0.1,0.3-0.2,0.5l-0.7,0.9l-1.7,0l1.2-1.5
						c0.1-0.1,0.2-0.3,0.1-0.4c-0.1-0.2-0.3-0.2-0.4-0.2l-1.4,0l0,3.5l-1.4,0l0-3.5l-0.7,0L30.3,14.3"/>
				</g>
			</g>
		</g>
		<path class="st1" d="M116.9,2.3l-8.4,0c-0.4,0-0.6,0.3-0.6,0.6l0,0.7l9.7,0l0-0.7C117.6,2.6,117.3,2.3,116.9,2.3z"/>
		<path class="st1" d="M98.6,2.2l-8.4,0c-0.4,0-0.6,0.3-0.6,0.6l0,0.7l9.7,0l0-0.7C99.3,2.5,99,2.2,98.6,2.2z"/>
		<path class="st1" d="M80.3,2.4l-8.4,0c-0.4,0-0.6,0.3-0.6,0.6l0,0.7l9.7,0l0-0.7C80.9,2.7,80.7,2.4,80.3,2.4z"/>
		<path class="st2" d="M70,17.9l56.8-0.1l0,2L70,19.9L70,17.9z"/>
		<path class="st14" d="M124.8,21.4l5.8,0c0,0,0.2-6.2,0-7.8c-0.2-1.6-9.1-10.5-10.3-10.6C119,2.8,70,3,70,3l0,15.3l52.4-0.1
			c0.9,0,1.7,0.5,2.1,1.4L124.8,21.4z"/>
		<path class="st6" d="M70,3c0,0,49-0.3,50.3-0.1c0,0,0,0,0,0l0,3.5L70,6.5L70,3L70,3z"/>
		<path class="st3" d="M120.3,6.4c0,0,4.8,3.3,5.1,4.7c0.4,1.4-2,2-2,2L70,13.2l0-6.6L120.3,6.4L120.3,6.4z"/>
		<path class="st6" d="M129.8,12.2l-6.3-0.1c0,0-4.6-4.3-4.5-4.3c0.1,0,7.1,0.1,7.1,0.1s0.8,0.7,1.8,1.9
			C129.1,11.2,129.8,12.2,129.8,12.2L129.8,12.2z"/>
		<path class="st1" d="M129.6,11.9l-5.8-0.1c0,0-4.3-3.8-4.2-3.8c0.1,0,6.7,0.1,6.7,0.1s0.7,0.7,1.6,1.6
			C129.1,11.1,129.6,11.9,129.6,11.9L129.6,11.9z"/>
		<path class="st6" d="M106.9,8.1l-6,0c-0.6,0-1,0.5-1,1l0,1.9c0,0.6,0.5,1,1,1l6,0c0.6,0,1-0.5,1-1l0-1.9
			C107.9,8.5,107.4,8.1,106.9,8.1z"/>
		<path class="st6" d="M97.4,8.1l-5.7,0c-0.4,0-0.6,0.3-0.6,0.6l0,9.6l7,0l0-9.6C98.1,8.4,97.8,8.1,97.4,8.1z"/>
		<path class="st7" d="M97.2,8.3l-5.3,0c-0.3,0-0.6,0.3-0.6,0.6l0,9.4l6.5,0l0-9.4C97.8,8.6,97.6,8.3,97.2,8.3L97.2,8.3z"/>
		<path class="st1" d="M96.6,9l-0.7,0c-0.2,0-0.5,0.2-0.5,0.5l0,3.8c0,0.2,0.2,0.5,0.5,0.5l0.7,0c0.2,0,0.5-0.2,0.5-0.5l0-3.8
			C97.1,9.2,96.9,9,96.6,9z"/>
		<path class="st1" d="M93.4,9l-0.7,0c-0.2,0-0.5,0.2-0.5,0.5l0,3.8c0,0.2,0.2,0.5,0.5,0.5l0.7,0c0.2,0,0.5-0.2,0.5-0.5l0-3.8
			C93.8,9.2,93.6,9,93.4,9z"/>
		<path class="st6" d="M94.4,8.2l0.2,0l0,10.1l-0.2,0L94.4,8.2z"/>
		<path class="st3" d="M100.2,16.6l30.5-0.1l0-1.5l-32.3,0.1L100.2,16.6z"/>
		<path class="st3" d="M70,16.7l20.5,0l-2.3-1.5l-18.2,0L70,16.7z"/>
		<path class="st9" d="M129.1,14c0.2,0.5,0.2,1.1,0.2,1.6c0,1.1,0,2.1,0,3.2c0,0.5,0,1-0.4,1.3c-0.2,0.1-0.5,0.2-0.7,0.2
			c-0.3,0-0.6-0.1-0.7-0.3c-0.1-0.2-0.1-0.4-0.1-0.5c0.1-0.7,0.1-1.5,0.2-2.2c0.1-0.6,0.1-1.3-0.2-1.9c-0.2-0.3-0.4-0.6-0.7-0.8
			c-0.2-0.3-0.4-0.6-0.3-1c0.1-0.3,0.4-0.5,0.7-0.6C128,12.5,128.8,13.1,129.1,14L129.1,14z"/>
		<path class="st3" d="M120.3,23.2c-1,0-1.8-0.8-1.8-1.8c0-1,0.8-1.8,1.8-1.8c1,0,1.8,0.8,1.8,1.8S121.3,23.2,120.3,23.2z"/>
		<path class="st4" d="M118.9,21.4c0,0.8,0.6,1.4,1.4,1.4c0.8,0,1.4-0.6,1.4-1.4c0-0.8-0.6-1.4-1.4-1.4
			C119.6,20.1,118.9,20.7,118.9,21.4z"/>
		<path class="st3" d="M120.3,21.9c-0.3,0-0.5-0.2-0.5-0.5c0-0.3,0.2-0.5,0.5-0.5c0.3,0,0.5,0.2,0.5,0.5
			C120.8,21.7,120.6,21.9,120.3,21.9z"/>
		<path class="st3" d="M114.2,21.5c0,1,0.8,1.8,1.8,1.8c1,0,1.8-0.8,1.8-1.8c0-1-0.8-1.8-1.8-1.8C115,19.7,114.2,20.5,114.2,21.5z"
			/>
		<path class="st4" d="M114.6,21.5c0,0.8,0.6,1.4,1.4,1.4c0.8,0,1.4-0.6,1.4-1.4c0-0.8-0.6-1.4-1.4-1.4
			C115.2,20.1,114.6,20.7,114.6,21.5z"/>
		<path class="st3" d="M116,21.9c-0.3,0-0.5-0.2-0.5-0.5c0-0.3,0.2-0.5,0.5-0.5c0.3,0,0.5,0.2,0.5,0.5
			C116.5,21.7,116.2,21.9,116,21.9z"/>
		<path class="st3" d="M109.8,21.5c0,1,0.8,1.8,1.8,1.8c1,0,1.8-0.8,1.8-1.8c0-1-0.8-1.8-1.8-1.8C110.6,19.7,109.8,20.5,109.8,21.5z
			"/>
		<path class="st4" d="M110.2,21.5c0,0.8,0.6,1.4,1.4,1.4c0.8,0,1.4-0.6,1.4-1.4c0-0.8-0.6-1.4-1.4-1.4
			C110.8,20.1,110.2,20.7,110.2,21.5z"/>
		<path class="st3" d="M111.6,22c-0.3,0-0.5-0.2-0.5-0.5c0-0.3,0.2-0.5,0.5-0.5c0.3,0,0.5,0.2,0.5,0.5C112.1,21.7,111.9,22,111.6,22
			z"/>
		<path class="st1" d="M108.4,21l0.4-1.9l6.3,0l1.6,0l6.3,0l0.4,1.9l0.2,0.7l-0.6,0l-0.5-0.7l-6,0l-1.6,0l-6,0l-0.5,0.7l-0.6,0
			L108.4,21z"/>
		<path class="st3" d="M82.2,23.3c-1,0-1.8-0.8-1.8-1.8c0-1,0.8-1.8,1.8-1.8c1,0,1.8,0.8,1.8,1.8S83.2,23.3,82.2,23.3z"/>
		<path class="st4" d="M80.8,21.5c0,0.8,0.6,1.4,1.4,1.4c0.8,0,1.4-0.6,1.4-1.4c0-0.8-0.6-1.4-1.4-1.4
			C81.4,20.1,80.8,20.8,80.8,21.5z"/>
		<path class="st3" d="M82.2,22c-0.3,0-0.5-0.2-0.5-0.5c0-0.3,0.2-0.5,0.5-0.5s0.5,0.2,0.5,0.5S82.5,22,82.2,22z"/>
		<path class="st3" d="M76,21.5c0,1,0.8,1.8,1.8,1.8c1,0,1.8-0.8,1.8-1.8c0-1-0.8-1.8-1.8-1.8C76.8,19.7,76,20.5,76,21.5z"/>
		<path class="st4" d="M76.4,21.5c0,0.8,0.6,1.4,1.4,1.4c0.8,0,1.4-0.6,1.4-1.4c0-0.8-0.6-1.4-1.4-1.4
			C77.1,20.2,76.4,20.8,76.4,21.5z"/>
		<path class="st3" d="M77.8,22c-0.3,0-0.5-0.2-0.5-0.5c0-0.3,0.2-0.5,0.5-0.5c0.3,0,0.5,0.2,0.5,0.5C78.3,21.8,78.1,22,77.8,22z"/>
		<path class="st3" d="M71.7,21.5c0,1,0.8,1.8,1.8,1.8c1,0,1.8-0.8,1.8-1.8c0-1-0.8-1.8-1.8-1.8C72.5,19.7,71.7,20.6,71.7,21.5z"/>
		<path class="st4" d="M72.1,21.5c0,0.8,0.6,1.4,1.4,1.4c0.8,0,1.4-0.6,1.4-1.4c0-0.8-0.6-1.4-1.4-1.4
			C72.7,20.2,72.1,20.8,72.1,21.5z"/>
		<path class="st3" d="M73.5,22c-0.3,0-0.5-0.2-0.5-0.5c0-0.3,0.2-0.5,0.5-0.5s0.5,0.2,0.5,0.5C74,21.8,73.7,22,73.5,22z"/>
		<path class="st1" d="M70.3,21.1l0.4-1.9l6.3,0l1.6,0l6.3,0l0.4,1.9l0.2,0.7l-0.6,0l-0.5-0.7l-6,0l-1.6,0l-6,0l-0.5,0.7l-0.6,0
			L70.3,21.1z"/>
		<path class="st6" d="M111,8.1l6,0c0.6,0,1,0.5,1,1l0,1.9c0,0.6-0.5,1-1,1l-6,0c-0.6,0-1-0.5-1-1l0-1.9C110,8.5,110.5,8.1,111,8.1z
			"/>
		<path class="st1" d="M116.8,8.2l-5.5,0c-0.5,0-0.9,0.4-0.9,0.9l0,1.6c0,0.5,0.4,0.9,0.9,0.9l5.5,0c0.5,0,0.9-0.4,0.9-0.9l0-1.6
			C117.7,8.6,117.3,8.2,116.8,8.2z"/>
		<path class="st8" d="M115.8,8.2l1.9,2.1l0,0.6l-2.6-2.7L115.8,8.2z"/>
		<path class="st8" d="M116,11.7l-3-3.5l-1.1,0c0,0,2.4,3.5,2.5,3.5L116,11.7L116,11.7z"/>
		<path class="st8" d="M112.7,11.7c0,0-2.4-2.3-2.4-2.3l0,0.6l1.3,1.7L112.7,11.7L112.7,11.7z"/>
		<path class="st6" d="M106.9,8.1l-6,0c-0.6,0-1,0.5-1,1l0,1.9c0,0.6,0.5,1,1,1l6,0c0.6,0,1-0.5,1-1l0-1.9
			C107.9,8.5,107.4,8.1,106.9,8.1z"/>
		<path class="st1" d="M101.1,8.3l5.5,0c0.5,0,0.9,0.4,0.9,0.9l0,1.6c0,0.5-0.4,0.9-0.9,0.9l-5.5,0c-0.5,0-0.9-0.4-0.9-0.9l0-1.6
			C100.2,8.7,100.6,8.3,101.1,8.3z"/>
		<path class="st8" d="M105.7,8.3l1.9,2.1l0,0.6L105,8.3L105.7,8.3z"/>
		<path class="st8" d="M105.9,11.8l-3-3.5l-1.1,0c0,0,2.4,3.5,2.5,3.5L105.9,11.8L105.9,11.8z"/>
		<path class="st8" d="M102.6,11.8c0,0-2.4-2.3-2.4-2.3l0,0.6l1.3,1.7L102.6,11.8z"/>
		<path class="st6" d="M88.5,8.1l-6,0c-0.6,0-1,0.5-1,1l0,1.9c0,0.6,0.5,1,1,1l6,0c0.6,0,1-0.5,1-1l0-1.9
			C89.5,8.6,89.1,8.1,88.5,8.1z"/>
		<path class="st1" d="M82.8,8.3l5.5,0c0.5,0,0.9,0.4,0.9,0.9l0,1.6c0,0.5-0.4,0.9-0.9,0.9l-5.5,0c-0.5,0-0.9-0.4-0.9-0.9l0-1.6
			C81.8,8.7,82.2,8.3,82.8,8.3z"/>
		<path class="st8" d="M87.3,8.3l1.9,2.1l0,0.6l-2.6-2.7L87.3,8.3z"/>
		<path class="st8" d="M87.5,11.8l-3-3.5l-1.1,0c0,0,2.4,3.5,2.5,3.5L87.5,11.8L87.5,11.8z"/>
		<path class="st8" d="M84.2,11.8c0,0-2.4-2.3-2.4-2.3l0,0.6l1.3,1.7L84.2,11.8L84.2,11.8z"/>
		<path class="st6" d="M78.4,8.2l-6,0c-0.6,0-1,0.5-1,1l0,1.9c0,0.6,0.5,1,1,1l6,0c0.6,0,1-0.5,1-1l0-1.9C79.4,8.6,79,8.2,78.4,8.2z
			"/>
		<path class="st1" d="M72.6,8.3l5.5,0c0.5,0,0.9,0.4,0.9,0.9l0,1.6c0,0.5-0.4,0.9-0.9,0.9l-5.5,0c-0.5,0-0.9-0.4-0.9-0.9l0-1.6
			C71.7,8.8,72.1,8.4,72.6,8.3z"/>
		<path class="st8" d="M77.2,8.3l1.9,2.1l0,0.6l-2.6-2.7L77.2,8.3z"/>
		<path class="st8" d="M77.4,11.8l-3-3.5l-1.1,0c0,0,2.4,3.5,2.5,3.5L77.4,11.8L77.4,11.8z"/>
		<path class="st8" d="M74.1,11.8c0,0-2.4-2.3-2.4-2.3l0,0.6l1.3,1.7L74.1,11.8L74.1,11.8z"/>
		<path class="st8" d="M129.2,11.4l-4.6-3.2c0,0-1,0-0.9,0c0,0,5.1,3.8,5.1,3.8l0.9,0L129.2,11.4L129.2,11.4z"/>
		<path class="st15" d="M126.8,11.9l-5.9-3.8c0,0-1.1,0-1.1,0c0,0,4.7,3.8,4.7,3.8L126.8,11.9L126.8,11.9z"/>
		<path class="st9" d="M104.9,4.2c-0.6,0-1.1,0-1.7-0.1c-0.1,0-0.3-0.1-0.3-0.2c-0.1-0.2,0-0.4,0.2-0.5c0.2-0.1,0.4-0.1,0.5-0.1
			c5.2,0.4,10.3-0.2,15.5-0.3c0.5,0,1.1,0,1.6,0.2c0.4,0.2,0.6,0.6,0.1,0.8c-0.5,0.2-1.3,0-1.9,0c-0.6,0-1.3,0-1.9,0
			c-2.6,0-5.2,0-7.7,0.1C107.7,4.2,106.3,4.3,104.9,4.2L104.9,4.2z"/>
		<path class="st9" d="M100.8,4.1c-1.1,0-2.1,0-3.2,0.1c-0.8,0-1.6,0-2.4-0.2c-0.1,0-0.1,0-0.2-0.1c-0.1-0.1,0-0.3,0.1-0.4
			c0.1-0.1,0.3-0.1,0.4-0.1c1.3,0,2.6,0,3.8,0c0.3,0,0.6,0,1,0c0.2,0,0.6-0.1,0.8,0C101.7,3.8,101.2,4.1,100.8,4.1L100.8,4.1z"/>
		<defs>
			<filter id="Adobe_OpacityMaskFilter_1_" filterUnits="userSpaceOnUse" x="104.4" y="12.7" width="12.6" height="5.5">
				<feColorMatrix  type="matrix" values="1 0 0 0 0  0 1 0 0 0  0 0 1 0 0  0 0 0 1 0"/>
			</filter>
		</defs>
		<mask maskUnits="userSpaceOnUse" x="104.4" y="12.7" width="12.6" height="5.5" id="mask1_55_2692_1_">
			<path class="st16" d="M118.5,12.2L103.4,12l-0.1,6.8l15.2,0.2L118.5,12.2z"/>
		</mask>
		<g class="st17">
			<path class="st13" d="M113.4,13.2l0,0.2l1.8,0c0.1,0,0.3,0,0.4,0.1c0.1,0.1,0.1,0.3,0.1,0.4l0,1.8c0,0.1,0,0.3-0.1,0.4
				c-0.1,0.1-0.3,0.1-0.4,0.1l-0.8,0c-0.1,0-0.3,0-0.4-0.2c-0.1-0.2,0-0.3,0.1-0.4l1.2-1.5l-1.8,0l-0.7,0.9
				c-0.1,0.2-0.2,0.3-0.2,0.5c0,0.2,0.1,0.3,0.2,0.5l0.2,0.2c0.2,0.2,0.3,0.5,0.6,0.6c0.2,0.1,0.5,0.1,0.9,0.1l0.8,0
				c0.4,0,1.1,0,1.5-0.4c0.4-0.4,0.4-1.1,0.5-1.3l0-0.7c0-0.2,0-0.9-0.4-1.3c-0.4-0.4-1.1-0.5-1.5-0.5l-1.2,0c-0.1,0-0.3,0-0.4,0.1
				C113.4,13,113.4,13.1,113.4,13.2z"/>
			<path class="st13" d="M111.3,14.1l1.7,0l-2.1,2.8l-1.7,0L111.3,14.1z"/>
			<path class="st13" d="M104.4,14.5c0-0.1,0-0.3,0.1-0.4c0.1-0.1,0.3-0.1,0.4-0.1l2.9,0c0.4,0,0.7,0,0.9,0.1
				c0.2,0.1,0.4,0.4,0.6,0.6l0.2,0.2c0.1,0.2,0.2,0.3,0.2,0.5c0,0.2-0.1,0.3-0.2,0.5l-0.7,0.9l-1.7,0l1.2-1.5
				c0.1-0.1,0.2-0.3,0.1-0.4c-0.1-0.2-0.3-0.2-0.4-0.2l-1.4,0l0,3.5l-1.4,0l0-3.5l-0.7,0L104.4,14.5"/>
		</g>
	</g>
</g>
</svg>
